<?xml version="1.0" encoding="utf-8"?>
<!-- Generator: Adobe Illustrator 22.1.0, SVG Export Plug-In . SVG Version: 6.00 Build 0)  -->
<svg version="1.1" id="Layer_1" xmlns="http://www.w3.org/2000/svg" xmlns:xlink="http://www.w3.org/1999/xlink" x="0px" y="0px"
	 viewBox="0 0 350 250" style="enable-background:new 0 0 350 250;" xml:space="preserve">
<style type="text/css">
	.st0{fill:#58868E;}
	.st1{fill:#3E6675;}
	.st2{fill:#C5470C;}
</style>
<g>
	<path class="st0" d="M-61.4-31.6c-1.9,0-3.6-0.4-5.1-1.2c-1.6-0.8-2.9-1.9-4-3.3c-1.1-1.4-1.9-3-2.5-4.9c-0.6-1.9-0.9-3.9-0.9-6.1
		c0-2.3,0.3-4.4,1-6.3c0.7-1.9,1.6-3.6,2.8-5c1.2-1.4,2.6-2.5,4.2-3.3c1.6-0.8,3.4-1.2,5.4-1.2c2.1,0,3.9,0.4,5.5,1.3
		c1,0.6,1.9,1.3,2.7,2.2c0.4,0.4,1.1,0.2,1.1-0.4v-2c0-0.3,0.3-0.6,0.6-0.6h7.8c0.3,0,0.6,0.3,0.6,0.6v27.2c0,2.4-0.4,4.6-1.3,6.5
		c-0.8,1.9-2,3.6-3.6,4.9c-1.5,1.4-3.4,2.4-5.5,3.2c-2.2,0.8-4.5,1.1-7.2,1.1c-3.1,0-5.7-0.5-8-1.5c-2.1-0.9-4-2.3-5.6-4
		c-0.2-0.2-0.2-0.6,0-0.8l4.7-5.2c0.2-0.2,0.6-0.3,0.8,0c1,0.9,2.1,1.6,3.4,2.2c1.5,0.7,3.1,1.1,4.7,1.1c0.9,0,1.8-0.1,2.7-0.4
		c0.9-0.3,1.6-0.7,2.3-1.3c0.7-0.6,1.2-1.4,1.6-2.4c0.4-1,0.6-2.1,0.6-3.5c0-0.6-0.7-0.8-1.1-0.4c-0.7,0.8-1.5,1.5-2.5,2
		C-57.9-32-59.6-31.6-61.4-31.6 M-57.7-40.4c1.1,0,2-0.3,2.8-0.8c0.7-0.5,1.4-1.2,2.1-2.2c0.1-0.1,0.1-0.2,0.1-0.3v-5.2
		c0-0.1,0-0.1,0-0.2c-0.5-1.3-1.3-2.4-2.2-3.2c-1-0.8-2.1-1.2-3.1-1.2c-0.7,0-1.4,0.2-2.1,0.6c-0.6,0.4-1.2,0.9-1.7,1.5
		c-0.5,0.6-0.8,1.3-1.1,2.2c-0.3,0.8-0.4,1.7-0.4,2.6c0,1.9,0.5,3.4,1.6,4.6C-60.7-41-59.4-40.4-57.7-40.4"/>
	<path class="st0" d="M-26.2-31.1c-2,0-3.8-0.4-5.4-1.2c-1.7-0.8-3.1-1.9-4.3-3.3c-1.2-1.4-2.1-3.1-2.8-5.1c-0.7-2-1-4.1-1-6.4
		c0-2.3,0.3-4.3,0.9-6.3c0.6-1.9,1.5-3.6,2.6-5c1.1-1.4,2.4-2.5,4-3.3c1.5-0.8,3.2-1.2,5.1-1.2c1.9,0,3.6,0.4,5.1,1.3
		c1,0.6,1.8,1.3,2.5,2.1c0.4,0.4,1.1,0.2,1.1-0.4v-19c0-0.3,0.3-0.6,0.6-0.6h9.2c0.3,0,0.6,0.3,0.6,0.6v34.8c0,1,0.1,1.8,0.4,2.2
		c0.2,0.3,0.6,0.5,1.1,0.7c0.3,0.1,0.5,0.3,0.5,0.6v8.3c0,0.3-0.2,0.5-0.5,0.6c-1.6,0.3-2.9,0.5-3.9,0.5c-3.5,0-5.6-1.4-6.1-4.3
		l-0.2-1.1c-1,1.9-2.3,3.2-4,4.1C-22.5-31.5-24.3-31.1-26.2-31.1 M-23.3-40.4c1.8,0,3.5-1,4.8-3c0.1-0.1,0.1-0.2,0.1-0.3v-5.2
		c0-0.1,0-0.2,0-0.2c-0.5-1.3-1.2-2.4-2.2-3.2c-1-0.8-2-1.3-3.1-1.3c-0.8,0-1.5,0.2-2.1,0.5s-1.2,0.8-1.6,1.5
		c-0.5,0.6-0.8,1.3-1.1,2.2c-0.3,0.8-0.4,1.7-0.4,2.6c0,1.9,0.5,3.5,1.6,4.7C-26.4-41-25.1-40.4-23.3-40.4"/>
	<path class="st0" d="M9.3-31.1c-2.5,0-5-0.4-7.4-1.3c-2.3-0.8-4.2-2-5.8-3.5C-4.1-36-4.1-36.3-4-36.6l3-5.6
		c0.2-0.3,0.6-0.4,0.9-0.2c1.6,1.1,3.1,2,4.6,2.6c1.7,0.7,3.2,1,4.6,1c1.5,0,2.2-0.5,2.2-1.5c0-0.5-0.3-1-0.8-1.4
		C9.9-42,8.8-42.5,7.1-43c-2-0.6-3.7-1.2-5.1-1.8c-1.4-0.6-2.5-1.3-3.3-2c-0.9-0.7-1.5-1.5-1.8-2.3c-0.4-0.9-0.5-1.9-0.5-3
		c0-1.6,0.3-3,0.9-4.3c0.6-1.3,1.4-2.5,2.4-3.4c1-1,2.3-1.7,3.7-2.2c1.4-0.5,3-0.8,4.7-0.8c2.1,0,4.1,0.3,6,0.9
		c1.8,0.5,3.6,1.6,5.4,3.2c0.2,0.2,0.3,0.5,0.1,0.7l-3.4,5.7c-0.2,0.3-0.6,0.4-0.8,0.2c-1.6-1.1-2.9-1.8-4-2.3
		c-1.2-0.5-2.3-0.8-3.4-0.8c-0.6,0-1.1,0.1-1.5,0.4c-0.4,0.3-0.6,0.6-0.6,1.2c0,0.6,0.3,1.1,0.9,1.4c0.6,0.4,1.7,0.8,3.4,1.3
		c2.1,0.6,3.8,1.2,5.2,1.8c1.4,0.6,2.6,1.3,3.4,2.1c0.9,0.8,1.5,1.6,1.8,2.6c0.4,1,0.5,2,0.5,3.3c0,1.6-0.3,3-0.8,4.3
		c-0.5,1.2-1.3,2.3-2.4,3.2c-1,0.9-2.3,1.6-3.8,2C12.8-31.3,11.2-31.1,9.3-31.1"/>
	<g>
		<path class="st1" d="M-39.1-19.1v-6.7h0.9v3.7l3.5-3.7h0.9l-2.7,3l2.8,3.8h-0.9l-2.4-3.3l-1.2,1.2v2.1H-39.1z"/>
		<path class="st1" d="M-32.1-24.3v5.1H-33v-6.7h0.7l4.2,5.3v-5.2h0.9v6.7H-28L-32.1-24.3z"/>
		<path class="st1" d="M-23-19.1c-0.5,0-0.9-0.1-1.3-0.3c-0.4-0.2-0.7-0.5-1-0.8c-0.3-0.3-0.5-0.7-0.6-1.1s-0.2-0.8-0.2-1.3
			c0-0.4,0.1-0.9,0.2-1.3c0.2-0.4,0.4-0.8,0.7-1.1c0.3-0.3,0.6-0.6,1-0.8c0.4-0.2,0.8-0.3,1.3-0.3c0.5,0,0.9,0.1,1.3,0.3
			c0.4,0.2,0.7,0.5,1,0.8s0.5,0.7,0.6,1.1c0.2,0.4,0.2,0.8,0.2,1.2c0,0.4-0.1,0.9-0.2,1.3c-0.2,0.4-0.4,0.8-0.7,1.1
			c-0.3,0.3-0.6,0.6-1,0.8C-22.1-19.2-22.5-19.1-23-19.1z M-25.3-22.5c0,0.3,0.1,0.7,0.2,1c0.1,0.3,0.3,0.6,0.5,0.8s0.4,0.4,0.7,0.6
			c0.3,0.1,0.6,0.2,0.9,0.2c0.4,0,0.7-0.1,1-0.2s0.5-0.4,0.7-0.6c0.2-0.3,0.4-0.5,0.5-0.8c0.1-0.3,0.2-0.6,0.2-1
			c0-0.3-0.1-0.7-0.2-1c-0.1-0.3-0.3-0.6-0.5-0.8c-0.2-0.2-0.4-0.4-0.7-0.6c-0.3-0.1-0.6-0.2-0.9-0.2c-0.4,0-0.7,0.1-1,0.2
			s-0.5,0.4-0.7,0.6s-0.4,0.5-0.5,0.8C-25.2-23.1-25.3-22.8-25.3-22.5z"/>
		<path class="st1" d="M-16.4-25.8h0.8l0.9,2.3l0.9-2.3h0.8l-1.2,2.9l1.2,2.8l2.3-5.8h0.9l-2.8,6.7h-0.7l-1.3-3.2l-1.3,3.2h-0.7
			l-2.8-6.7h0.9l2.3,5.8l1.1-2.8L-16.4-25.8z"/>
		<path class="st1" d="M-8.9-19.1v-6.7h0.9v6h3.7v0.8H-8.9z"/>
		<path class="st1" d="M1.1-19.9v0.8h-4.6v-6.7h4.5v0.8h-3.6v2.2h3.1v0.7h-3.1v2.3H1.1z"/>
		<path class="st1" d="M2.3-19.1v-6.7h2.3c0.5,0,1,0.1,1.4,0.3c0.4,0.2,0.7,0.4,1,0.7c0.3,0.3,0.5,0.7,0.6,1.1
			c0.1,0.4,0.2,0.8,0.2,1.3c0,0.5-0.1,1-0.2,1.4C7.5-20.7,7.3-20.3,7-20c-0.3,0.3-0.6,0.5-1,0.7c-0.4,0.2-0.8,0.2-1.3,0.2H2.3z
			 M7-22.5c0-0.4-0.1-0.7-0.2-1c-0.1-0.3-0.3-0.6-0.5-0.8c-0.2-0.2-0.5-0.4-0.8-0.5s-0.6-0.2-1-0.2H3.2v5.2h1.5c0.4,0,0.7-0.1,1-0.2
			c0.3-0.1,0.5-0.3,0.7-0.6c0.2-0.2,0.4-0.5,0.5-0.8C7-21.8,7-22.1,7-22.5z"/>
		<path class="st1" d="M13.8-20c-0.6,0.6-1.3,1-2,1c-0.4,0-0.9-0.1-1.2-0.3c-0.4-0.2-0.7-0.5-1-0.8c-0.3-0.3-0.5-0.7-0.7-1.1
			c-0.2-0.4-0.2-0.8-0.2-1.3c0-0.5,0.1-0.9,0.2-1.3c0.2-0.4,0.4-0.8,0.7-1.1s0.6-0.6,1-0.7c0.4-0.2,0.8-0.3,1.2-0.3
			c0.6,0,1.2,0.1,1.6,0.4s0.7,0.6,1,1.1L13.7-24c-0.2-0.4-0.5-0.7-0.8-0.9c-0.3-0.2-0.7-0.3-1.1-0.3c-0.3,0-0.6,0.1-0.9,0.2
			c-0.3,0.1-0.5,0.3-0.7,0.6c-0.2,0.2-0.3,0.5-0.5,0.8c-0.1,0.3-0.2,0.7-0.2,1c0,0.4,0.1,0.7,0.2,1c0.1,0.3,0.3,0.6,0.5,0.8
			c0.2,0.2,0.5,0.4,0.7,0.6c0.3,0.1,0.6,0.2,0.9,0.2c0.7,0,1.4-0.4,2-1.1v-0.9h-1.4v-0.6h2.2v3.4h-0.7V-20z"/>
		<path class="st1" d="M20.4-19.9v0.8h-4.6v-6.7h4.5v0.8h-3.6v2.2h3.2v0.7h-3.2v2.3H20.4z"/>
	</g>
	<text transform="matrix(1 0 0 1.0044 20.7354 -19.1058)" class="st1" style="font-family:'Raleway-Medium'; font-size:11.5962px;"> </text>
	<g>
		<path class="st1" d="M-33-16.4h-2.8v7.3h-1v-7.3h-2.8v-0.9h6.7V-16.4z"/>
		<path class="st1" d="M-28.8-9c-0.6,0-1.1-0.1-1.6-0.4c-0.5-0.2-0.9-0.6-1.2-0.9c-0.3-0.4-0.6-0.8-0.8-1.3s-0.3-1-0.3-1.5
			c0-0.6,0.1-1.1,0.3-1.6s0.5-1,0.8-1.3c0.3-0.4,0.8-0.7,1.2-0.9c0.5-0.2,1-0.3,1.5-0.3c0.6,0,1.1,0.1,1.6,0.4
			c0.5,0.2,0.9,0.6,1.2,1c0.3,0.4,0.6,0.8,0.8,1.3s0.3,1,0.3,1.5c0,0.6-0.1,1.1-0.3,1.6c-0.2,0.5-0.5,0.9-0.8,1.3
			c-0.3,0.4-0.8,0.7-1.2,0.9C-27.7-9.1-28.2-9-28.8-9z M-31.6-13.2c0,0.4,0.1,0.8,0.2,1.2c0.1,0.4,0.3,0.7,0.6,1
			c0.2,0.3,0.5,0.5,0.9,0.7c0.3,0.2,0.7,0.3,1.2,0.3c0.4,0,0.8-0.1,1.2-0.3c0.3-0.2,0.6-0.4,0.9-0.7c0.2-0.3,0.4-0.7,0.6-1
			c0.1-0.4,0.2-0.8,0.2-1.2c0-0.4-0.1-0.8-0.2-1.2c-0.1-0.4-0.3-0.7-0.6-1c-0.3-0.3-0.5-0.5-0.9-0.7c-0.3-0.2-0.7-0.3-1.1-0.3
			c-0.4,0-0.8,0.1-1.2,0.3c-0.3,0.2-0.6,0.4-0.9,0.7s-0.4,0.6-0.6,1C-31.5-14-31.6-13.6-31.6-13.2z"/>
	</g>
	<g>
		<path class="st1" d="M-13.8-13.3c0-0.5,0.1-1,0.3-1.5c0.2-0.5,0.4-0.9,0.8-1.3c0.3-0.4,0.7-0.7,1.2-0.9c0.5-0.2,1-0.4,1.7-0.4
			c0.7,0,1.4,0.2,1.9,0.5s0.9,0.8,1.2,1.3l-0.8,0.5c-0.1-0.3-0.3-0.5-0.4-0.7c-0.2-0.2-0.4-0.3-0.6-0.4c-0.2-0.1-0.4-0.2-0.6-0.2
			c-0.2,0-0.4-0.1-0.6-0.1c-0.5,0-0.9,0.1-1.2,0.3c-0.4,0.2-0.6,0.4-0.9,0.7c-0.2,0.3-0.4,0.7-0.5,1c-0.1,0.4-0.2,0.8-0.2,1.2
			c0,0.4,0.1,0.8,0.2,1.2c0.1,0.4,0.3,0.7,0.6,1c0.3,0.3,0.6,0.5,0.9,0.7c0.3,0.2,0.7,0.3,1.1,0.3c0.2,0,0.4,0,0.7-0.1
			c0.2-0.1,0.4-0.1,0.7-0.3c0.2-0.1,0.4-0.3,0.6-0.5c0.2-0.2,0.3-0.4,0.4-0.7l0.9,0.5c-0.1,0.3-0.3,0.6-0.6,0.8
			c-0.2,0.2-0.5,0.4-0.8,0.6C-8.3-9.3-8.7-9.2-9-9.1C-9.3-9-9.7-9-10-9c-0.6,0-1.1-0.1-1.6-0.4c-0.5-0.2-0.9-0.6-1.2-1
			c-0.3-0.4-0.6-0.9-0.8-1.4C-13.7-12.2-13.8-12.7-13.8-13.3z"/>
		<path class="st1" d="M0.5-16.4h-2.8v7.3h-1v-7.3h-2.8v-0.9h6.7V-16.4z"/>
		<path class="st1" d="M1.7-9.1v-8.3h1v8.3H1.7z"/>
		<path class="st1" d="M8.1-9C7.5-9,7-9.1,6.5-9.4C6-9.6,5.6-9.9,5.3-10.3c-0.3-0.4-0.6-0.8-0.8-1.3s-0.3-1-0.3-1.5
			c0-0.6,0.1-1.1,0.3-1.6s0.5-1,0.8-1.3c0.3-0.4,0.8-0.7,1.2-0.9c0.5-0.2,1-0.3,1.5-0.3c0.6,0,1.1,0.1,1.6,0.4
			c0.5,0.2,0.9,0.6,1.2,1c0.3,0.4,0.6,0.8,0.8,1.3s0.3,1,0.3,1.5c0,0.6-0.1,1.1-0.3,1.6c-0.2,0.5-0.5,0.9-0.8,1.3
			c-0.3,0.4-0.8,0.7-1.2,0.9C9.2-9.1,8.6-9,8.1-9z M5.3-13.2c0,0.4,0.1,0.8,0.2,1.2c0.1,0.4,0.3,0.7,0.6,1c0.2,0.3,0.5,0.5,0.9,0.7
			S7.7-10,8.1-10c0.4,0,0.8-0.1,1.2-0.3c0.3-0.2,0.6-0.4,0.9-0.7s0.4-0.7,0.6-1c0.1-0.4,0.2-0.8,0.2-1.2c0-0.4-0.1-0.8-0.2-1.2
			c-0.1-0.4-0.3-0.7-0.6-1c-0.3-0.3-0.5-0.5-0.9-0.7c-0.3-0.2-0.7-0.3-1.1-0.3c-0.4,0-0.8,0.1-1.2,0.3C6.6-16,6.3-15.7,6-15.4
			s-0.4,0.6-0.6,1C5.3-14,5.3-13.6,5.3-13.2z"/>
		<path class="st1" d="M14.5-15.4v6.3h-1v-8.3h0.8l5.1,6.4v-6.4h1v8.3h-0.9L14.5-15.4z"/>
	</g>
	<path class="st2" d="M-15.3-9.3l-2.4-6.2c-0.1-0.2-0.4-0.2-0.5,0l-2.4,6.2c0,0.1-0.1,0.2-0.2,0.2h-0.5c-0.2,0-0.3-0.2-0.2-0.4
		l3.2-7.8c0-0.1,0.1-0.2,0.2-0.2h0.5c0.1,0,0.2,0.1,0.2,0.2l3.2,7.8c0.1,0.2-0.1,0.4-0.2,0.4H-15C-15.1-9.1-15.2-9.1-15.3-9.3"/>
</g>
<g>
	<path class="st0" d="M111.1-25.6c-1.9,0-3.5-0.4-5.1-1.2c-1.5-0.8-2.9-1.9-3.9-3.3c-1.1-1.4-1.9-3-2.5-4.9
		c-0.6-1.9-0.9-3.9-0.9-6.1c0-2.3,0.3-4.4,1-6.3c0.7-1.9,1.6-3.6,2.7-5c1.2-1.4,2.6-2.5,4.2-3.3c1.6-0.8,3.4-1.2,5.4-1.2
		c2.1,0,3.9,0.4,5.4,1.3c1,0.6,1.9,1.3,2.7,2.2c0.4,0.4,1,0.2,1-0.4v-2c0-0.3,0.3-0.6,0.6-0.6h7.8c0.3,0,0.6,0.3,0.6,0.6v27.2
		c0,2.4-0.4,4.6-1.3,6.5c-0.8,1.9-2,3.6-3.5,4.9c-1.5,1.4-3.4,2.4-5.5,3.2c-2.1,0.8-4.5,1.1-7.1,1.1c-3,0-5.7-0.5-7.9-1.5
		c-2.1-0.9-4-2.3-5.6-4c-0.2-0.2-0.2-0.6,0-0.8l4.7-5.2c0.2-0.2,0.6-0.3,0.8,0c1,0.9,2.1,1.6,3.3,2.2c1.5,0.7,3,1.1,4.7,1.1
		c0.9,0,1.8-0.1,2.7-0.4c0.9-0.3,1.6-0.7,2.3-1.3c0.7-0.6,1.2-1.4,1.6-2.4c0.4-1,0.6-2.1,0.6-3.5c0-0.6-0.7-0.8-1-0.4
		c-0.7,0.8-1.5,1.5-2.5,2C114.6-26,112.9-25.6,111.1-25.6 M114.8-34.4c1.1,0,2-0.3,2.7-0.8c0.7-0.5,1.4-1.2,2.1-2.2
		c0.1-0.1,0.1-0.2,0.1-0.3v-5.2c0-0.1,0-0.1,0-0.2c-0.5-1.3-1.2-2.4-2.2-3.2c-1-0.8-2-1.2-3.1-1.2c-0.7,0-1.4,0.2-2,0.6
		c-0.6,0.4-1.2,0.9-1.7,1.5c-0.5,0.6-0.8,1.3-1.1,2.2c-0.3,0.8-0.4,1.7-0.4,2.6c0,1.9,0.5,3.4,1.6,4.6
		C111.8-35,113.1-34.4,114.8-34.4"/>
	<path class="st0" d="M146.2-25.1c-2,0-3.8-0.4-5.4-1.2c-1.7-0.8-3.1-1.9-4.3-3.3c-1.2-1.4-2.1-3.1-2.8-5.1c-0.7-2-1-4.1-1-6.4
		c0-2.3,0.3-4.3,0.9-6.3c0.6-1.9,1.5-3.6,2.6-5c1.1-1.4,2.4-2.5,3.9-3.3c1.5-0.8,3.2-1.2,5.1-1.2c1.9,0,3.5,0.4,5.1,1.3
		c1,0.6,1.8,1.3,2.5,2.1c0.4,0.4,1.1,0.2,1.1-0.4v-19c0-0.3,0.3-0.6,0.6-0.6h9.2c0.3,0,0.6,0.3,0.6,0.6v34.8c0,1,0.1,1.8,0.4,2.2
		c0.2,0.3,0.6,0.5,1.1,0.7c0.3,0.1,0.5,0.3,0.5,0.6v8.3c0,0.3-0.2,0.5-0.5,0.6c-1.6,0.3-2.9,0.5-3.9,0.5c-3.5,0-5.6-1.4-6.1-4.3
		l-0.2-1.1c-1,1.9-2.3,3.2-4,4.1C149.8-25.5,148.1-25.1,146.2-25.1 M149-34.4c1.8,0,3.4-1,4.8-3c0.1-0.1,0.1-0.2,0.1-0.3v-5.2
		c0-0.1,0-0.2,0-0.2c-0.5-1.3-1.2-2.4-2.2-3.2c-1-0.8-2-1.3-3.1-1.3c-0.8,0-1.5,0.2-2.1,0.5s-1.2,0.8-1.6,1.5
		c-0.5,0.6-0.8,1.3-1.1,2.2c-0.3,0.8-0.4,1.7-0.4,2.6c0,1.9,0.5,3.5,1.6,4.7C145.9-35,147.3-34.4,149-34.4"/>
	<path class="st0" d="M181.5-25.1c-2.5,0-5-0.4-7.4-1.3c-2.2-0.8-4.2-2-5.8-3.5c-0.2-0.2-0.2-0.5-0.1-0.7l3-5.6
		c0.2-0.3,0.6-0.4,0.9-0.2c1.6,1.1,3.1,2,4.6,2.6c1.7,0.7,3.2,1,4.5,1c1.5,0,2.2-0.5,2.2-1.5c0-0.5-0.3-1-0.8-1.4
		c-0.6-0.4-1.7-0.8-3.3-1.3c-2-0.6-3.7-1.2-5.1-1.8c-1.4-0.6-2.5-1.3-3.3-2c-0.9-0.7-1.5-1.5-1.8-2.3c-0.4-0.9-0.5-1.9-0.5-3
		c0-1.6,0.3-3,0.9-4.3c0.6-1.3,1.4-2.5,2.4-3.4c1-1,2.3-1.7,3.7-2.2c1.4-0.5,3-0.8,4.7-0.8c2.1,0,4.1,0.3,6,0.9
		c1.8,0.5,3.6,1.6,5.4,3.2c0.2,0.2,0.3,0.5,0.1,0.7l-3.3,5.7c-0.2,0.3-0.6,0.4-0.8,0.2c-1.5-1.1-2.9-1.8-3.9-2.3
		c-1.2-0.5-2.3-0.8-3.4-0.8c-0.6,0-1.1,0.1-1.5,0.4c-0.4,0.3-0.6,0.6-0.6,1.2c0,0.6,0.3,1.1,0.9,1.4c0.6,0.4,1.7,0.8,3.4,1.3
		c2.1,0.6,3.8,1.2,5.2,1.8c1.4,0.6,2.6,1.3,3.4,2.1c0.9,0.8,1.5,1.6,1.8,2.6c0.4,1,0.5,2,0.5,3.3c0,1.6-0.3,3-0.8,4.3
		c-0.5,1.2-1.3,2.3-2.4,3.2c-1,0.9-2.3,1.6-3.8,2C185-25.3,183.4-25.1,181.5-25.1"/>
	<g>
		<path class="st1" d="M199.8-43.9v-12h1.5v6.6l6.2-6.7h1.6l-4.8,5.3l5.1,6.7h-1.7l-4.3-5.8l-2.1,2.2v3.7H199.8z"/>
		<path class="st1" d="M212.3-53.1v9.2h-1.5v-12h1.2l7.4,9.4v-9.3h1.5v12h-1.3L212.3-53.1z"/>
		<path class="st1" d="M228.6-43.8c-0.8,0-1.6-0.2-2.3-0.5c-0.7-0.3-1.3-0.8-1.8-1.4c-0.5-0.6-0.9-1.2-1.1-2s-0.4-1.5-0.4-2.3
			c0-0.8,0.1-1.6,0.4-2.3c0.3-0.7,0.7-1.4,1.2-1.9c0.5-0.6,1.1-1,1.8-1.3c0.7-0.3,1.4-0.5,2.3-0.5c0.8,0,1.6,0.2,2.3,0.5
			s1.3,0.8,1.8,1.4c0.5,0.6,0.9,1.2,1.1,2c0.3,0.7,0.4,1.5,0.4,2.2c0,0.8-0.1,1.6-0.4,2.3c-0.3,0.7-0.7,1.4-1.2,1.9
			c-0.5,0.6-1.1,1-1.8,1.3C230.2-44,229.4-43.8,228.6-43.8z M224.5-49.9c0,0.6,0.1,1.2,0.3,1.8c0.2,0.6,0.5,1.1,0.8,1.5
			c0.4,0.4,0.8,0.8,1.3,1c0.5,0.3,1.1,0.4,1.7,0.4c0.6,0,1.2-0.1,1.7-0.4s0.9-0.6,1.3-1.1c0.4-0.4,0.6-1,0.8-1.5
			c0.2-0.6,0.3-1.1,0.3-1.7c0-0.6-0.1-1.2-0.3-1.8s-0.5-1.1-0.8-1.5s-0.8-0.8-1.3-1c-0.5-0.3-1.1-0.4-1.7-0.4
			c-0.6,0-1.2,0.1-1.7,0.4c-0.5,0.3-0.9,0.6-1.3,1.1c-0.4,0.4-0.6,0.9-0.8,1.5C224.6-51.1,224.5-50.5,224.5-49.9z"/>
		<path class="st1" d="M240.3-55.8h1.4l1.6,4.2l1.6-4.2h1.4l-2.1,5.2l2.1,5l4-10.3h1.7l-5,12h-1.3l-2.4-5.7l-2.4,5.7h-1.3l-5-12h1.6
			l4.1,10.3l2-5L240.3-55.8z"/>
		<path class="st1" d="M253.6-43.9v-12h1.5v10.7h6.7v1.4H253.6z"/>
		<path class="st1" d="M271.6-45.2v1.4h-8.1v-12h8v1.4H265v3.9h5.6v1.3H265v4.1H271.6z"/>
		<path class="st1" d="M273.7-43.9v-12h4.1c1,0,1.8,0.2,2.5,0.5c0.7,0.3,1.3,0.7,1.8,1.3c0.5,0.5,0.8,1.2,1.1,1.9
			c0.2,0.7,0.4,1.5,0.4,2.3c0,0.9-0.1,1.7-0.4,2.5c-0.3,0.7-0.7,1.4-1.2,1.9s-1.1,0.9-1.8,1.2c-0.7,0.3-1.5,0.4-2.4,0.4H273.7z
			 M282.1-49.9c0-0.7-0.1-1.3-0.3-1.9c-0.2-0.6-0.5-1.1-0.8-1.5s-0.8-0.7-1.3-1s-1.1-0.3-1.8-0.3h-2.6v9.3h2.6
			c0.7,0,1.3-0.1,1.8-0.4c0.5-0.2,1-0.6,1.3-1c0.4-0.4,0.6-0.9,0.8-1.5C282-48.6,282.1-49.3,282.1-49.9z"/>
		<path class="st1" d="M294.2-45.5c-1.1,1.1-2.3,1.7-3.6,1.7c-0.8,0-1.5-0.2-2.2-0.5s-1.3-0.8-1.8-1.4c-0.5-0.6-0.9-1.2-1.2-2
			c-0.3-0.7-0.4-1.5-0.4-2.3c0-0.8,0.1-1.6,0.4-2.3c0.3-0.7,0.7-1.4,1.2-1.9s1.1-1,1.8-1.3c0.7-0.3,1.4-0.5,2.2-0.5
			c1.2,0,2.1,0.2,2.9,0.7c0.7,0.5,1.3,1.1,1.7,1.9l-1.2,0.8c-0.4-0.7-0.8-1.2-1.4-1.6c-0.6-0.3-1.3-0.5-2-0.5
			c-0.6,0-1.2,0.1-1.7,0.4c-0.5,0.3-0.9,0.6-1.3,1c-0.3,0.4-0.6,0.9-0.8,1.5c-0.2,0.6-0.3,1.2-0.3,1.8c0,0.6,0.1,1.3,0.3,1.8
			c0.2,0.6,0.5,1.1,0.9,1.5c0.4,0.4,0.8,0.8,1.3,1c0.5,0.2,1.1,0.4,1.7,0.4c1.3,0,2.5-0.6,3.5-1.9v-1.7h-2.6v-1.2h3.9v6h-1.3V-45.5z
			"/>
		<path class="st1" d="M305.9-45.2v1.4h-8.1v-12h8v1.4h-6.5v3.9h5.6v1.3h-5.6v4.1H305.9z"/>
	</g>
	
		<text transform="matrix(1 0 0 1.0044 306.5156 -43.8939)" class="st1" style="font-family:'Raleway-Medium'; font-size:20.6616px;"> </text>
	<g>
		<path class="st1" d="M210.7-39.1h-5.1V-26h-1.9v-13.1h-5.1v-1.7h12V-39.1z"/>
		<path class="st1" d="M218.4-25.9c-1,0-2-0.2-2.8-0.6c-0.8-0.4-1.6-1-2.2-1.7c-0.6-0.7-1.1-1.5-1.4-2.4c-0.3-0.9-0.5-1.8-0.5-2.8
			c0-1,0.2-1.9,0.5-2.8c0.4-0.9,0.8-1.7,1.5-2.4c0.6-0.7,1.4-1.2,2.2-1.6c0.8-0.4,1.8-0.6,2.8-0.6c1,0,2,0.2,2.8,0.7
			c0.8,0.4,1.6,1,2.2,1.7s1.1,1.5,1.4,2.4c0.3,0.9,0.5,1.8,0.5,2.7c0,1-0.2,1.9-0.5,2.8s-0.8,1.7-1.4,2.4c-0.6,0.7-1.3,1.2-2.2,1.6
			C220.3-26.1,219.4-25.9,218.4-25.9z M213.4-33.4c0,0.7,0.1,1.5,0.4,2.2c0.2,0.7,0.6,1.3,1,1.9c0.4,0.5,1,1,1.6,1.3
			c0.6,0.3,1.3,0.5,2.1,0.5c0.8,0,1.5-0.2,2.1-0.5s1.1-0.8,1.6-1.3c0.4-0.5,0.8-1.2,1-1.9s0.3-1.4,0.3-2.1c0-0.7-0.1-1.5-0.4-2.2
			s-0.6-1.3-1-1.8c-0.4-0.5-1-1-1.6-1.3c-0.6-0.3-1.3-0.5-2-0.5c-0.8,0-1.5,0.2-2.1,0.5s-1.1,0.8-1.6,1.3c-0.4,0.5-0.8,1.2-1,1.8
			C213.5-34.8,213.4-34.1,213.4-33.4z"/>
	</g>
	<g>
		<path class="st1" d="M244.9-33.5c0-0.9,0.2-1.8,0.5-2.6c0.3-0.9,0.8-1.7,1.4-2.4c0.6-0.7,1.3-1.3,2.2-1.7c0.9-0.4,1.9-0.6,3-0.6
			c1.3,0,2.4,0.3,3.4,0.9s1.6,1.4,2.1,2.3l-1.5,1c-0.2-0.5-0.5-0.9-0.8-1.2c-0.3-0.3-0.6-0.6-1-0.8c-0.4-0.2-0.7-0.3-1.1-0.4
			s-0.8-0.1-1.1-0.1c-0.8,0-1.5,0.2-2.2,0.5c-0.6,0.3-1.2,0.8-1.6,1.3c-0.4,0.5-0.7,1.2-1,1.8c-0.2,0.7-0.3,1.4-0.3,2.1
			c0,0.8,0.1,1.5,0.4,2.2c0.3,0.7,0.6,1.3,1.1,1.9c0.5,0.5,1,1,1.6,1.3s1.3,0.5,2,0.5c0.4,0,0.8,0,1.2-0.1s0.8-0.3,1.2-0.5
			s0.7-0.5,1-0.8c0.3-0.3,0.6-0.7,0.8-1.2l1.5,0.9c-0.2,0.6-0.6,1-1,1.5s-0.9,0.8-1.4,1.1s-1.1,0.5-1.7,0.7
			c-0.6,0.2-1.2,0.2-1.7,0.2c-1,0-1.9-0.2-2.8-0.7c-0.8-0.4-1.6-1-2.2-1.7c-0.6-0.7-1.1-1.5-1.4-2.4
			C245.1-31.6,244.9-32.6,244.9-33.5z"/>
		<path class="st1" d="M270.6-39.1h-5.1V-26h-1.9v-13.1h-5.1v-1.7h12V-39.1z"/>
		<path class="st1" d="M272.7-26v-14.7h1.9V-26H272.7z"/>
		<path class="st1" d="M284-25.9c-1,0-2-0.2-2.8-0.6c-0.8-0.4-1.6-1-2.2-1.7c-0.6-0.7-1.1-1.5-1.4-2.4c-0.3-0.9-0.5-1.8-0.5-2.8
			c0-1,0.2-1.9,0.5-2.8c0.4-0.9,0.8-1.7,1.5-2.4c0.6-0.7,1.4-1.2,2.2-1.6c0.8-0.4,1.8-0.6,2.8-0.6c1,0,2,0.2,2.8,0.7
			c0.8,0.4,1.6,1,2.2,1.7s1.1,1.5,1.4,2.4c0.3,0.9,0.5,1.8,0.5,2.7c0,1-0.2,1.9-0.5,2.8s-0.8,1.7-1.4,2.4c-0.6,0.7-1.3,1.2-2.2,1.6
			C285.9-26.1,285-25.9,284-25.9z M279-33.4c0,0.7,0.1,1.5,0.4,2.2c0.2,0.7,0.6,1.3,1,1.9c0.4,0.5,1,1,1.6,1.3
			c0.6,0.3,1.3,0.5,2.1,0.5c0.8,0,1.5-0.2,2.1-0.5s1.1-0.8,1.6-1.3c0.4-0.5,0.8-1.2,1-1.9s0.3-1.4,0.3-2.1c0-0.7-0.1-1.5-0.4-2.2
			s-0.6-1.3-1-1.8c-0.4-0.5-1-1-1.6-1.3c-0.6-0.3-1.3-0.5-2-0.5c-0.8,0-1.5,0.2-2.1,0.5s-1.1,0.8-1.6,1.3c-0.4,0.5-0.8,1.2-1,1.8
			C279.1-34.8,279-34.1,279-33.4z"/>
		<path class="st1" d="M295.4-37.3V-26h-1.9v-14.7h1.4l9.1,11.5v-11.5h1.9V-26h-1.6L295.4-37.3z"/>
	</g>
	<path class="st2" d="M242.4-26.3l-4.3-11c-0.2-0.4-0.7-0.4-0.9,0l-4.3,11c-0.1,0.2-0.2,0.3-0.4,0.3h-0.9c-0.3,0-0.6-0.3-0.4-0.7
		l5.6-13.8c0.1-0.2,0.2-0.3,0.4-0.3h1c0.2,0,0.4,0.1,0.4,0.3l5.6,13.8c0.1,0.3-0.1,0.7-0.4,0.7h-0.9C242.6-26,242.4-26.2,242.4-26.3
		"/>
</g>
<g>
	<path class="st0" d="M78.3,159.1c-4.4,0-8.4-0.9-12-2.8c-3.6-1.9-6.7-4.4-9.3-7.7c-2.6-3.2-4.6-7.1-6-11.5
		c-1.4-4.4-2.1-9.2-2.1-14.3c0-5.4,0.8-10.4,2.3-15c1.5-4.6,3.7-8.5,6.5-11.8c2.8-3.3,6.1-5.9,10-7.8c3.9-1.9,8.1-2.8,12.7-2.8
		c4.9,0,9.2,1,12.9,3.1c2.4,1.4,4.5,3.1,6.3,5.3c0.8,1,2.5,0.4,2.5-0.9v-4.7c0-0.8,0.6-1.4,1.4-1.4h18.4c0.8,0,1.4,0.6,1.4,1.4v64.2
		c0,5.7-1,10.8-3,15.4c-2,4.6-4.8,8.5-8.4,11.7c-3.6,3.2-7.9,5.7-13,7.5c-5.1,1.8-10.7,2.7-16.8,2.7c-7.2,0-13.5-1.2-18.8-3.6
		c-4.9-2.2-9.3-5.3-13.2-9.4c-0.5-0.5-0.5-1.4,0-1.9l11-12.3c0.5-0.6,1.4-0.6,2-0.1c2.3,2,4.9,3.8,7.9,5.3c3.5,1.7,7.2,2.5,11.1,2.5
		c2.2,0,4.3-0.3,6.4-1c2-0.6,3.8-1.7,5.3-3.1s2.8-3.3,3.7-5.6c0.9-2.3,1.4-5,1.4-8.2c0-1.3-1.6-1.9-2.5-0.9c-1.6,2-3.6,3.6-5.9,4.7
		C86.6,158.2,82.6,159.1,78.3,159.1 M87,138.5c2.5,0,4.6-0.6,6.5-1.9c1.8-1.2,3.4-2.9,5-5.2c0.2-0.2,0.2-0.5,0.2-0.8v-12.2
		c0-0.2,0-0.4-0.1-0.5c-1.2-3.2-2.9-5.7-5.2-7.6c-2.4-1.9-4.8-2.9-7.4-2.9c-1.7,0-3.3,0.4-4.8,1.3c-1.5,0.9-2.8,2-3.9,3.4
		c-1.1,1.4-2,3.1-2.6,5.1c-0.6,2-0.9,4.1-0.9,6.3c0,4.5,1.2,8.1,3.7,10.9C80,137.1,83.1,138.5,87,138.5"/>
	<path class="st0" d="M161.1,160.5c-4.6,0-8.9-0.9-12.8-2.7c-3.9-1.8-7.3-4.4-10.1-7.8c-2.8-3.3-5-7.3-6.6-12
		c-1.6-4.6-2.4-9.7-2.4-15.2c0-5.3,0.7-10.3,2.2-14.8c1.5-4.6,3.5-8.5,6.1-11.9c2.6-3.3,5.7-6,9.3-7.8c3.6-1.9,7.6-2.8,12-2.8
		c4.4,0,8.4,1.1,12,3.2c2.3,1.3,4.3,3,5.9,5.1c0.8,1,2.5,0.5,2.5-0.9V48.1c0-0.8,0.6-1.4,1.4-1.4h21.6c0.8,0,1.4,0.6,1.4,1.4v82.1
		c0,2.5,0.3,4.2,1,5.1c0.5,0.7,1.4,1.3,2.5,1.5c0.6,0.2,1.1,0.7,1.1,1.4V158c0,0.7-0.5,1.2-1.1,1.4c-3.7,0.8-6.8,1.1-9.2,1.1
		c-8.3,0-13.1-3.3-14.4-10l-0.5-2.6c-2.3,4.4-5.4,7.6-9.4,9.6C169.8,159.5,165.6,160.5,161.1,160.5 M167.8,138.5
		c4.3,0,8.1-2.3,11.3-7c0.2-0.2,0.2-0.5,0.2-0.8v-12.2c0-0.2,0-0.4-0.1-0.5c-1.2-3.1-2.9-5.6-5.2-7.5c-2.3-2-4.8-3-7.3-3
		c-1.8,0-3.5,0.4-4.9,1.2c-1.5,0.8-2.8,2-3.9,3.4c-1.1,1.5-1.9,3.2-2.6,5.1c-0.6,1.9-1,4-1,6.2c0,4.6,1.2,8.2,3.7,11
		C160.5,137.1,163.8,138.5,167.8,138.5"/>
	<path class="st0" d="M244.6,160.5c-5.9,0-11.7-1-17.4-3.1c-5.3-1.9-9.8-4.7-13.6-8.3c-0.5-0.4-0.6-1.1-0.3-1.7l7.1-13.3
		c0.4-0.7,1.3-1,2-0.5c3.7,2.6,7.4,4.6,10.9,6.1c3.9,1.6,7.5,2.5,10.7,2.5c3.4,0,5.1-1.1,5.1-3.4c0-1.3-0.7-2.4-2-3.3
		c-1.3-0.9-3.9-2-7.8-3.2c-4.8-1.5-8.8-2.9-12-4.3c-3.2-1.4-5.8-3-7.8-4.6c-2-1.6-3.5-3.5-4.3-5.5c-0.9-2-1.3-4.4-1.3-7.1
		c0-3.7,0.7-7,2.1-10.2c1.4-3.1,3.3-5.8,5.7-8.1c2.4-2.3,5.4-4.1,8.7-5.3c3.4-1.2,7.1-1.9,11.1-1.9c5,0,9.7,0.7,14.2,2.1
		c4.2,1.3,8.5,3.8,12.7,7.6c0.5,0.4,0.6,1.2,0.3,1.8l-7.9,13.4c-0.4,0.7-1.3,0.9-2,0.4c-3.7-2.5-6.8-4.3-9.3-5.4
		c-2.8-1.2-5.5-1.9-8-1.9c-1.5,0-2.7,0.3-3.6,0.9c-0.9,0.6-1.4,1.5-1.4,2.8c0,1.4,0.7,2.5,2.1,3.4c1.4,0.9,4.1,1.9,8.1,3
		c4.9,1.4,9,2.8,12.3,4.3c3.3,1.5,6,3.2,8,4.9c2,1.8,3.4,3.8,4.3,6c0.9,2.2,1.3,4.8,1.3,7.8c0,3.8-0.6,7.1-1.9,10
		c-1.3,2.9-3.1,5.5-5.6,7.6c-2.4,2.1-5.4,3.7-8.9,4.8C252.9,159.9,249,160.5,244.6,160.5"/>
	<path class="st2" d="M311.6,157.5l-10.2-25.9c-0.4-0.9-1.7-0.9-2.1,0l-10.1,25.9c-0.2,0.4-0.6,0.7-1,0.7H286c-0.8,0-1.3-0.8-1-1.5
		l13.3-32.6c0.2-0.4,0.6-0.7,1-0.7h2.3c0.5,0,0.9,0.3,1,0.7l13.3,32.6c0.3,0.7-0.2,1.5-1,1.5h-2.2
		C312.2,158.2,311.8,157.9,311.6,157.5"/>
</g>
</svg>
