<?xml version="1.0" encoding="utf-8"?>
<!-- Generator: Adobe Illustrator 22.1.0, SVG Export Plug-In . SVG Version: 6.00 Build 0)  -->
<svg version="1.1" id="Layer_1" xmlns="http://www.w3.org/2000/svg" xmlns:xlink="http://www.w3.org/1999/xlink" x="0px" y="0px"
	 viewBox="0 0 350 250" style="enable-background:new 0 0 350 250;" xml:space="preserve">
<style type="text/css">
	.st0{fill:#58868E;}
	.st1{fill:#3E6675;}
	.st2{font-family:'Raleway-Medium';}
	.st3{font-size:29.9676px;}
	.st4{fill:#C5470C;}
</style>
<g>
	<path class="st0" d="M82.1,153.2c-4.8,0-9.2-1-13.2-3.1c-4-2.1-7.4-4.9-10.2-8.4c-2.8-3.6-5-7.7-6.6-12.6c-1.6-4.8-2.3-10-2.3-15.6
		c0-5.9,0.8-11.4,2.5-16.4c1.7-5,4.1-9.3,7.1-12.9c3.1-3.6,6.7-6.4,10.9-8.5c4.2-2.1,8.9-3.1,14-3.1c5.4,0,10.1,1.1,14.1,3.4
		c2.7,1.5,5,3.4,6.9,5.8c0.9,1.1,2.7,0.5,2.7-1v-5.2c0-0.9,0.7-1.5,1.5-1.5h20.2c0.8,0,1.5,0.7,1.5,1.5V146c0,6.2-1.1,11.8-3.2,16.9
		c-2.2,5-5.2,9.3-9.2,12.8c-4,3.5-8.7,6.2-14.3,8.2c-5.6,2-11.7,2.9-18.5,2.9c-7.9,0-14.8-1.3-20.6-3.9c-5.4-2.4-10.3-5.8-14.6-10.2
		c-0.6-0.6-0.6-1.5,0-2.1l12.1-13.4c0.6-0.6,1.6-0.7,2.2-0.1c2.5,2.2,5.4,4.2,8.7,5.8c3.8,1.9,7.9,2.8,12.2,2.8c2.4,0,4.8-0.4,7-1.1
		c2.2-0.7,4.2-1.8,5.9-3.4c1.7-1.6,3-3.6,4-6.1c1-2.5,1.5-5.5,1.5-9c0-1.4-1.8-2.1-2.7-1c-1.8,2.2-4,3.9-6.5,5.2
		C91.3,152.2,86.9,153.2,82.1,153.2 M91.7,130.6c2.7,0,5.1-0.7,7.1-2c1.9-1.3,3.7-3.2,5.4-5.7c0.2-0.3,0.3-0.6,0.3-0.9v-13.4
		c0-0.2,0-0.4-0.1-0.6c-1.3-3.5-3.2-6.2-5.8-8.3c-2.6-2.1-5.3-3.2-8.1-3.2c-1.9,0-3.7,0.5-5.3,1.4c-1.6,1-3.1,2.2-4.3,3.8
		c-1.2,1.6-2.2,3.4-2.8,5.6c-0.7,2.2-1,4.4-1,6.8c0,4.9,1.4,8.9,4.1,11.9C84,129.1,87.4,130.6,91.7,130.6"/>
	<path class="st0" d="M173.1,154.7c-5.1,0-9.8-1-14.1-3c-4.3-2-8-4.8-11.1-8.5c-3.1-3.7-5.5-8-7.3-13.1c-1.7-5.1-2.6-10.6-2.6-16.6
		c0-5.8,0.8-11.2,2.4-16.2c1.6-5,3.8-9.3,6.7-13c2.9-3.7,6.3-6.5,10.2-8.6c4-2.1,8.3-3.1,13.1-3.1c4.8,0,9.2,1.2,13.2,3.5
		c2.5,1.5,4.7,3.3,6.5,5.6c0.9,1.1,2.7,0.5,2.7-0.9v-49c0-0.9,0.7-1.5,1.5-1.5h23.8c0.9,0,1.5,0.7,1.5,1.5v90c0,2.7,0.4,4.6,1.1,5.6
		c0.6,0.8,1.5,1.4,2.8,1.7c0.7,0.2,1.2,0.8,1.2,1.5v21.5c0,0.7-0.5,1.4-1.2,1.5c-4.1,0.8-7.4,1.2-10.1,1.2c-9.1,0-14.4-3.7-15.8-11
		l-0.6-2.9c-2.5,4.8-6,8.3-10.3,10.5C182.7,153.6,178,154.7,173.1,154.7 M180.5,130.6c4.8,0,8.9-2.6,12.4-7.7
		c0.2-0.3,0.3-0.6,0.3-0.9v-13.4c0-0.2,0-0.4-0.1-0.6c-1.3-3.4-3.2-6.1-5.7-8.2c-2.5-2.2-5.2-3.2-8.1-3.2c-2,0-3.8,0.5-5.4,1.4
		s-3.1,2.2-4.2,3.8c-1.2,1.6-2.1,3.5-2.8,5.6c-0.7,2.1-1.1,4.4-1.1,6.8c0,5,1.3,9,4,12C172.5,129.1,176.1,130.6,180.5,130.6"/>
	<path class="st0" d="M264.9,154.7c-6.5,0-12.9-1.1-19.1-3.4c-5.8-2.1-10.8-5.1-15-9c-0.5-0.5-0.6-1.2-0.3-1.8l7.8-14.6
		c0.4-0.8,1.5-1.1,2.2-0.5c4.1,2.8,8.1,5.1,11.9,6.7c4.3,1.8,8.2,2.7,11.8,2.7c3.8,0,5.7-1.3,5.7-3.8c0-1.4-0.7-2.6-2.2-3.6
		c-1.5-1-4.3-2.2-8.5-3.5c-5.3-1.6-9.7-3.2-13.2-4.7c-3.5-1.6-6.4-3.2-8.6-5c-2.2-1.8-3.8-3.8-4.7-6c-0.9-2.2-1.4-4.8-1.4-7.8
		c0-4,0.8-7.7,2.3-11.1c1.5-3.4,3.6-6.4,6.3-8.9c2.7-2.5,5.9-4.4,9.6-5.8c3.7-1.4,7.8-2,12.2-2c5.5,0,10.7,0.8,15.6,2.3
		c4.6,1.4,9.3,4.2,14,8.3c0.6,0.5,0.7,1.3,0.3,1.9l-8.7,14.7c-0.4,0.8-1.5,1-2.2,0.5c-4-2.7-7.4-4.7-10.2-5.9c-3.1-1.4-6-2-8.8-2
		c-1.6,0-2.9,0.3-4,1c-1,0.7-1.6,1.7-1.6,3.1c0,1.5,0.8,2.7,2.3,3.7c1.5,1,4.5,2,8.9,3.2c5.4,1.5,9.9,3.1,13.6,4.7
		c3.7,1.7,6.6,3.5,8.8,5.4c2.2,2,3.8,4.2,4.7,6.6c0.9,2.5,1.4,5.3,1.4,8.5c0,4.1-0.7,7.8-2.1,11c-1.4,3.2-3.5,6-6.1,8.3
		c-2.7,2.3-5.9,4.1-9.7,5.3C274,154.1,269.7,154.7,264.9,154.7"/>
	<g>
		<path class="st1" d="M139.7,185.6v-17.4h2.2v9.6l8.9-9.7h2.4l-7,7.7l7.4,9.7h-2.4l-6.3-8.5l-3,3.1v5.3H139.7z"/>
		<path class="st1" d="M157.8,172.3v13.3h-2.2v-17.4h1.7l10.8,13.6v-13.6h2.2v17.4h-1.9L157.8,172.3z"/>
		<path class="st1" d="M181.5,185.7c-1.2,0-2.3-0.2-3.3-0.7c-1-0.5-1.9-1.2-2.6-2c-0.7-0.8-1.3-1.8-1.7-2.8
			c-0.4-1.1-0.6-2.2-0.6-3.3c0-1.2,0.2-2.3,0.6-3.3c0.4-1.1,1-2,1.7-2.8c0.7-0.8,1.6-1.5,2.6-2c1-0.5,2.1-0.7,3.3-0.7
			c1.2,0,2.3,0.3,3.3,0.8c1,0.5,1.8,1.2,2.6,2c0.7,0.8,1.3,1.8,1.7,2.8c0.4,1.1,0.6,2.1,0.6,3.2c0,1.2-0.2,2.3-0.6,3.3
			c-0.4,1.1-1,2-1.7,2.8c-0.7,0.8-1.6,1.5-2.6,1.9C183.7,185.4,182.6,185.7,181.5,185.7z M175.5,176.8c0,0.9,0.1,1.7,0.4,2.6
			c0.3,0.8,0.7,1.6,1.2,2.2c0.5,0.6,1.1,1.1,1.9,1.5c0.7,0.4,1.5,0.6,2.4,0.6c0.9,0,1.8-0.2,2.5-0.6c0.7-0.4,1.4-0.9,1.9-1.6
			c0.5-0.6,0.9-1.4,1.2-2.2c0.3-0.8,0.4-1.6,0.4-2.5c0-0.9-0.1-1.7-0.4-2.6c-0.3-0.8-0.7-1.6-1.2-2.2c-0.5-0.6-1.2-1.1-1.9-1.5
			c-0.7-0.4-1.5-0.6-2.4-0.6c-0.9,0-1.8,0.2-2.5,0.6c-0.7,0.4-1.4,0.9-1.9,1.5c-0.5,0.6-0.9,1.4-1.2,2.2
			C175.7,175.2,175.5,176,175.5,176.8z"/>
		<path class="st1" d="M198.4,168.2h2.1l2.3,6.1l2.3-6.1h2.1l-3,7.6l3,7.2l5.9-14.9h2.4l-7.3,17.4h-1.9l-3.4-8.2l-3.5,8.2h-1.9
			l-7.2-17.4h2.4l5.9,14.9l3-7.2L198.4,168.2z"/>
		<path class="st1" d="M217.7,185.6v-17.4h2.2v15.5h9.7v2H217.7z"/>
		<path class="st1" d="M243.8,183.6v2H232v-17.4h11.6v2h-9.4v5.6h8.1v1.8h-8.1v6H243.8z"/>
		<path class="st1" d="M246.8,185.6v-17.4h6c1.4,0,2.6,0.2,3.7,0.7c1.1,0.5,1.9,1.1,2.6,1.9c0.7,0.8,1.2,1.7,1.6,2.8
			c0.4,1.1,0.5,2.2,0.5,3.4c0,1.3-0.2,2.5-0.6,3.6c-0.4,1.1-1,2-1.7,2.7c-0.7,0.8-1.6,1.4-2.7,1.8c-1,0.4-2.2,0.6-3.5,0.6H246.8z
			 M258.9,176.8c0-1-0.1-1.9-0.4-2.7c-0.3-0.8-0.7-1.5-1.2-2.1c-0.5-0.6-1.2-1.1-1.9-1.4s-1.6-0.5-2.6-0.5H249v13.5h3.8
			c1,0,1.9-0.2,2.7-0.5c0.8-0.3,1.4-0.8,1.9-1.4c0.5-0.6,0.9-1.3,1.2-2.1C258.8,178.7,258.9,177.8,258.9,176.8z"/>
		<path class="st1" d="M276.5,183.2c-1.5,1.7-3.3,2.5-5.3,2.5c-1.2,0-2.2-0.3-3.2-0.8c-1-0.5-1.8-1.2-2.6-2
			c-0.7-0.8-1.3-1.8-1.7-2.8c-0.4-1.1-0.6-2.2-0.6-3.3c0-1.2,0.2-2.3,0.6-3.4c0.4-1.1,1-2,1.7-2.8c0.7-0.8,1.6-1.5,2.6-1.9
			c1-0.5,2.1-0.7,3.2-0.7c1.7,0,3.1,0.4,4.1,1.1c1.1,0.7,1.9,1.6,2.5,2.8l-1.7,1.2c-0.5-1-1.2-1.8-2.1-2.3c-0.9-0.5-1.8-0.7-2.9-0.7
			c-0.9,0-1.7,0.2-2.4,0.6c-0.7,0.4-1.3,0.9-1.8,1.5c-0.5,0.6-0.9,1.4-1.2,2.2c-0.3,0.8-0.4,1.7-0.4,2.6c0,0.9,0.2,1.8,0.5,2.6
			c0.3,0.8,0.7,1.6,1.3,2.2c0.5,0.6,1.2,1.1,1.9,1.5c0.7,0.4,1.5,0.5,2.4,0.5c1.9,0,3.6-0.9,5.1-2.7v-2.4h-3.7v-1.7h5.6v8.7h-1.9
			V183.2z"/>
		<path class="st1" d="M293.5,183.6v2h-11.8v-17.4h11.6v2h-9.4v5.6h8.1v1.8h-8.1v6H293.5z"/>
	</g>
	<text transform="matrix(1 0 0 1.0044 294.418 185.5605)" class="st1 st2 st3"> </text>
	<g>
		<path class="st1" d="M155.5,192.5h-7.3v19h-2.7v-19h-7.3v-2.4h17.4V192.5z"/>
		<path class="st1" d="M166.5,211.6c-1.5,0-2.9-0.3-4.1-0.9c-1.2-0.6-2.3-1.4-3.2-2.4c-0.9-1-1.6-2.2-2-3.5c-0.5-1.3-0.7-2.6-0.7-4
			c0-1.4,0.3-2.8,0.8-4.1s1.2-2.5,2.1-3.5c0.9-1,2-1.8,3.2-2.4c1.2-0.6,2.6-0.9,4-0.9c1.5,0,2.9,0.3,4.1,0.9
			c1.2,0.6,2.3,1.5,3.1,2.5c0.9,1,1.6,2.2,2,3.5c0.5,1.3,0.7,2.6,0.7,4c0,1.4-0.3,2.8-0.8,4.1c-0.5,1.3-1.2,2.5-2.1,3.4
			c-0.9,1-1.9,1.8-3.2,2.4C169.3,211.3,168,211.6,166.5,211.6z M159.2,200.8c0,1.1,0.2,2.1,0.5,3.1c0.3,1,0.8,1.9,1.5,2.7
			c0.6,0.8,1.4,1.4,2.3,1.9c0.9,0.5,1.9,0.7,3,0.7c1.1,0,2.2-0.2,3.1-0.7c0.9-0.5,1.7-1.1,2.3-1.9c0.6-0.8,1.1-1.7,1.4-2.7
			c0.3-1,0.5-2,0.5-3c0-1.1-0.2-2.1-0.5-3.1c-0.4-1-0.9-1.9-1.5-2.7c-0.6-0.8-1.4-1.4-2.3-1.9c-0.9-0.5-1.9-0.7-3-0.7
			c-1.1,0-2.2,0.2-3.1,0.7c-0.9,0.5-1.7,1.1-2.3,1.9c-0.6,0.8-1.1,1.7-1.5,2.7C159.4,198.7,159.2,199.7,159.2,200.8z"/>
	</g>
	<g>
		<path class="st1" d="M205.1,200.6c0-1.3,0.2-2.6,0.7-3.8c0.4-1.3,1.1-2.4,2-3.4c0.9-1,1.9-1.8,3.2-2.5c1.3-0.6,2.7-0.9,4.3-0.9
			c1.9,0,3.5,0.4,4.9,1.3s2.4,2,3,3.4L221,196c-0.3-0.7-0.7-1.3-1.2-1.7c-0.5-0.5-0.9-0.8-1.5-1.1c-0.5-0.3-1.1-0.5-1.6-0.6
			c-0.6-0.1-1.1-0.2-1.6-0.2c-1.2,0-2.2,0.2-3.1,0.7c-0.9,0.5-1.7,1.1-2.3,1.9c-0.6,0.8-1.1,1.7-1.4,2.7c-0.3,1-0.5,2-0.5,3
			c0,1.1,0.2,2.2,0.6,3.2c0.4,1,0.9,1.9,1.5,2.7c0.7,0.8,1.4,1.4,2.3,1.9c0.9,0.5,1.9,0.7,2.9,0.7c0.6,0,1.1-0.1,1.7-0.2
			c0.6-0.1,1.2-0.4,1.7-0.7c0.5-0.3,1-0.7,1.5-1.2c0.5-0.5,0.9-1,1.2-1.7l2.2,1.2c-0.3,0.8-0.8,1.5-1.4,2.1
			c-0.6,0.6-1.3,1.1-2.1,1.5c-0.8,0.4-1.6,0.7-2.4,1c-0.9,0.2-1.7,0.3-2.5,0.3c-1.5,0-2.8-0.3-4-1c-1.2-0.6-2.3-1.5-3.2-2.5
			c-0.9-1-1.6-2.2-2.1-3.5C205.3,203.3,205.1,202,205.1,200.6z"/>
		<path class="st1" d="M242.2,192.5h-7.3v19h-2.7v-19h-7.3v-2.4h17.4V192.5z"/>
		<path class="st1" d="M245.3,211.5v-21.4h2.7v21.4H245.3z"/>
		<path class="st1" d="M261.7,211.6c-1.5,0-2.9-0.3-4.1-0.9c-1.2-0.6-2.3-1.4-3.2-2.4c-0.9-1-1.6-2.2-2-3.5c-0.5-1.3-0.7-2.6-0.7-4
			c0-1.4,0.3-2.8,0.8-4.1s1.2-2.5,2.1-3.5c0.9-1,2-1.8,3.2-2.4c1.2-0.6,2.6-0.9,4-0.9c1.5,0,2.9,0.3,4.1,0.9
			c1.2,0.6,2.3,1.5,3.1,2.5c0.9,1,1.6,2.2,2,3.5c0.5,1.3,0.7,2.6,0.7,4c0,1.4-0.3,2.8-0.8,4.1c-0.5,1.3-1.2,2.5-2.1,3.4
			c-0.9,1-1.9,1.8-3.2,2.4C264.5,211.3,263.2,211.6,261.7,211.6z M254.4,200.8c0,1.1,0.2,2.1,0.5,3.1c0.3,1,0.8,1.9,1.5,2.7
			c0.6,0.8,1.4,1.4,2.3,1.9s1.9,0.7,3,0.7c1.1,0,2.2-0.2,3.1-0.7c0.9-0.5,1.7-1.1,2.3-1.9c0.6-0.8,1.1-1.7,1.4-2.7
			c0.3-1,0.5-2,0.5-3c0-1.1-0.2-2.1-0.5-3.1c-0.4-1-0.9-1.9-1.5-2.7c-0.7-0.8-1.4-1.4-2.3-1.9c-0.9-0.5-1.9-0.7-3-0.7
			c-1.1,0-2.2,0.2-3.1,0.7c-0.9,0.5-1.7,1.1-2.3,1.9c-0.6,0.8-1.1,1.7-1.5,2.7C254.6,198.7,254.4,199.7,254.4,200.8z"/>
		<path class="st1" d="M278.2,195.2v16.3h-2.7v-21.4h2.1l13.2,16.6v-16.6h2.7v21.3h-2.3L278.2,195.2z"/>
	</g>
	<path class="st4" d="M201.4,211l-6.3-16c-0.2-0.6-1-0.6-1.3,0l-6.2,16c-0.1,0.3-0.4,0.4-0.6,0.4h-1.4c-0.5,0-0.8-0.5-0.6-1
		l8.2-20.1c0.1-0.3,0.4-0.4,0.6-0.4h1.4c0.3,0,0.5,0.2,0.6,0.4l8.2,20.1c0.2,0.5-0.1,1-0.6,1H202C201.7,211.5,201.5,211.3,201.4,211
		"/>
</g>
<g>
	<path class="st0" d="M111.1-25.6c-1.9,0-3.5-0.4-5.1-1.2c-1.5-0.8-2.9-1.9-3.9-3.3c-1.1-1.4-1.9-3-2.5-4.9
		c-0.6-1.9-0.9-3.9-0.9-6.1c0-2.3,0.3-4.4,1-6.3c0.7-1.9,1.6-3.6,2.7-5c1.2-1.4,2.6-2.5,4.2-3.3c1.6-0.8,3.4-1.2,5.4-1.2
		c2.1,0,3.9,0.4,5.4,1.3c1,0.6,1.9,1.3,2.7,2.2c0.4,0.4,1,0.2,1-0.4v-2c0-0.3,0.3-0.6,0.6-0.6h7.8c0.3,0,0.6,0.3,0.6,0.6v27.2
		c0,2.4-0.4,4.6-1.3,6.5c-0.8,1.9-2,3.6-3.5,4.9c-1.5,1.4-3.4,2.4-5.5,3.2c-2.1,0.8-4.5,1.1-7.1,1.1c-3,0-5.7-0.5-7.9-1.5
		c-2.1-0.9-4-2.3-5.6-4c-0.2-0.2-0.2-0.6,0-0.8l4.7-5.2c0.2-0.2,0.6-0.3,0.8,0c1,0.9,2.1,1.6,3.3,2.2c1.5,0.7,3,1.1,4.7,1.1
		c0.9,0,1.8-0.1,2.7-0.4c0.9-0.3,1.6-0.7,2.3-1.3c0.7-0.6,1.2-1.4,1.6-2.4c0.4-1,0.6-2.1,0.6-3.5c0-0.6-0.7-0.8-1-0.4
		c-0.7,0.8-1.5,1.5-2.5,2C114.6-26,112.9-25.6,111.1-25.6 M114.8-34.4c1.1,0,2-0.3,2.7-0.8c0.7-0.5,1.4-1.2,2.1-2.2
		c0.1-0.1,0.1-0.2,0.1-0.3v-5.2c0-0.1,0-0.1,0-0.2c-0.5-1.3-1.2-2.4-2.2-3.2c-1-0.8-2-1.2-3.1-1.2c-0.7,0-1.4,0.2-2,0.6
		c-0.6,0.4-1.2,0.9-1.7,1.5c-0.5,0.6-0.8,1.3-1.1,2.2c-0.3,0.8-0.4,1.7-0.4,2.6c0,1.9,0.5,3.4,1.6,4.6
		C111.8-35,113.1-34.4,114.8-34.4"/>
	<path class="st0" d="M146.2-25.1c-2,0-3.8-0.4-5.4-1.2c-1.7-0.8-3.1-1.9-4.3-3.3c-1.2-1.4-2.1-3.1-2.8-5.1c-0.7-2-1-4.1-1-6.4
		c0-2.3,0.3-4.3,0.9-6.3c0.6-1.9,1.5-3.6,2.6-5c1.1-1.4,2.4-2.5,3.9-3.3c1.5-0.8,3.2-1.2,5.1-1.2c1.9,0,3.5,0.4,5.1,1.3
		c1,0.6,1.8,1.3,2.5,2.1c0.4,0.4,1.1,0.2,1.1-0.4v-19c0-0.3,0.3-0.6,0.6-0.6h9.2c0.3,0,0.6,0.3,0.6,0.6v34.8c0,1,0.1,1.8,0.4,2.2
		c0.2,0.3,0.6,0.5,1.1,0.7c0.3,0.1,0.5,0.3,0.5,0.6v8.3c0,0.3-0.2,0.5-0.5,0.6c-1.6,0.3-2.9,0.5-3.9,0.5c-3.5,0-5.6-1.4-6.1-4.3
		l-0.2-1.1c-1,1.9-2.3,3.2-4,4.1C149.8-25.5,148.1-25.1,146.2-25.1 M149-34.4c1.8,0,3.4-1,4.8-3c0.1-0.1,0.1-0.2,0.1-0.3v-5.2
		c0-0.1,0-0.2,0-0.2c-0.5-1.3-1.2-2.4-2.2-3.2c-1-0.8-2-1.3-3.1-1.3c-0.8,0-1.5,0.2-2.1,0.5s-1.2,0.8-1.6,1.5
		c-0.5,0.6-0.8,1.3-1.1,2.2c-0.3,0.8-0.4,1.7-0.4,2.6c0,1.9,0.5,3.5,1.6,4.7C145.9-35,147.3-34.4,149-34.4"/>
	<path class="st0" d="M181.5-25.1c-2.5,0-5-0.4-7.4-1.3c-2.2-0.8-4.2-2-5.8-3.5c-0.2-0.2-0.2-0.5-0.1-0.7l3-5.6
		c0.2-0.3,0.6-0.4,0.9-0.2c1.6,1.1,3.1,2,4.6,2.6c1.7,0.7,3.2,1,4.5,1c1.5,0,2.2-0.5,2.2-1.5c0-0.5-0.3-1-0.8-1.4
		c-0.6-0.4-1.7-0.8-3.3-1.3c-2-0.6-3.7-1.2-5.1-1.8c-1.4-0.6-2.5-1.3-3.3-2c-0.9-0.7-1.5-1.5-1.8-2.3c-0.4-0.9-0.5-1.9-0.5-3
		c0-1.6,0.3-3,0.9-4.3c0.6-1.3,1.4-2.5,2.4-3.4c1-1,2.3-1.7,3.7-2.2c1.4-0.5,3-0.8,4.7-0.8c2.1,0,4.1,0.3,6,0.9
		c1.8,0.5,3.6,1.6,5.4,3.2c0.2,0.2,0.3,0.5,0.1,0.7l-3.3,5.7c-0.2,0.3-0.6,0.4-0.8,0.2c-1.5-1.1-2.9-1.8-3.9-2.3
		c-1.2-0.5-2.3-0.8-3.4-0.8c-0.6,0-1.1,0.1-1.5,0.4c-0.4,0.3-0.6,0.6-0.6,1.2c0,0.6,0.3,1.1,0.9,1.4c0.6,0.4,1.7,0.8,3.4,1.3
		c2.1,0.6,3.8,1.2,5.2,1.8c1.4,0.6,2.6,1.3,3.4,2.1c0.9,0.8,1.5,1.6,1.8,2.6c0.4,1,0.5,2,0.5,3.3c0,1.6-0.3,3-0.8,4.3
		c-0.5,1.2-1.3,2.3-2.4,3.2c-1,0.9-2.3,1.6-3.8,2C185-25.3,183.4-25.1,181.5-25.1"/>
	<g>
		<path class="st1" d="M199.8-43.9v-12h1.5v6.6l6.2-6.7h1.6l-4.8,5.3l5.1,6.7h-1.7l-4.3-5.8l-2.1,2.2v3.7H199.8z"/>
		<path class="st1" d="M212.3-53.1v9.2h-1.5v-12h1.2l7.4,9.4v-9.3h1.5v12h-1.3L212.3-53.1z"/>
		<path class="st1" d="M228.6-43.8c-0.8,0-1.6-0.2-2.3-0.5c-0.7-0.3-1.3-0.8-1.8-1.4c-0.5-0.6-0.9-1.2-1.1-2s-0.4-1.5-0.4-2.3
			c0-0.8,0.1-1.6,0.4-2.3c0.3-0.7,0.7-1.4,1.2-1.9c0.5-0.6,1.1-1,1.8-1.3c0.7-0.3,1.4-0.5,2.3-0.5c0.8,0,1.6,0.2,2.3,0.5
			s1.3,0.8,1.8,1.4c0.5,0.6,0.9,1.2,1.1,2c0.3,0.7,0.4,1.5,0.4,2.2c0,0.8-0.1,1.6-0.4,2.3c-0.3,0.7-0.7,1.4-1.2,1.9
			c-0.5,0.6-1.1,1-1.8,1.3C230.2-44,229.4-43.8,228.6-43.8z M224.5-49.9c0,0.6,0.1,1.2,0.3,1.8c0.2,0.6,0.5,1.1,0.8,1.5
			c0.4,0.4,0.8,0.8,1.3,1c0.5,0.3,1.1,0.4,1.7,0.4c0.6,0,1.2-0.1,1.7-0.4s0.9-0.6,1.3-1.1c0.4-0.4,0.6-1,0.8-1.5
			c0.2-0.6,0.3-1.1,0.3-1.7c0-0.6-0.1-1.2-0.3-1.8s-0.5-1.1-0.8-1.5s-0.8-0.8-1.3-1c-0.5-0.3-1.1-0.4-1.7-0.4
			c-0.6,0-1.2,0.1-1.7,0.4c-0.5,0.3-0.9,0.6-1.3,1.1c-0.4,0.4-0.6,0.9-0.8,1.5C224.6-51.1,224.5-50.5,224.5-49.9z"/>
		<path class="st1" d="M240.3-55.8h1.4l1.6,4.2l1.6-4.2h1.4l-2.1,5.2l2.1,5l4-10.3h1.7l-5,12h-1.3l-2.4-5.7l-2.4,5.7h-1.3l-5-12h1.6
			l4.1,10.3l2-5L240.3-55.8z"/>
		<path class="st1" d="M253.6-43.9v-12h1.5v10.7h6.7v1.4H253.6z"/>
		<path class="st1" d="M271.6-45.2v1.4h-8.1v-12h8v1.4H265v3.9h5.6v1.3H265v4.1H271.6z"/>
		<path class="st1" d="M273.7-43.9v-12h4.1c1,0,1.8,0.2,2.5,0.5c0.7,0.3,1.3,0.7,1.8,1.3c0.5,0.5,0.8,1.2,1.1,1.9
			c0.2,0.7,0.4,1.5,0.4,2.3c0,0.9-0.1,1.7-0.4,2.5c-0.3,0.7-0.7,1.4-1.2,1.9s-1.1,0.9-1.8,1.2c-0.7,0.3-1.5,0.4-2.4,0.4H273.7z
			 M282.1-49.9c0-0.7-0.1-1.3-0.3-1.9c-0.2-0.6-0.5-1.1-0.8-1.5s-0.8-0.7-1.3-1s-1.1-0.3-1.8-0.3h-2.6v9.3h2.6
			c0.7,0,1.3-0.1,1.8-0.4c0.5-0.2,1-0.6,1.3-1c0.4-0.4,0.6-0.9,0.8-1.5C282-48.6,282.1-49.3,282.1-49.9z"/>
		<path class="st1" d="M294.2-45.5c-1.1,1.1-2.3,1.7-3.6,1.7c-0.8,0-1.5-0.2-2.2-0.5s-1.3-0.8-1.8-1.4c-0.5-0.6-0.9-1.2-1.2-2
			c-0.3-0.7-0.4-1.5-0.4-2.3c0-0.8,0.1-1.6,0.4-2.3c0.3-0.7,0.7-1.4,1.2-1.9s1.1-1,1.8-1.3c0.7-0.3,1.4-0.5,2.2-0.5
			c1.2,0,2.1,0.2,2.9,0.7c0.7,0.5,1.3,1.1,1.7,1.9l-1.2,0.8c-0.4-0.7-0.8-1.2-1.4-1.6c-0.6-0.3-1.3-0.5-2-0.5
			c-0.6,0-1.2,0.1-1.7,0.4c-0.5,0.3-0.9,0.6-1.3,1c-0.3,0.4-0.6,0.9-0.8,1.5c-0.2,0.6-0.3,1.2-0.3,1.8c0,0.6,0.1,1.3,0.3,1.8
			c0.2,0.6,0.5,1.1,0.9,1.5c0.4,0.4,0.8,0.8,1.3,1c0.5,0.2,1.1,0.4,1.7,0.4c1.3,0,2.5-0.6,3.5-1.9v-1.7h-2.6v-1.2h3.9v6h-1.3V-45.5z
			"/>
		<path class="st1" d="M305.9-45.2v1.4h-8.1v-12h8v1.4h-6.5v3.9h5.6v1.3h-5.6v4.1H305.9z"/>
	</g>
	<text transform="matrix(1 0 0 1.0044 306.5156 -43.8939)" class="st1 st2" style="font-size:20.6616px;"> </text>
	<g>
		<path class="st1" d="M210.7-39.1h-5.1V-26h-1.9v-13.1h-5.1v-1.7h12V-39.1z"/>
		<path class="st1" d="M218.4-25.9c-1,0-2-0.2-2.8-0.6c-0.8-0.4-1.6-1-2.2-1.7c-0.6-0.7-1.1-1.5-1.4-2.4c-0.3-0.9-0.5-1.8-0.5-2.8
			c0-1,0.2-1.9,0.5-2.8c0.4-0.9,0.8-1.7,1.5-2.4c0.6-0.7,1.4-1.2,2.2-1.6c0.8-0.4,1.8-0.6,2.8-0.6c1,0,2,0.2,2.8,0.7
			c0.8,0.4,1.6,1,2.2,1.7s1.1,1.5,1.4,2.4c0.3,0.9,0.5,1.8,0.5,2.7c0,1-0.2,1.9-0.5,2.8s-0.8,1.7-1.4,2.4c-0.6,0.7-1.3,1.2-2.2,1.6
			C220.3-26.1,219.4-25.9,218.4-25.9z M213.4-33.4c0,0.7,0.1,1.5,0.4,2.2c0.2,0.7,0.6,1.3,1,1.9c0.4,0.5,1,1,1.6,1.3
			c0.6,0.3,1.3,0.5,2.1,0.5c0.8,0,1.5-0.2,2.1-0.5s1.1-0.8,1.6-1.3c0.4-0.5,0.8-1.2,1-1.9s0.3-1.4,0.3-2.1c0-0.7-0.1-1.5-0.4-2.2
			s-0.6-1.3-1-1.8c-0.4-0.5-1-1-1.6-1.3c-0.6-0.3-1.3-0.5-2-0.5c-0.8,0-1.5,0.2-2.1,0.5s-1.1,0.8-1.6,1.3c-0.4,0.5-0.8,1.2-1,1.8
			C213.5-34.8,213.4-34.1,213.4-33.4z"/>
	</g>
	<g>
		<path class="st1" d="M244.9-33.5c0-0.9,0.2-1.8,0.5-2.6c0.3-0.9,0.8-1.7,1.4-2.4c0.6-0.7,1.3-1.3,2.2-1.7c0.9-0.4,1.9-0.6,3-0.6
			c1.3,0,2.4,0.3,3.4,0.9s1.6,1.4,2.1,2.3l-1.5,1c-0.2-0.5-0.5-0.9-0.8-1.2c-0.3-0.3-0.6-0.6-1-0.8c-0.4-0.2-0.7-0.3-1.1-0.4
			s-0.8-0.1-1.1-0.1c-0.8,0-1.5,0.2-2.2,0.5c-0.6,0.3-1.2,0.8-1.6,1.3c-0.4,0.5-0.7,1.2-1,1.8c-0.2,0.7-0.3,1.4-0.3,2.1
			c0,0.8,0.1,1.5,0.4,2.2c0.3,0.7,0.6,1.3,1.1,1.9c0.5,0.5,1,1,1.6,1.3s1.3,0.5,2,0.5c0.4,0,0.8,0,1.2-0.1s0.8-0.3,1.2-0.5
			s0.7-0.5,1-0.8c0.3-0.3,0.6-0.7,0.8-1.2l1.5,0.9c-0.2,0.6-0.6,1-1,1.5s-0.9,0.8-1.4,1.1s-1.1,0.5-1.7,0.7
			c-0.6,0.2-1.2,0.2-1.7,0.2c-1,0-1.9-0.2-2.8-0.7c-0.8-0.4-1.6-1-2.2-1.7c-0.6-0.7-1.1-1.5-1.4-2.4
			C245.1-31.6,244.9-32.6,244.9-33.5z"/>
		<path class="st1" d="M270.6-39.1h-5.1V-26h-1.9v-13.1h-5.1v-1.7h12V-39.1z"/>
		<path class="st1" d="M272.7-26v-14.7h1.9V-26H272.7z"/>
		<path class="st1" d="M284-25.9c-1,0-2-0.2-2.8-0.6c-0.8-0.4-1.6-1-2.2-1.7c-0.6-0.7-1.1-1.5-1.4-2.4c-0.3-0.9-0.5-1.8-0.5-2.8
			c0-1,0.2-1.9,0.5-2.8c0.4-0.9,0.8-1.7,1.5-2.4c0.6-0.7,1.4-1.2,2.2-1.6c0.8-0.4,1.8-0.6,2.8-0.6c1,0,2,0.2,2.8,0.7
			c0.8,0.4,1.6,1,2.2,1.7s1.1,1.5,1.4,2.4c0.3,0.9,0.5,1.8,0.5,2.7c0,1-0.2,1.9-0.5,2.8s-0.8,1.7-1.4,2.4c-0.6,0.7-1.3,1.2-2.2,1.6
			C285.9-26.1,285-25.9,284-25.9z M279-33.4c0,0.7,0.1,1.5,0.4,2.2c0.2,0.7,0.6,1.3,1,1.9c0.4,0.5,1,1,1.6,1.3
			c0.6,0.3,1.3,0.5,2.1,0.5c0.8,0,1.5-0.2,2.1-0.5s1.1-0.8,1.6-1.3c0.4-0.5,0.8-1.2,1-1.9s0.3-1.4,0.3-2.1c0-0.7-0.1-1.5-0.4-2.2
			s-0.6-1.3-1-1.8c-0.4-0.5-1-1-1.6-1.3c-0.6-0.3-1.3-0.5-2-0.5c-0.8,0-1.5,0.2-2.1,0.5s-1.1,0.8-1.6,1.3c-0.4,0.5-0.8,1.2-1,1.8
			C279.1-34.8,279-34.1,279-33.4z"/>
		<path class="st1" d="M295.4-37.3V-26h-1.9v-14.7h1.4l9.1,11.5v-11.5h1.9V-26h-1.6L295.4-37.3z"/>
	</g>
	<path class="st4" d="M242.4-26.3l-4.3-11c-0.2-0.4-0.7-0.4-0.9,0l-4.3,11c-0.1,0.2-0.2,0.3-0.4,0.3h-0.9c-0.3,0-0.6-0.3-0.4-0.7
		l5.6-13.8c0.1-0.2,0.2-0.3,0.4-0.3h1c0.2,0,0.4,0.1,0.4,0.3l5.6,13.8c0.1,0.3-0.1,0.7-0.4,0.7h-0.9C242.6-26,242.4-26.2,242.4-26.3
		"/>
</g>
<g>
	<path class="st0" d="M534.3-43.9c-4.4,0-8.4-0.9-12-2.8c-3.6-1.9-6.7-4.4-9.3-7.7c-2.6-3.2-4.6-7.1-6-11.5
		c-1.4-4.4-2.1-9.2-2.1-14.3c0-5.4,0.8-10.4,2.3-15c1.5-4.6,3.7-8.5,6.5-11.8c2.8-3.3,6.1-5.9,10-7.8c3.9-1.9,8.1-2.8,12.7-2.8
		c4.9,0,9.2,1,12.9,3.1c2.4,1.4,4.5,3.1,6.3,5.3c0.8,1,2.5,0.4,2.5-0.9v-4.7c0-0.8,0.6-1.4,1.4-1.4h18.4c0.8,0,1.4,0.6,1.4,1.4v64.2
		c0,5.7-1,10.8-3,15.4c-2,4.6-4.8,8.5-8.4,11.7c-3.6,3.2-7.9,5.7-13,7.5c-5.1,1.8-10.7,2.7-16.8,2.7c-7.2,0-13.5-1.2-18.8-3.6
		c-4.9-2.2-9.3-5.3-13.2-9.4c-0.5-0.5-0.5-1.4,0-1.9l11-12.3c0.5-0.6,1.4-0.6,2-0.1c2.3,2,4.9,3.8,7.9,5.3c3.5,1.7,7.2,2.5,11.1,2.5
		c2.2,0,4.3-0.3,6.4-1s3.8-1.7,5.3-3.1c1.5-1.4,2.8-3.3,3.7-5.6c0.9-2.3,1.4-5,1.4-8.2c0-1.3-1.6-1.9-2.5-0.9
		c-1.6,2-3.6,3.6-5.9,4.7C542.6-44.8,538.6-43.9,534.3-43.9 M543-64.5c2.5,0,4.6-0.6,6.5-1.9c1.8-1.2,3.4-2.9,5-5.2
		c0.2-0.2,0.2-0.5,0.2-0.8v-12.2c0-0.2,0-0.4-0.1-0.5c-1.2-3.2-2.9-5.7-5.2-7.6c-2.4-1.9-4.8-2.9-7.4-2.9c-1.7,0-3.3,0.4-4.8,1.3
		c-1.5,0.9-2.8,2-3.9,3.4c-1.1,1.4-2,3.1-2.6,5.1c-0.6,2-0.9,4.1-0.9,6.3c0,4.5,1.2,8.1,3.7,10.9C536-65.9,539.1-64.5,543-64.5"/>
	<path class="st0" d="M617.1-42.5c-4.6,0-8.9-0.9-12.8-2.7c-3.9-1.8-7.3-4.4-10.1-7.8c-2.8-3.3-5-7.3-6.6-12
		c-1.6-4.6-2.4-9.7-2.4-15.2c0-5.3,0.7-10.3,2.2-14.8c1.5-4.6,3.5-8.5,6.1-11.9c2.6-3.3,5.7-6,9.3-7.8c3.6-1.9,7.6-2.8,12-2.8
		c4.4,0,8.4,1.1,12,3.2c2.3,1.3,4.3,3,5.9,5.1c0.8,1,2.5,0.5,2.5-0.9v-44.7c0-0.8,0.6-1.4,1.4-1.4h21.6c0.8,0,1.4,0.6,1.4,1.4v82.1
		c0,2.5,0.3,4.2,1,5.1c0.5,0.7,1.4,1.3,2.5,1.5c0.6,0.2,1.1,0.7,1.1,1.4V-45c0,0.7-0.5,1.2-1.1,1.4c-3.7,0.8-6.8,1.1-9.2,1.1
		c-8.3,0-13.1-3.3-14.4-10l-0.5-2.6c-2.3,4.4-5.4,7.6-9.4,9.6C625.8-43.5,621.6-42.5,617.1-42.5 M623.8-64.5c4.3,0,8.1-2.3,11.3-7
		c0.2-0.2,0.2-0.5,0.2-0.8v-12.2c0-0.2,0-0.4-0.1-0.5c-1.2-3.1-2.9-5.6-5.2-7.5c-2.3-2-4.8-3-7.3-3c-1.8,0-3.5,0.4-4.9,1.2
		c-1.5,0.8-2.8,2-3.9,3.4c-1.1,1.5-1.9,3.2-2.6,5.1c-0.6,1.9-1,4-1,6.2c0,4.6,1.2,8.2,3.7,11C616.5-65.9,619.8-64.5,623.8-64.5"/>
	<path class="st0" d="M700.6-42.5c-5.9,0-11.7-1-17.4-3.1c-5.3-1.9-9.8-4.7-13.6-8.3c-0.5-0.4-0.6-1.1-0.3-1.7l7.1-13.3
		c0.4-0.7,1.3-1,2-0.5c3.7,2.6,7.4,4.6,10.9,6.1c3.9,1.6,7.5,2.5,10.7,2.5c3.4,0,5.1-1.1,5.1-3.4c0-1.3-0.7-2.4-2-3.3
		c-1.3-0.9-3.9-2-7.8-3.2c-4.8-1.5-8.8-2.9-12-4.3c-3.2-1.4-5.8-3-7.8-4.6s-3.5-3.5-4.3-5.5c-0.9-2-1.3-4.4-1.3-7.1
		c0-3.7,0.7-7,2.1-10.2c1.4-3.1,3.3-5.8,5.7-8.1c2.4-2.3,5.4-4.1,8.7-5.3c3.4-1.2,7.1-1.9,11.1-1.9c5,0,9.7,0.7,14.2,2.1
		c4.2,1.3,8.5,3.8,12.7,7.6c0.5,0.4,0.6,1.2,0.3,1.8l-7.9,13.4c-0.4,0.7-1.3,0.9-2,0.4c-3.7-2.5-6.8-4.3-9.3-5.4
		c-2.8-1.2-5.5-1.9-8-1.9c-1.5,0-2.7,0.3-3.6,0.9c-0.9,0.6-1.4,1.5-1.4,2.8c0,1.4,0.7,2.5,2.1,3.4c1.4,0.9,4.1,1.9,8.1,3
		c4.9,1.4,9,2.8,12.3,4.3c3.3,1.5,6,3.2,8,4.9c2,1.8,3.4,3.8,4.3,6c0.9,2.2,1.3,4.8,1.3,7.8c0,3.8-0.6,7.1-1.9,10
		c-1.3,2.9-3.1,5.5-5.6,7.6c-2.4,2.1-5.4,3.7-8.9,4.8C708.9-43.1,705-42.5,700.6-42.5"/>
	<path class="st4" d="M767.6-45.5l-10.2-25.9c-0.4-0.9-1.7-0.9-2.1,0l-10.1,25.9c-0.2,0.4-0.6,0.7-1,0.7H742c-0.8,0-1.3-0.8-1-1.5
		l13.3-32.6c0.2-0.4,0.6-0.7,1-0.7h2.3c0.5,0,0.9,0.3,1,0.7l13.3,32.6c0.3,0.7-0.2,1.5-1,1.5h-2.2C768.2-44.8,767.8-45.1,767.6-45.5
		"/>
</g>
</svg>
