<?xml version="1.0" encoding="utf-8"?>
<!-- Generator: Adobe Illustrator 22.1.0, SVG Export Plug-In . SVG Version: 6.00 Build 0)  -->
<svg version="1.1" id="Layer_1" xmlns="http://www.w3.org/2000/svg" xmlns:xlink="http://www.w3.org/1999/xlink" x="0px" y="0px"
	 viewBox="0 0 350 250" style="enable-background:new 0 0 350 250;" xml:space="preserve">
<style type="text/css">
	.st0{fill:#FFF;}
	.st1{fill:#FFF;}
	.st2{fill:#FF9901;}
	.st3{font-family:'Raleway-Medium';}
	.st4{font-size:28.4667px;}
</style>
<g>
	<path class="st0" d="M520.1,118.2c-4.8,0-9.2-1-13.2-3.1c-4-2.1-7.4-4.9-10.2-8.4c-2.8-3.6-5-7.7-6.6-12.6
		c-1.6-4.8-2.3-10-2.3-15.6c0-5.9,0.8-11.4,2.5-16.4c1.7-5,4.1-9.3,7.1-12.9c3.1-3.6,6.7-6.4,10.9-8.5c4.2-2.1,8.9-3.1,14-3.1
		c5.4,0,10.1,1.1,14.1,3.4c2.7,1.5,5,3.4,6.9,5.8c0.9,1.1,2.7,0.5,2.7-1v-5.2c0-0.9,0.7-1.5,1.5-1.5h20.2c0.8,0,1.5,0.7,1.5,1.5V111
		c0,6.2-1.1,11.8-3.2,16.9c-2.2,5-5.2,9.3-9.2,12.8c-4,3.5-8.7,6.2-14.3,8.2c-5.6,2-11.7,2.9-18.5,2.9c-7.9,0-14.8-1.3-20.6-3.9
		c-5.4-2.4-10.3-5.8-14.6-10.2c-0.6-0.6-0.6-1.5,0-2.1l12.1-13.4c0.6-0.6,1.6-0.7,2.2-0.1c2.5,2.2,5.4,4.2,8.7,5.8
		c3.8,1.9,7.9,2.8,12.2,2.8c2.4,0,4.8-0.4,7-1.1c2.2-0.7,4.2-1.8,5.9-3.4c1.7-1.6,3-3.6,4-6.1c1-2.5,1.5-5.5,1.5-9
		c0-1.4-1.8-2.1-2.7-1c-1.8,2.2-4,3.9-6.5,5.2C529.3,117.2,524.9,118.2,520.1,118.2 M529.7,95.6c2.7,0,5.1-0.7,7.1-2
		c1.9-1.3,3.7-3.2,5.4-5.7c0.2-0.3,0.3-0.6,0.3-0.9V73.6c0-0.2,0-0.4-0.1-0.6c-1.3-3.5-3.2-6.2-5.8-8.3c-2.6-2.1-5.3-3.2-8.1-3.2
		c-1.9,0-3.7,0.5-5.3,1.4c-1.6,1-3.1,2.2-4.3,3.8c-1.2,1.6-2.2,3.4-2.8,5.6c-0.7,2.2-1,4.4-1,6.8c0,4.9,1.4,8.9,4.1,11.9
		C522,94.1,525.4,95.6,529.7,95.6"/>
	<path class="st0" d="M611.1,119.7c-5.1,0-9.8-1-14.1-3c-4.3-2-8-4.8-11.1-8.5c-3.1-3.7-5.5-8-7.3-13.1c-1.7-5.1-2.6-10.6-2.6-16.6
		c0-5.8,0.8-11.2,2.4-16.2c1.6-5,3.8-9.3,6.7-13c2.9-3.7,6.3-6.5,10.2-8.6c4-2.1,8.3-3.1,13.1-3.1c4.8,0,9.2,1.2,13.2,3.5
		c2.5,1.5,4.7,3.3,6.5,5.6c0.9,1.1,2.7,0.5,2.7-0.9v-49c0-0.9,0.7-1.5,1.5-1.5h23.8c0.9,0,1.5,0.7,1.5,1.5v90c0,2.7,0.4,4.6,1.1,5.6
		c0.6,0.8,1.5,1.4,2.8,1.7c0.7,0.2,1.2,0.8,1.2,1.5v21.5c0,0.7-0.5,1.4-1.2,1.5c-4.1,0.8-7.4,1.2-10.1,1.2c-9.1,0-14.4-3.7-15.8-11
		l-0.6-2.9c-2.5,4.8-6,8.3-10.3,10.5C620.7,118.6,616,119.7,611.1,119.7 M618.5,95.6c4.8,0,8.9-2.6,12.4-7.7
		c0.2-0.3,0.3-0.6,0.3-0.9V73.6c0-0.2,0-0.4-0.1-0.6c-1.3-3.4-3.2-6.1-5.7-8.2c-2.5-2.2-5.2-3.2-8.1-3.2c-2,0-3.8,0.5-5.4,1.4
		c-1.6,0.9-3.1,2.2-4.2,3.8c-1.2,1.6-2.1,3.5-2.8,5.6c-0.7,2.1-1.1,4.4-1.1,6.8c0,5,1.3,9,4,12C610.5,94.1,614.1,95.6,618.5,95.6"/>
	<path class="st0" d="M702.9,119.7c-6.5,0-12.9-1.1-19.1-3.4c-5.8-2.1-10.8-5.1-15-9c-0.5-0.5-0.6-1.2-0.3-1.8l7.8-14.6
		c0.4-0.8,1.5-1.1,2.2-0.5c4.1,2.8,8.1,5.1,11.9,6.7c4.3,1.8,8.2,2.7,11.8,2.7c3.8,0,5.7-1.3,5.7-3.8c0-1.4-0.7-2.6-2.2-3.6
		s-4.3-2.2-8.5-3.5c-5.3-1.6-9.7-3.2-13.2-4.7c-3.5-1.6-6.4-3.2-8.6-5c-2.2-1.8-3.8-3.8-4.7-6c-0.9-2.2-1.4-4.8-1.4-7.8
		c0-4,0.8-7.7,2.3-11.1c1.5-3.4,3.6-6.4,6.3-8.9c2.7-2.5,5.9-4.4,9.6-5.8c3.7-1.4,7.8-2,12.2-2c5.5,0,10.7,0.8,15.6,2.3
		c4.6,1.4,9.3,4.2,14,8.3c0.6,0.5,0.7,1.3,0.3,1.9l-8.7,14.7c-0.4,0.8-1.5,1-2.2,0.5c-4-2.7-7.4-4.7-10.2-5.9c-3.1-1.4-6-2-8.8-2
		c-1.6,0-2.9,0.3-4,1c-1,0.7-1.6,1.7-1.6,3.1c0,1.5,0.8,2.7,2.3,3.7c1.5,1,4.5,2,8.9,3.2c5.4,1.5,9.9,3.1,13.6,4.7
		c3.7,1.7,6.6,3.5,8.8,5.4c2.2,2,3.8,4.2,4.7,6.6c0.9,2.5,1.4,5.3,1.4,8.5c0,4.1-0.7,7.8-2.1,11c-1.4,3.2-3.5,6-6.1,8.3
		c-2.7,2.3-5.9,4.1-9.7,5.3C712,119.1,707.7,119.7,702.9,119.7"/>
	<g>
		<path class="st1" d="M577.7,150.6v-17.4h2.2v9.6l8.9-9.7h2.4l-7,7.7l7.4,9.7h-2.4l-6.3-8.5l-3,3.1v5.3H577.7z"/>
		<path class="st1" d="M595.8,137.3v13.3h-2.2v-17.4h1.7l10.8,13.6v-13.6h2.2v17.4h-1.9L595.8,137.3z"/>
		<path class="st1" d="M619.5,150.7c-1.2,0-2.3-0.2-3.3-0.7c-1-0.5-1.9-1.2-2.6-2c-0.7-0.8-1.3-1.8-1.7-2.8
			c-0.4-1.1-0.6-2.2-0.6-3.3c0-1.2,0.2-2.3,0.6-3.3c0.4-1.1,1-2,1.7-2.8c0.7-0.8,1.6-1.5,2.6-2c1-0.5,2.1-0.7,3.3-0.7
			c1.2,0,2.3,0.3,3.3,0.8c1,0.5,1.8,1.2,2.6,2s1.3,1.8,1.7,2.8c0.4,1.1,0.6,2.1,0.6,3.2c0,1.2-0.2,2.3-0.6,3.3c-0.4,1.1-1,2-1.7,2.8
			c-0.7,0.8-1.6,1.5-2.6,1.9C621.7,150.4,620.6,150.7,619.5,150.7z M613.5,141.8c0,0.9,0.1,1.7,0.4,2.6c0.3,0.8,0.7,1.6,1.2,2.2
			s1.1,1.1,1.9,1.5c0.7,0.4,1.5,0.6,2.4,0.6c0.9,0,1.8-0.2,2.5-0.6c0.7-0.4,1.4-0.9,1.9-1.6c0.5-0.6,0.9-1.4,1.2-2.2
			c0.3-0.8,0.4-1.6,0.4-2.5c0-0.9-0.1-1.7-0.4-2.6c-0.3-0.8-0.7-1.6-1.2-2.2c-0.5-0.6-1.2-1.1-1.9-1.5c-0.7-0.4-1.5-0.6-2.4-0.6
			c-0.9,0-1.8,0.2-2.5,0.6c-0.7,0.4-1.4,0.9-1.9,1.5c-0.5,0.6-0.9,1.4-1.2,2.2C613.7,140.2,613.5,141,613.5,141.8z"/>
		<path class="st1" d="M636.4,133.2h2.1l2.3,6.1l2.3-6.1h2.1l-3,7.6l3,7.2l5.9-14.9h2.4l-7.3,17.4h-1.9l-3.4-8.2l-3.5,8.2h-1.9
			l-7.2-17.4h2.4l5.9,14.9l3-7.2L636.4,133.2z"/>
		<path class="st1" d="M655.7,150.6v-17.4h2.2v15.5h9.7v2H655.7z"/>
		<path class="st1" d="M681.8,148.6v2H670v-17.4h11.6v2h-9.4v5.6h8.1v1.8h-8.1v6H681.8z"/>
		<path class="st1" d="M684.8,150.6v-17.4h6c1.4,0,2.6,0.2,3.7,0.7c1.1,0.5,1.9,1.1,2.6,1.9c0.7,0.8,1.2,1.7,1.6,2.8
			c0.4,1.1,0.5,2.2,0.5,3.4c0,1.3-0.2,2.5-0.6,3.6c-0.4,1.1-1,2-1.7,2.7c-0.7,0.8-1.6,1.4-2.7,1.8c-1,0.4-2.2,0.6-3.5,0.6H684.8z
			 M696.9,141.8c0-1-0.1-1.9-0.4-2.7c-0.3-0.8-0.7-1.5-1.2-2.1c-0.5-0.6-1.2-1.1-1.9-1.4c-0.8-0.3-1.6-0.5-2.6-0.5H687v13.5h3.8
			c1,0,1.9-0.2,2.7-0.5c0.8-0.3,1.4-0.8,1.9-1.4c0.5-0.6,0.9-1.3,1.2-2.1C696.8,143.7,696.9,142.8,696.9,141.8z"/>
		<path class="st1" d="M714.5,148.2c-1.5,1.7-3.3,2.5-5.3,2.5c-1.2,0-2.2-0.3-3.2-0.8c-1-0.5-1.8-1.2-2.6-2
			c-0.7-0.8-1.3-1.8-1.7-2.8c-0.4-1.1-0.6-2.2-0.6-3.3c0-1.2,0.2-2.3,0.6-3.4c0.4-1.1,1-2,1.7-2.8s1.6-1.5,2.6-1.9
			c1-0.5,2.1-0.7,3.2-0.7c1.7,0,3.1,0.4,4.1,1.1c1.1,0.7,1.9,1.6,2.5,2.8l-1.7,1.2c-0.5-1-1.2-1.8-2.1-2.3c-0.9-0.5-1.8-0.7-2.9-0.7
			c-0.9,0-1.7,0.2-2.4,0.6c-0.7,0.4-1.3,0.9-1.8,1.5c-0.5,0.6-0.9,1.4-1.2,2.2c-0.3,0.8-0.4,1.7-0.4,2.6c0,0.9,0.2,1.8,0.5,2.6
			c0.3,0.8,0.7,1.6,1.3,2.2c0.5,0.6,1.2,1.1,1.9,1.5c0.7,0.4,1.5,0.5,2.4,0.5c1.9,0,3.6-0.9,5.1-2.7v-2.4h-3.7v-1.7h5.6v8.7h-1.9
			V148.2z"/>
		<path class="st1" d="M731.5,148.6v2h-11.8v-17.4h11.6v2h-9.4v5.6h8.1v1.8h-8.1v6H731.5z"/>
	</g>
	<text transform="matrix(1 0 0 1.0044 732.418 150.5605)" class="st1 st3" style="font-size:29.9676px;"> </text>
	<g>
		<path class="st1" d="M593.5,157.5h-7.3v19h-2.7v-19h-7.3v-2.4h17.4V157.5z"/>
		<path class="st1" d="M604.5,176.6c-1.5,0-2.9-0.3-4.1-0.9c-1.2-0.6-2.3-1.4-3.2-2.4c-0.9-1-1.6-2.2-2-3.5c-0.5-1.3-0.7-2.6-0.7-4
			c0-1.4,0.3-2.8,0.8-4.1c0.5-1.3,1.2-2.5,2.1-3.5c0.9-1,2-1.8,3.2-2.4c1.2-0.6,2.6-0.9,4-0.9c1.5,0,2.9,0.3,4.1,0.9
			c1.2,0.6,2.3,1.5,3.1,2.5c0.9,1,1.6,2.2,2,3.5c0.5,1.3,0.7,2.6,0.7,4c0,1.4-0.3,2.8-0.8,4.1c-0.5,1.3-1.2,2.5-2.1,3.4
			c-0.9,1-1.9,1.8-3.2,2.4C607.3,176.3,606,176.6,604.5,176.6z M597.2,165.8c0,1.1,0.2,2.1,0.5,3.1c0.3,1,0.8,1.9,1.5,2.7
			c0.6,0.8,1.4,1.4,2.3,1.9c0.9,0.5,1.9,0.7,3,0.7c1.1,0,2.2-0.2,3.1-0.7c0.9-0.5,1.7-1.1,2.3-1.9c0.6-0.8,1.1-1.7,1.4-2.7
			c0.3-1,0.5-2,0.5-3c0-1.1-0.2-2.1-0.5-3.1c-0.4-1-0.9-1.9-1.5-2.7c-0.6-0.8-1.4-1.4-2.3-1.9c-0.9-0.5-1.9-0.7-3-0.7
			c-1.1,0-2.2,0.2-3.1,0.7c-0.9,0.5-1.7,1.1-2.3,1.9c-0.6,0.8-1.1,1.7-1.5,2.7C597.4,163.7,597.2,164.7,597.2,165.8z"/>
	</g>
	<g>
		<path class="st1" d="M643.1,165.6c0-1.3,0.2-2.6,0.7-3.8c0.4-1.3,1.1-2.4,2-3.4c0.9-1,1.9-1.8,3.2-2.5c1.3-0.6,2.7-0.9,4.3-0.9
			c1.9,0,3.5,0.4,4.9,1.3c1.4,0.9,2.4,2,3,3.4L659,161c-0.3-0.7-0.7-1.3-1.2-1.7c-0.5-0.5-0.9-0.8-1.5-1.1c-0.5-0.3-1.1-0.5-1.6-0.6
			c-0.6-0.1-1.1-0.2-1.6-0.2c-1.2,0-2.2,0.2-3.1,0.7c-0.9,0.5-1.7,1.1-2.3,1.9c-0.6,0.8-1.1,1.7-1.4,2.7c-0.3,1-0.5,2-0.5,3
			c0,1.1,0.2,2.2,0.6,3.2c0.4,1,0.9,1.9,1.5,2.7c0.7,0.8,1.4,1.4,2.3,1.9c0.9,0.5,1.9,0.7,2.9,0.7c0.6,0,1.1-0.1,1.7-0.2
			c0.6-0.1,1.2-0.4,1.7-0.7c0.5-0.3,1-0.7,1.5-1.2c0.5-0.5,0.9-1,1.2-1.7l2.2,1.2c-0.3,0.8-0.8,1.5-1.4,2.1
			c-0.6,0.6-1.3,1.1-2.1,1.5c-0.8,0.4-1.6,0.7-2.4,1c-0.9,0.2-1.7,0.3-2.5,0.3c-1.5,0-2.8-0.3-4-1c-1.2-0.6-2.3-1.5-3.2-2.5
			c-0.9-1-1.6-2.2-2.1-3.5C643.3,168.3,643.1,167,643.1,165.6z"/>
		<path class="st1" d="M680.2,157.5h-7.3v19h-2.7v-19h-7.3v-2.4h17.4V157.5z"/>
		<path class="st1" d="M683.3,176.5v-21.4h2.7v21.4H683.3z"/>
		<path class="st1" d="M699.7,176.6c-1.5,0-2.9-0.3-4.1-0.9c-1.2-0.6-2.3-1.4-3.2-2.4c-0.9-1-1.6-2.2-2-3.5c-0.5-1.3-0.7-2.6-0.7-4
			c0-1.4,0.3-2.8,0.8-4.1s1.2-2.5,2.1-3.5c0.9-1,2-1.8,3.2-2.4c1.2-0.6,2.6-0.9,4-0.9c1.5,0,2.9,0.3,4.1,0.9
			c1.2,0.6,2.3,1.5,3.1,2.5c0.9,1,1.6,2.2,2,3.5c0.5,1.3,0.7,2.6,0.7,4c0,1.4-0.3,2.8-0.8,4.1c-0.5,1.3-1.2,2.5-2.1,3.4
			c-0.9,1-1.9,1.8-3.2,2.4C702.5,176.3,701.2,176.6,699.7,176.6z M692.4,165.8c0,1.1,0.2,2.1,0.5,3.1c0.3,1,0.8,1.9,1.5,2.7
			c0.6,0.8,1.4,1.4,2.3,1.9s1.9,0.7,3,0.7c1.1,0,2.2-0.2,3.1-0.7c0.9-0.5,1.7-1.1,2.3-1.9c0.6-0.8,1.1-1.7,1.4-2.7
			c0.3-1,0.5-2,0.5-3c0-1.1-0.2-2.1-0.5-3.1c-0.4-1-0.9-1.9-1.5-2.7c-0.7-0.8-1.4-1.4-2.3-1.9c-0.9-0.5-1.9-0.7-3-0.7
			c-1.1,0-2.2,0.2-3.1,0.7c-0.9,0.5-1.7,1.1-2.3,1.9c-0.6,0.8-1.1,1.7-1.5,2.7C692.6,163.7,692.4,164.7,692.4,165.8z"/>
		<path class="st1" d="M716.2,160.2v16.3h-2.7v-21.4h2.1l13.2,16.6v-16.6h2.7v21.3h-2.3L716.2,160.2z"/>
	</g>
	<path class="st2" d="M639.4,176l-6.3-16c-0.2-0.6-1-0.6-1.3,0l-6.2,16c-0.1,0.3-0.4,0.4-0.6,0.4h-1.4c-0.5,0-0.8-0.5-0.6-1
		l8.2-20.1c0.1-0.3,0.4-0.4,0.6-0.4h1.4c0.3,0,0.5,0.2,0.6,0.4l8.2,20.1c0.2,0.5-0.1,1-0.6,1H640C639.7,176.5,639.5,176.3,639.4,176
		"/>
</g>
<g>
	<path class="st0" d="M50.5,144.9c-2.6,0-4.9-0.5-7-1.6c-2.1-1.1-3.9-2.6-5.4-4.5c-1.5-1.9-2.7-4.1-3.5-6.7
		c-0.8-2.6-1.2-5.3-1.2-8.3c0-3.2,0.4-6.1,1.4-8.7c0.9-2.7,2.2-5,3.8-6.9c1.6-1.9,3.6-3.4,5.8-4.5c2.3-1.1,4.7-1.6,7.4-1.6
		c2.9,0,5.4,0.6,7.5,1.8c1.4,0.8,2.6,1.8,3.7,3.1c0.5,0.6,1.4,0.3,1.4-0.5v-2.8c0-0.5,0.4-0.8,0.8-0.8h10.7c0.5,0,0.8,0.4,0.8,0.8
		v37.5c0,3.3-0.6,6.3-1.7,9c-1.2,2.7-2.8,4.9-4.9,6.8c-2.1,1.9-4.6,3.3-7.6,4.4c-3,1-6.2,1.6-9.8,1.6c-4.2,0-7.9-0.7-11-2.1
		c-2.9-1.3-5.5-3.1-7.7-5.5c-0.3-0.3-0.3-0.8,0-1.1l6.4-7.2c0.3-0.3,0.8-0.4,1.2,0c1.3,1.2,2.9,2.2,4.6,3.1c2,1,4.2,1.5,6.5,1.5
		c1.3,0,2.5-0.2,3.7-0.6c1.2-0.4,2.2-1,3.1-1.8c0.9-0.8,1.6-1.9,2.1-3.2c0.5-1.3,0.8-2.9,0.8-4.8c0-0.8-1-1.1-1.4-0.5
		c-1,1.2-2.1,2.1-3.5,2.8C55.4,144.4,53.1,144.9,50.5,144.9 M55.6,132.9c1.5,0,2.7-0.4,3.8-1.1c1-0.7,2-1.7,2.9-3
		c0.1-0.1,0.1-0.3,0.1-0.5v-7.1c0-0.1,0-0.2-0.1-0.3c-0.7-1.9-1.7-3.3-3.1-4.4c-1.4-1.1-2.8-1.7-4.3-1.7c-1,0-1.9,0.3-2.8,0.8
		c-0.9,0.5-1.6,1.2-2.3,2c-0.6,0.8-1.2,1.8-1.5,3c-0.3,1.2-0.5,2.4-0.5,3.6c0,2.6,0.7,4.7,2.2,6.3C51.5,132.1,53.4,132.9,55.6,132.9
		"/>
	<path class="st0" d="M98.9,145.7c-2.7,0-5.2-0.5-7.5-1.6c-2.3-1.1-4.2-2.6-5.9-4.5c-1.7-2-2.9-4.3-3.9-7c-0.9-2.7-1.4-5.7-1.4-8.9
		c0-3.1,0.4-6,1.3-8.7c0.9-2.7,2-5,3.6-6.9c1.5-2,3.3-3.5,5.4-4.6c2.1-1.1,4.4-1.6,7-1.6c2.6,0,4.9,0.6,7,1.8c1.4,0.8,2.5,1.8,3.5,3
		c0.5,0.6,1.5,0.3,1.5-0.5V80.1c0-0.5,0.4-0.8,0.8-0.8h12.6c0.5,0,0.8,0.4,0.8,0.8v48c0,1.4,0.2,2.4,0.6,3c0.3,0.4,0.8,0.7,1.5,0.9
		c0.4,0.1,0.6,0.4,0.6,0.8v11.5c0,0.4-0.3,0.7-0.7,0.8c-2.2,0.4-3.9,0.7-5.3,0.7c-4.9,0-7.7-2-8.4-5.9l-0.3-1.5
		c-1.4,2.6-3.2,4.4-5.5,5.6C103.9,145.1,101.5,145.7,98.9,145.7 M102.8,132.9c2.5,0,4.7-1.4,6.6-4.1c0.1-0.1,0.1-0.3,0.1-0.5v-7.1
		c0-0.1,0-0.2-0.1-0.3c-0.7-1.8-1.7-3.3-3-4.4c-1.4-1.1-2.8-1.7-4.3-1.7c-1,0-2,0.2-2.9,0.7c-0.9,0.5-1.6,1.2-2.2,2
		c-0.6,0.9-1.1,1.8-1.5,3c-0.4,1.1-0.6,2.3-0.6,3.6c0,2.7,0.7,4.8,2.1,6.4C98.5,132.1,100.4,132.9,102.8,132.9"/>
	<path class="st0" d="M147.6,145.7c-3.4,0-6.8-0.6-10.1-1.8c-3.1-1.1-5.7-2.7-8-4.8c-0.3-0.3-0.3-0.7-0.2-1l4.1-7.8
		c0.2-0.4,0.8-0.6,1.2-0.3c2.2,1.5,4.3,2.7,6.3,3.6c2.3,1,4.4,1.4,6.3,1.4c2,0,3-0.7,3-2c0-0.7-0.4-1.4-1.2-1.9
		c-0.8-0.5-2.3-1.1-4.5-1.8c-2.8-0.9-5.1-1.7-7-2.5c-1.9-0.8-3.4-1.7-4.6-2.7c-1.2-1-2-2-2.5-3.2c-0.5-1.2-0.7-2.6-0.7-4.2
		c0-2.1,0.4-4.1,1.2-5.9c0.8-1.8,1.9-3.4,3.3-4.7c1.4-1.3,3.1-2.4,5.1-3.1c2-0.7,4.1-1.1,6.5-1.1c2.9,0,5.7,0.4,8.3,1.2
		c2.5,0.8,4.9,2.2,7.4,4.4c0.3,0.3,0.4,0.7,0.2,1l-4.6,7.8c-0.2,0.4-0.8,0.5-1.2,0.3c-2.1-1.5-3.9-2.5-5.4-3.2
		c-1.6-0.7-3.2-1.1-4.6-1.1c-0.9,0-1.6,0.2-2.1,0.5c-0.6,0.3-0.8,0.9-0.8,1.6c0,0.8,0.4,1.5,1.2,2c0.8,0.5,2.4,1.1,4.7,1.7
		c2.8,0.8,5.2,1.6,7.2,2.5c2,0.9,3.5,1.8,4.7,2.9c1.2,1,2,2.2,2.5,3.5c0.5,1.3,0.8,2.8,0.8,4.5c0,2.2-0.4,4.1-1.1,5.9
		c-0.7,1.7-1.8,3.2-3.3,4.4c-1.4,1.2-3.2,2.2-5.2,2.8C152.4,145.4,150.1,145.7,147.6,145.7"/>
	<g>
		<path class="st1" d="M172.8,119.8v-16.5h2.1v9.1l8.5-9.2h2.3l-6.6,7.3l7,9.3h-2.3l-6-8l-2.9,3v5.1H172.8z"/>
		<path class="st1" d="M190,107.1v12.6h-2.1v-16.6h1.6l10.2,12.9v-12.9h2.1v16.5h-1.8L190,107.1z"/>
		<path class="st1" d="M212.5,119.9c-1.2,0-2.2-0.2-3.2-0.7c-1-0.5-1.8-1.1-2.5-1.9c-0.7-0.8-1.2-1.7-1.6-2.7s-0.6-2-0.6-3.1
			c0-1.1,0.2-2.2,0.6-3.2c0.4-1,0.9-1.9,1.6-2.7c0.7-0.8,1.5-1.4,2.5-1.9c1-0.5,2-0.7,3.1-0.7c1.2,0,2.2,0.2,3.2,0.7
			c0.9,0.5,1.8,1.1,2.4,1.9c0.7,0.8,1.2,1.7,1.6,2.7c0.4,1,0.6,2,0.6,3.1c0,1.1-0.2,2.2-0.6,3.2c-0.4,1-0.9,1.9-1.6,2.7
			c-0.7,0.8-1.5,1.4-2.5,1.8C214.6,119.6,213.6,119.9,212.5,119.9z M206.9,111.5c0,0.8,0.1,1.7,0.4,2.4c0.3,0.8,0.7,1.5,1.1,2.1
			c0.5,0.6,1.1,1.1,1.8,1.4c0.7,0.4,1.5,0.5,2.3,0.5c0.9,0,1.7-0.2,2.4-0.6s1.3-0.9,1.8-1.5c0.5-0.6,0.9-1.3,1.1-2.1
			c0.3-0.8,0.4-1.6,0.4-2.4c0-0.8-0.1-1.7-0.4-2.4s-0.7-1.5-1.2-2.1s-1.1-1.1-1.8-1.4c-0.7-0.4-1.5-0.5-2.3-0.5
			c-0.9,0-1.7,0.2-2.4,0.6c-0.7,0.4-1.3,0.9-1.8,1.5c-0.5,0.6-0.9,1.3-1.1,2.1C207,109.9,206.9,110.7,206.9,111.5z"/>
		<path class="st1" d="M228.6,103.3h2l2.2,5.8l2.2-5.8h2l-2.9,7.2l2.8,6.8l5.6-14.1h2.3l-6.9,16.6h-1.8l-3.3-7.8l-3.3,7.8h-1.8
			l-6.9-16.6h2.3l5.6,14.1l2.8-6.8L228.6,103.3z"/>
		<path class="st1" d="M246.9,119.8v-16.6h2.1v14.7h9.2v1.9H246.9z"/>
		<path class="st1" d="M271.7,117.9v1.9h-11.2v-16.6h11v1.9h-8.9v5.4h7.7v1.7h-7.7v5.7H271.7z"/>
		<path class="st1" d="M274.5,119.8v-16.6h5.7c1.3,0,2.5,0.2,3.5,0.7c1,0.4,1.8,1,2.5,1.8c0.7,0.7,1.2,1.6,1.5,2.6
			c0.3,1,0.5,2.1,0.5,3.2c0,1.3-0.2,2.4-0.6,3.4c-0.4,1-0.9,1.9-1.6,2.6c-0.7,0.7-1.5,1.3-2.5,1.7c-1,0.4-2.1,0.6-3.3,0.6H274.5z
			 M286.1,111.5c0-0.9-0.1-1.8-0.4-2.6c-0.3-0.8-0.6-1.5-1.1-2s-1.1-1-1.8-1.3c-0.7-0.3-1.6-0.5-2.5-0.5h-3.6v12.8h3.6
			c0.9,0,1.8-0.2,2.5-0.5c0.7-0.3,1.3-0.8,1.8-1.4c0.5-0.6,0.9-1.3,1.1-2C286,113.2,286.1,112.4,286.1,111.5z"/>
		<path class="st1" d="M302.8,117.5c-1.5,1.6-3.1,2.4-5,2.4c-1.1,0-2.1-0.2-3.1-0.7c-0.9-0.5-1.7-1.1-2.4-1.9
			c-0.7-0.8-1.2-1.7-1.6-2.7c-0.4-1-0.6-2.1-0.6-3.1c0-1.1,0.2-2.2,0.6-3.2c0.4-1,0.9-1.9,1.6-2.7c0.7-0.8,1.5-1.4,2.4-1.8
			c0.9-0.5,2-0.7,3.1-0.7c1.6,0,2.9,0.3,3.9,1c1,0.7,1.8,1.5,2.4,2.6l-1.6,1.1c-0.5-1-1.2-1.7-2-2.1c-0.8-0.5-1.7-0.7-2.8-0.7
			c-0.8,0-1.6,0.2-2.3,0.5c-0.7,0.4-1.3,0.8-1.7,1.4c-0.5,0.6-0.9,1.3-1.1,2.1c-0.3,0.8-0.4,1.6-0.4,2.4c0,0.9,0.1,1.7,0.4,2.5
			c0.3,0.8,0.7,1.5,1.2,2.1c0.5,0.6,1.1,1.1,1.8,1.4c0.7,0.3,1.5,0.5,2.3,0.5c1.8,0,3.4-0.9,4.9-2.6v-2.3h-3.6v-1.6h5.3v8.3h-1.8
			V117.5z"/>
		<path class="st1" d="M318.9,117.9v1.9h-11.2v-16.6h11v1.9h-8.9v5.4h7.7v1.7h-7.7v5.7H318.9z"/>
	</g>
	<text transform="matrix(1 0 0 1.0044 319.7979 119.7549)" class="st1 st3 st4"> </text>
	<g>
		<path class="st1" d="M187.8,126.4h-7v18h-2.6v-18h-7v-2.3h16.5V126.4z"/>
		<path class="st1" d="M198.4,144.5c-1.4,0-2.7-0.3-3.9-0.9c-1.2-0.6-2.2-1.4-3-2.3c-0.8-1-1.5-2.1-1.9-3.3
			c-0.5-1.2-0.7-2.5-0.7-3.8c0-1.4,0.2-2.6,0.7-3.9c0.5-1.2,1.2-2.3,2-3.3c0.9-1,1.9-1.7,3-2.3c1.2-0.6,2.4-0.8,3.8-0.8
			c1.4,0,2.7,0.3,3.9,0.9c1.2,0.6,2.2,1.4,3,2.4c0.8,1,1.5,2.1,1.9,3.3c0.5,1.2,0.7,2.5,0.7,3.8c0,1.4-0.2,2.6-0.7,3.9
			c-0.5,1.2-1.1,2.3-2,3.3c-0.8,0.9-1.9,1.7-3,2.3C201,144.2,199.7,144.5,198.4,144.5z M191.4,134.2c0,1,0.2,2,0.5,3
			c0.3,1,0.8,1.8,1.4,2.6c0.6,0.7,1.3,1.3,2.2,1.8c0.9,0.4,1.8,0.7,2.8,0.7c1.1,0,2-0.2,2.9-0.7s1.6-1.1,2.2-1.8
			c0.6-0.8,1.1-1.6,1.4-2.6s0.5-1.9,0.5-2.9c0-1-0.2-2-0.5-3c-0.3-1-0.8-1.8-1.4-2.5c-0.6-0.7-1.3-1.3-2.2-1.8
			c-0.8-0.4-1.8-0.7-2.8-0.7c-1.1,0-2,0.2-2.9,0.7s-1.6,1.1-2.2,1.8c-0.6,0.7-1.1,1.6-1.4,2.5C191.6,132.3,191.4,133.2,191.4,134.2z
			"/>
	</g>
	<g>
		<path class="st1" d="M235,134.1c0-1.2,0.2-2.4,0.6-3.6c0.4-1.2,1.1-2.3,1.9-3.3c0.8-1,1.8-1.7,3-2.3c1.2-0.6,2.6-0.9,4.1-0.9
			c1.8,0,3.4,0.4,4.6,1.2c1.3,0.8,2.2,1.9,2.9,3.2l-2,1.3c-0.3-0.6-0.7-1.2-1.1-1.6c-0.4-0.4-0.9-0.8-1.4-1.1
			c-0.5-0.3-1-0.5-1.6-0.6s-1.1-0.2-1.6-0.2c-1.1,0-2.1,0.2-3,0.7c-0.9,0.5-1.6,1.1-2.2,1.8c-0.6,0.8-1,1.6-1.3,2.5
			c-0.3,0.9-0.4,1.9-0.4,2.8c0,1.1,0.2,2.1,0.5,3c0.4,1,0.8,1.8,1.5,2.6c0.6,0.7,1.4,1.3,2.2,1.8c0.9,0.4,1.8,0.7,2.8,0.7
			c0.5,0,1.1-0.1,1.6-0.2c0.6-0.1,1.1-0.3,1.6-0.6s1-0.7,1.4-1.1c0.4-0.4,0.8-1,1.1-1.6l2.1,1.2c-0.3,0.8-0.8,1.4-1.4,2
			s-1.2,1.1-2,1.5c-0.7,0.4-1.5,0.7-2.3,0.9c-0.8,0.2-1.6,0.3-2.4,0.3c-1.4,0-2.7-0.3-3.8-0.9c-1.2-0.6-2.2-1.4-3-2.4
			c-0.8-1-1.5-2.1-2-3.3C235.2,136.6,235,135.4,235,134.1z"/>
		<path class="st1" d="M270.3,126.4h-7v18h-2.6v-18h-7v-2.3h16.5V126.4z"/>
		<path class="st1" d="M273.2,144.4v-20.3h2.6v20.3H273.2z"/>
		<path class="st1" d="M288.8,144.5c-1.4,0-2.7-0.3-3.9-0.9c-1.2-0.6-2.2-1.4-3-2.3c-0.8-1-1.5-2.1-1.9-3.3
			c-0.5-1.2-0.7-2.5-0.7-3.8c0-1.4,0.2-2.6,0.7-3.9c0.5-1.2,1.2-2.3,2-3.3c0.9-1,1.9-1.7,3-2.3c1.2-0.6,2.4-0.8,3.8-0.8
			c1.4,0,2.7,0.3,3.9,0.9c1.2,0.6,2.2,1.4,3,2.4c0.8,1,1.5,2.1,1.9,3.3c0.5,1.2,0.7,2.5,0.7,3.8c0,1.4-0.2,2.6-0.7,3.9
			c-0.5,1.2-1.1,2.3-2,3.3c-0.8,0.9-1.9,1.7-3,2.3C291.4,144.2,290.1,144.5,288.8,144.5z M281.9,134.2c0,1,0.2,2,0.5,3
			c0.3,1,0.8,1.8,1.4,2.6c0.6,0.7,1.3,1.3,2.2,1.8c0.9,0.4,1.8,0.7,2.8,0.7c1.1,0,2-0.2,2.9-0.7s1.6-1.1,2.2-1.8
			c0.6-0.8,1.1-1.6,1.4-2.6c0.3-1,0.5-1.9,0.5-2.9c0-1-0.2-2-0.5-3c-0.3-1-0.8-1.8-1.4-2.5c-0.6-0.7-1.3-1.3-2.2-1.8
			c-0.8-0.4-1.8-0.7-2.8-0.7c-1.1,0-2,0.2-2.9,0.7s-1.6,1.1-2.2,1.8c-0.6,0.7-1.1,1.6-1.4,2.5C282,132.3,281.9,133.2,281.9,134.2z"
			/>
		<path class="st1" d="M304.4,128.9v15.5h-2.6v-20.3h2l12.5,15.8v-15.8h2.6v20.3h-2.2L304.4,128.9z"/>
	</g>
	<path class="st2" d="M231.4,143.9l-5.9-15.2c-0.2-0.6-1-0.6-1.2,0l-5.9,15.2c-0.1,0.3-0.3,0.4-0.6,0.4h-1.3c-0.5,0-0.8-0.5-0.6-0.9
		l7.7-19.1c0.1-0.2,0.3-0.4,0.6-0.4h1.4c0.3,0,0.5,0.2,0.6,0.4l7.8,19.1c0.2,0.4-0.1,0.9-0.6,0.9H232
		C231.8,144.4,231.5,144.2,231.4,143.9"/>
</g>
<g>
	<path class="st0" d="M534.3-43.9c-4.4,0-8.4-0.9-12-2.8c-3.6-1.9-6.7-4.4-9.3-7.7c-2.6-3.2-4.6-7.1-6-11.5
		c-1.4-4.4-2.1-9.2-2.1-14.3c0-5.4,0.8-10.4,2.3-15c1.5-4.6,3.7-8.5,6.5-11.8c2.8-3.3,6.1-5.9,10-7.8c3.9-1.9,8.1-2.8,12.7-2.8
		c4.9,0,9.2,1,12.9,3.1c2.4,1.4,4.5,3.1,6.3,5.3c0.8,1,2.5,0.4,2.5-0.9v-4.7c0-0.8,0.6-1.4,1.4-1.4h18.4c0.8,0,1.4,0.6,1.4,1.4v64.2
		c0,5.7-1,10.8-3,15.4c-2,4.6-4.8,8.5-8.4,11.7c-3.6,3.2-7.9,5.7-13,7.5c-5.1,1.8-10.7,2.7-16.8,2.7c-7.2,0-13.5-1.2-18.8-3.6
		c-4.9-2.2-9.3-5.3-13.2-9.4c-0.5-0.5-0.5-1.4,0-1.9l11-12.3c0.5-0.6,1.4-0.6,2-0.1c2.3,2,4.9,3.8,7.9,5.3c3.5,1.7,7.2,2.5,11.1,2.5
		c2.2,0,4.3-0.3,6.4-1s3.8-1.7,5.3-3.1c1.5-1.4,2.8-3.3,3.7-5.6c0.9-2.3,1.4-5,1.4-8.2c0-1.3-1.6-1.9-2.5-0.9
		c-1.6,2-3.6,3.6-5.9,4.7C542.6-44.8,538.6-43.9,534.3-43.9 M543-64.5c2.5,0,4.6-0.6,6.5-1.9c1.8-1.2,3.4-2.9,5-5.2
		c0.2-0.2,0.2-0.5,0.2-0.8v-12.2c0-0.2,0-0.4-0.1-0.5c-1.2-3.2-2.9-5.7-5.2-7.6c-2.4-1.9-4.8-2.9-7.4-2.9c-1.7,0-3.3,0.4-4.8,1.3
		c-1.5,0.9-2.8,2-3.9,3.4c-1.1,1.4-2,3.1-2.6,5.1c-0.6,2-0.9,4.1-0.9,6.3c0,4.5,1.2,8.1,3.7,10.9C536-65.9,539.1-64.5,543-64.5"/>
	<path class="st0" d="M617.1-42.5c-4.6,0-8.9-0.9-12.8-2.7c-3.9-1.8-7.3-4.4-10.1-7.8c-2.8-3.3-5-7.3-6.6-12
		c-1.6-4.6-2.4-9.7-2.4-15.2c0-5.3,0.7-10.3,2.2-14.8c1.5-4.6,3.5-8.5,6.1-11.9c2.6-3.3,5.7-6,9.3-7.8c3.6-1.9,7.6-2.8,12-2.8
		c4.4,0,8.4,1.1,12,3.2c2.3,1.3,4.3,3,5.9,5.1c0.8,1,2.5,0.5,2.5-0.9v-44.7c0-0.8,0.6-1.4,1.4-1.4h21.6c0.8,0,1.4,0.6,1.4,1.4v82.1
		c0,2.5,0.3,4.2,1,5.1c0.5,0.7,1.4,1.3,2.5,1.5c0.6,0.2,1.1,0.7,1.1,1.4V-45c0,0.7-0.5,1.2-1.1,1.4c-3.7,0.8-6.8,1.1-9.2,1.1
		c-8.3,0-13.1-3.3-14.4-10l-0.5-2.6c-2.3,4.4-5.4,7.6-9.4,9.6C625.8-43.5,621.6-42.5,617.1-42.5 M623.8-64.5c4.3,0,8.1-2.3,11.3-7
		c0.2-0.2,0.2-0.5,0.2-0.8v-12.2c0-0.2,0-0.4-0.1-0.5c-1.2-3.1-2.9-5.6-5.2-7.5c-2.3-2-4.8-3-7.3-3c-1.8,0-3.5,0.4-4.9,1.2
		c-1.5,0.8-2.8,2-3.9,3.4c-1.1,1.5-1.9,3.2-2.6,5.1c-0.6,1.9-1,4-1,6.2c0,4.6,1.2,8.2,3.7,11C616.5-65.9,619.8-64.5,623.8-64.5"/>
	<path class="st0" d="M700.6-42.5c-5.9,0-11.7-1-17.4-3.1c-5.3-1.9-9.8-4.7-13.6-8.3c-0.5-0.4-0.6-1.1-0.3-1.7l7.1-13.3
		c0.4-0.7,1.3-1,2-0.5c3.7,2.6,7.4,4.6,10.9,6.1c3.9,1.6,7.5,2.5,10.7,2.5c3.4,0,5.1-1.1,5.1-3.4c0-1.3-0.7-2.4-2-3.3
		c-1.3-0.9-3.9-2-7.8-3.2c-4.8-1.5-8.8-2.9-12-4.3c-3.2-1.4-5.8-3-7.8-4.6s-3.5-3.5-4.3-5.5c-0.9-2-1.3-4.4-1.3-7.1
		c0-3.7,0.7-7,2.1-10.2c1.4-3.1,3.3-5.8,5.7-8.1c2.4-2.3,5.4-4.1,8.7-5.3c3.4-1.2,7.1-1.9,11.1-1.9c5,0,9.7,0.7,14.2,2.1
		c4.2,1.3,8.5,3.8,12.7,7.6c0.5,0.4,0.6,1.2,0.3,1.8l-7.9,13.4c-0.4,0.7-1.3,0.9-2,0.4c-3.7-2.5-6.8-4.3-9.3-5.4
		c-2.8-1.2-5.5-1.9-8-1.9c-1.5,0-2.7,0.3-3.6,0.9c-0.9,0.6-1.4,1.5-1.4,2.8c0,1.4,0.7,2.5,2.1,3.4c1.4,0.9,4.1,1.9,8.1,3
		c4.9,1.4,9,2.8,12.3,4.3c3.3,1.5,6,3.2,8,4.9c2,1.8,3.4,3.8,4.3,6c0.9,2.2,1.3,4.8,1.3,7.8c0,3.8-0.6,7.1-1.9,10
		c-1.3,2.9-3.1,5.5-5.6,7.6c-2.4,2.1-5.4,3.7-8.9,4.8C708.9-43.1,705-42.5,700.6-42.5"/>
	<path class="st2" d="M767.6-45.5l-10.2-25.9c-0.4-0.9-1.7-0.9-2.1,0l-10.1,25.9c-0.2,0.4-0.6,0.7-1,0.7H742c-0.8,0-1.3-0.8-1-1.5
		l13.3-32.6c0.2-0.4,0.6-0.7,1-0.7h2.3c0.5,0,0.9,0.3,1,0.7l13.3,32.6c0.3,0.7-0.2,1.5-1,1.5h-2.2C768.2-44.8,767.8-45.1,767.6-45.5
		"/>
</g>
</svg>
