<?xml version="1.0" encoding="utf-8"?>
<!-- Generator: Adobe Illustrator 22.1.0, SVG Export Plug-In . SVG Version: 6.00 Build 0)  -->
<svg version="1.1" id="Layer_1" xmlns="http://www.w3.org/2000/svg" xmlns:xlink="http://www.w3.org/1999/xlink" x="0px" y="0px"
	 viewBox="0 0 1920 1080" style="enable-background:new 0 0 1920 1080;" xml:space="preserve">
<style type="text/css">
	.st0{fill:#FFF;}
	.st1{fill:#FFF;}
	.st2{font-family:'Raleway-Medium';}
	.st3{font-size:101.9193px;}
	.st4{fill:#FF9901;}
</style>
<g>
	<path class="st0" d="M548.2,599.1c-9.1,0-17.5-2-25.1-5.9c-7.6-3.9-14.1-9.3-19.5-16c-5.4-6.8-9.5-14.7-12.5-23.9
		c-3-9.2-4.4-19.1-4.4-29.8c0-11.3,1.6-21.7,4.8-31.2c3.2-9.5,7.7-17.8,13.6-24.6c5.8-6.9,12.8-12.3,20.8-16.2
		c8.1-3.9,16.9-5.9,26.6-5.9c10.2,0,19.2,2.1,26.9,6.4c5.1,2.8,9.4,6.5,13.1,11c1.7,2.1,5.2,0.9,5.2-1.8v-9.8c0-1.6,1.3-2.9,2.9-2.9
		H639c1.6,0,2.9,1.3,2.9,2.9v134c0,11.8-2.1,22.5-6.2,32.1c-4.1,9.5-9.9,17.7-17.5,24.3c-7.5,6.7-16.6,11.9-27.1,15.6
		c-10.6,3.7-22.3,5.6-35.2,5.6c-15,0-28.1-2.5-39.2-7.4c-10.3-4.6-19.5-11.1-27.7-19.5c-1.1-1.1-1.1-2.9,0-4l23-25.5
		c1.1-1.2,3-1.3,4.2-0.2c4.7,4.3,10.2,7.9,16.5,11c7.3,3.5,15,5.3,23.2,5.3c4.7,0,9.1-0.7,13.3-2c4.2-1.3,7.9-3.5,11.1-6.4
		c3.2-3,5.8-6.8,7.7-11.6c1.9-4.8,2.8-10.5,2.8-17.2c0-2.8-3.4-4-5.2-1.8c-3.4,4.1-7.6,7.4-12.4,9.9
		C565.6,597.2,557.3,599.1,548.2,599.1 M566.4,556.2c5.2,0,9.7-1.3,13.6-3.9c3.7-2.4,7.1-6.1,10.4-10.8c0.3-0.5,0.5-1.1,0.5-1.7
		v-25.4c0-0.4-0.1-0.7-0.2-1.1c-2.5-6.6-6.2-11.9-10.9-15.8c-4.9-4-10.1-6-15.4-6c-3.6,0-6.9,0.9-10.1,2.7c-3.1,1.8-5.9,4.2-8.2,7.2
		c-2.3,3-4.1,6.5-5.4,10.6c-1.3,4.1-1.9,8.4-1.9,13c0,9.4,2.6,16.9,7.8,22.6C551.7,553.3,558.4,556.2,566.4,556.2"/>
	<path class="st0" d="M721.3,602c-9.7,0-18.6-1.9-26.7-5.7c-8.2-3.8-15.2-9.2-21.1-16.2c-5.9-7-10.5-15.3-13.8-24.9
		c-3.3-9.6-5-20.2-5-31.6c0-11.1,1.5-21.4,4.6-30.9c3-9.5,7.3-17.8,12.8-24.8c5.5-7,12-12.4,19.5-16.3c7.5-3.9,15.8-5.9,25-5.9
		s17.5,2.2,25.1,6.6c4.8,2.8,9,6.3,12.4,10.6c1.7,2.2,5.2,1,5.2-1.8v-93.3c0-1.6,1.3-2.9,2.9-2.9h45.2c1.6,0,2.9,1.3,2.9,2.9V539
		c0,5.2,0.7,8.7,2.1,10.7c1.1,1.5,2.9,2.6,5.2,3.2c1.3,0.3,2.3,1.5,2.3,2.8v41c0,1.4-1,2.6-2.3,2.9c-7.7,1.6-14.1,2.4-19.2,2.4
		c-17.4,0-27.4-7-30.1-20.9l-1.1-5.4c-4.8,9.2-11.4,15.8-19.6,20C739.3,599.9,730.6,602,721.3,602 M735.2,556.2
		c9.1,0,17-4.9,23.7-14.7c0.3-0.5,0.5-1.1,0.5-1.7v-25.4c0-0.4-0.1-0.8-0.2-1.1c-2.5-6.4-6.1-11.6-10.8-15.6
		c-4.8-4.1-9.9-6.2-15.3-6.2c-3.8,0-7.2,0.9-10.3,2.6c-3.1,1.7-5.8,4.1-8.1,7.2c-2.2,3.1-4,6.6-5.4,10.6c-1.3,4-2,8.3-2,12.9
		c0,9.5,2.6,17.2,7.7,22.9C720.1,553.3,726.8,556.2,735.2,556.2"/>
	<path class="st0" d="M895.7,602c-12.4,0-24.4-2.1-36.3-6.4c-11.1-4-20.6-9.8-28.5-17.2c-1-0.9-1.2-2.4-0.6-3.5l14.9-27.8
		c0.8-1.5,2.8-2,4.3-1c7.8,5.4,15.4,9.6,22.7,12.7c8.1,3.4,15.6,5.2,22.4,5.2c7.2,0,10.7-2.4,10.7-7.2c0-2.7-1.4-5-4.2-6.9
		c-2.8-1.9-8.2-4.1-16.2-6.6c-10-3-18.4-6.1-25.1-9c-6.7-3-12.2-6.2-16.4-9.6c-4.2-3.4-7.2-7.3-9-11.5c-1.8-4.2-2.7-9.2-2.7-14.9
		c0-7.6,1.4-14.7,4.3-21.2c2.9-6.5,6.8-12.1,11.9-16.9c5.1-4.8,11.2-8.4,18.3-11c7.1-2.6,14.8-3.9,23.2-3.9
		c10.4,0,20.3,1.4,29.7,4.3c8.8,2.7,17.7,8,26.5,15.9c1,0.9,1.3,2.5,0.6,3.7L929.8,497c-0.9,1.5-2.8,1.9-4.2,0.9
		c-7.6-5.2-14.1-8.9-19.4-11.3c-5.9-2.6-11.5-3.9-16.7-3.9c-3,0-5.6,0.6-7.5,1.9c-2,1.2-3,3.2-3,5.9c0,2.9,1.4,5.2,4.3,7
		c2.9,1.8,8.5,3.9,16.9,6.2c10.2,2.9,18.8,5.9,25.8,9c7,3.1,12.6,6.6,16.8,10.3c4.2,3.7,7.2,7.9,9,12.6c1.8,4.7,2.7,10.1,2.7,16.2
		c0,7.8-1.3,14.8-4,20.9c-2.7,6.1-6.6,11.4-11.7,15.8c-5.1,4.4-11.3,7.7-18.5,10C913,600.8,904.8,602,895.7,602"/>
	<g>
		<path class="st1" d="M985.9,509.3v-59h7.5v32.6l30.4-32.7h8.1l-23.7,26.1l25,33.1h-8.1l-21.4-28.7l-10.2,10.7v18.1H985.9z"/>
		<path class="st1" d="M1047.6,464.2v45.1h-7.5v-59.1h5.8l36.6,46v-46h7.5v59h-6.3L1047.6,464.2z"/>
		<path class="st1" d="M1128,509.7c-4.2,0-7.9-0.8-11.3-2.5c-3.4-1.7-6.3-3.9-8.8-6.7c-2.4-2.8-4.3-6-5.7-9.6c-1.3-3.6-2-7.3-2-11.1
			c0-3.9,0.7-7.7,2.1-11.3c1.4-3.6,3.4-6.8,5.9-9.6c2.5-2.8,5.4-5,8.9-6.6c3.4-1.6,7.1-2.5,11.1-2.5c4.2,0,7.9,0.9,11.3,2.6
			c3.4,1.7,6.3,4,8.7,6.9c2.4,2.8,4.3,6,5.7,9.6c1.3,3.6,2,7.2,2,10.9c0,3.9-0.7,7.7-2.1,11.3c-1.4,3.6-3.4,6.8-5.8,9.5
			c-2.5,2.7-5.4,4.9-8.8,6.6C1135.7,508.9,1132,509.7,1128,509.7z M1107.8,479.7c0,3,0.5,5.9,1.5,8.7c1,2.8,2.3,5.3,4.1,7.5
			c1.8,2.2,3.9,3.9,6.4,5.2c2.5,1.3,5.3,1.9,8.3,1.9c3.2,0,6-0.7,8.5-2c2.5-1.4,4.6-3.1,6.4-5.3c1.7-2.2,3.1-4.7,4-7.5
			c0.9-2.8,1.4-5.6,1.4-8.4c0-3-0.5-5.9-1.5-8.7c-1-2.8-2.4-5.3-4.2-7.4c-1.8-2.1-3.9-3.8-6.4-5.1c-2.5-1.3-5.2-1.9-8.2-1.9
			c-3.2,0-6,0.7-8.5,2c-2.5,1.3-4.6,3.1-6.4,5.2c-1.7,2.2-3.1,4.6-4,7.4C1108.3,474,1107.8,476.9,1107.8,479.7z"/>
		<path class="st1" d="M1185.7,450.5h7.1l7.8,20.6l7.9-20.6h7.1l-10.2,25.7l10.1,24.4l20-50.5h8.1l-24.7,59.1h-6.5l-11.7-27.9
			l-11.8,27.9h-6.5l-24.6-59.1h8.1l20,50.5l10.1-24.4L1185.7,450.5z"/>
		<path class="st1" d="M1251.3,509.3v-59.1h7.5v52.5h32.9v6.7H1251.3z"/>
		<path class="st1" d="M1340,502.6v6.7h-40.1v-59.1h39.3v6.7h-31.8V476h27.7v6.2h-27.7v20.4H1340z"/>
		<path class="st1" d="M1350.2,509.3v-59.1h20.5c4.7,0,8.9,0.8,12.4,2.3c3.6,1.6,6.6,3.7,8.9,6.3c2.4,2.7,4.2,5.8,5.4,9.4
			c1.2,3.6,1.8,7.4,1.8,11.4c0,4.5-0.7,8.6-2,12.2c-1.3,3.6-3.2,6.7-5.7,9.3c-2.5,2.6-5.5,4.6-9,6c-3.5,1.4-7.4,2.1-11.8,2.1H1350.2
			z M1391.6,479.7c0-3.3-0.5-6.4-1.4-9.2c-0.9-2.8-2.3-5.2-4.1-7.2c-1.8-2-4-3.6-6.6-4.7c-2.6-1.1-5.6-1.7-8.9-1.7h-13v45.8h13
			c3.4,0,6.4-0.6,9-1.7c2.6-1.2,4.8-2.8,6.6-4.8c1.7-2.1,3.1-4.5,4-7.3C1391.1,486,1391.6,482.9,1391.6,479.7z"/>
		<path class="st1" d="M1451.4,501.3c-5.2,5.6-11.2,8.4-18,8.4c-3.9,0-7.6-0.9-10.9-2.6c-3.4-1.7-6.2-4-8.7-6.8
			c-2.4-2.8-4.4-6-5.8-9.6c-1.4-3.6-2.1-7.3-2.1-11.2c0-4,0.7-7.8,2.1-11.4c1.4-3.6,3.3-6.7,5.7-9.5c2.4-2.7,5.3-4.9,8.7-6.5
			c3.4-1.6,7-2.4,11-2.4c5.7,0,10.4,1.2,14.1,3.6c3.7,2.4,6.5,5.5,8.4,9.3l-5.7,4c-1.8-3.4-4.1-6-7.1-7.7s-6.2-2.5-9.9-2.5
			c-3,0-5.7,0.7-8.1,2c-2.4,1.3-4.5,3-6.2,5.2c-1.7,2.1-3,4.6-4,7.4c-0.9,2.8-1.4,5.7-1.4,8.7c0,3.2,0.5,6.1,1.6,9
			c1.1,2.8,2.5,5.3,4.3,7.4c1.8,2.1,4,3.8,6.5,5c2.5,1.2,5.2,1.8,8.1,1.8c6.4,0,12.2-3.1,17.4-9.3v-8.2h-12.7v-5.7h19v29.5h-6.3
			V501.3z"/>
		<path class="st1" d="M1509.1,502.6v6.7h-40.1v-59.1h39.3v6.7h-31.8V476h27.7v6.2h-27.7v20.4H1509.1z"/>
	</g>
	<text transform="matrix(1 0 0 1.0015 1512.2168 509.3037)" class="st1 st2 st3"> </text>
	<g>
		<path class="st1" d="M1039.7,532.9h-25v64.3h-9.2v-64.3h-25v-8.2h59.1V532.9z"/>
		<path class="st1" d="M1077.3,597.7c-5.1,0-9.7-1-13.9-3.1c-4.2-2.1-7.8-4.8-10.8-8.3c-3-3.4-5.3-7.4-6.9-11.8
			c-1.6-4.4-2.4-8.9-2.4-13.6c0-4.8,0.9-9.5,2.6-13.9c1.7-4.4,4.1-8.3,7.2-11.7c3.1-3.4,6.7-6.1,10.9-8.1c4.2-2,8.7-3,13.6-3
			c5.1,0,9.7,1.1,13.9,3.2c4.1,2.1,7.7,5,10.7,8.4c3,3.5,5.3,7.4,6.9,11.8c1.6,4.4,2.4,8.9,2.4,13.4c0,4.8-0.9,9.5-2.6,13.9
			c-1.7,4.4-4.1,8.3-7.1,11.7c-3,3.4-6.6,6.1-10.8,8.1C1086.8,596.7,1082.2,597.7,1077.3,597.7z M1052.6,561c0,3.7,0.6,7.2,1.8,10.7
			c1.2,3.4,2.9,6.5,5,9.1c2.2,2.7,4.8,4.8,7.8,6.3c3.1,1.6,6.5,2.3,10.2,2.3c3.9,0,7.3-0.8,10.4-2.5c3.1-1.7,5.7-3.8,7.8-6.5
			c2.1-2.7,3.8-5.7,4.9-9.1c1.1-3.4,1.7-6.8,1.7-10.3c0-3.7-0.6-7.2-1.8-10.7c-1.2-3.4-2.9-6.5-5.1-9.1c-2.2-2.6-4.8-4.7-7.8-6.3
			c-3-1.6-6.4-2.3-10-2.3c-3.9,0-7.3,0.8-10.4,2.4c-3.1,1.6-5.7,3.8-7.8,6.4c-2.1,2.7-3.8,5.7-4.9,9.1
			C1053.1,553.9,1052.6,557.4,1052.6,561z"/>
	</g>
	<g>
		<path class="st1" d="M1208.5,560.4c0-4.4,0.8-8.7,2.3-13c1.5-4.3,3.8-8.2,6.7-11.6c3-3.4,6.6-6.2,10.9-8.3
			c4.3-2.1,9.1-3.2,14.6-3.2c6.5,0,12,1.5,16.6,4.4c4.6,2.9,8.1,6.7,10.3,11.4l-7.2,4.7c-1.1-2.3-2.4-4.3-3.9-5.8
			c-1.5-1.6-3.2-2.8-5-3.8c-1.8-1-3.7-1.6-5.6-2c-1.9-0.4-3.8-0.6-5.6-0.6c-4,0-7.6,0.8-10.6,2.5c-3.1,1.7-5.7,3.8-7.8,6.5
			c-2.1,2.7-3.7,5.7-4.7,9.1c-1.1,3.4-1.6,6.8-1.6,10.2c0,3.8,0.6,7.4,1.9,10.9c1.3,3.4,3,6.5,5.2,9.1c2.2,2.7,4.9,4.8,7.9,6.3
			c3.1,1.6,6.4,2.3,10,2.3c1.9,0,3.9-0.2,5.9-0.7c2-0.5,3.9-1.2,5.8-2.3c1.8-1.1,3.5-2.4,5.1-4c1.6-1.6,2.9-3.5,3.9-5.8l7.6,4.2
			c-1.2,2.7-2.8,5.1-4.8,7.2c-2.1,2.1-4.4,3.8-7,5.3c-2.6,1.4-5.4,2.5-8.3,3.3c-2.9,0.7-5.8,1.1-8.6,1.1c-5,0-9.5-1.1-13.7-3.3
			c-4.1-2.2-7.7-5-10.8-8.5c-3-3.5-5.4-7.5-7-11.9C1209.3,569.6,1208.5,565.1,1208.5,560.4z"/>
		<path class="st1" d="M1334.9,532.9h-25v64.3h-9.2v-64.3h-25v-8.2h59.1V532.9z"/>
		<path class="st1" d="M1345.3,597.2v-72.5h9.2v72.5H1345.3z"/>
		<path class="st1" d="M1401.1,597.7c-5.1,0-9.7-1-13.9-3.1c-4.2-2.1-7.8-4.8-10.8-8.3c-3-3.4-5.3-7.4-6.9-11.8
			c-1.6-4.4-2.4-8.9-2.4-13.6c0-4.8,0.9-9.5,2.6-13.9c1.7-4.4,4.1-8.3,7.2-11.7c3.1-3.4,6.7-6.1,10.9-8.1c4.2-2,8.7-3,13.6-3
			c5.1,0,9.7,1.1,13.9,3.2c4.1,2.1,7.7,5,10.7,8.4c3,3.5,5.3,7.4,6.9,11.8c1.6,4.4,2.4,8.9,2.4,13.4c0,4.8-0.9,9.5-2.6,13.9
			c-1.7,4.4-4.1,8.3-7.1,11.7c-3,3.4-6.6,6.1-10.8,8.1C1410.5,596.7,1406,597.7,1401.1,597.7z M1376.4,561c0,3.7,0.6,7.2,1.8,10.7
			c1.2,3.4,2.9,6.5,5,9.1c2.2,2.7,4.8,4.8,7.8,6.3c3.1,1.6,6.5,2.3,10.2,2.3c3.9,0,7.3-0.8,10.4-2.5c3.1-1.7,5.7-3.8,7.8-6.5
			c2.1-2.7,3.8-5.7,4.9-9.1c1.1-3.4,1.7-6.8,1.7-10.3c0-3.7-0.6-7.2-1.8-10.7c-1.2-3.4-2.9-6.5-5.1-9.1c-2.2-2.6-4.8-4.7-7.8-6.3
			c-3-1.6-6.4-2.3-10-2.3c-3.9,0-7.3,0.8-10.4,2.4c-3.1,1.6-5.7,3.8-7.8,6.4c-2.1,2.7-3.8,5.7-4.9,9.1
			C1376.9,553.9,1376.4,557.4,1376.4,561z"/>
		<path class="st1" d="M1457.2,541.9v55.3h-9.2v-72.5h7.1l44.8,56.4v-56.3h9.2v72.4h-7.7L1457.2,541.9z"/>
	</g>
	<path class="st4" d="M1195.8,595.7l-21.3-54.1c-0.8-2-3.6-2-4.4,0l-21.2,54.1c-0.4,0.9-1.2,1.5-2.2,1.5h-4.6
		c-1.7,0-2.8-1.7-2.2-3.2l27.7-68c0.4-0.9,1.2-1.5,2.2-1.5h4.8c0.9,0,1.8,0.6,2.2,1.5l27.8,68c0.6,1.5-0.5,3.2-2.2,3.2h-4.6
		C1197,597.2,1196.1,596.6,1195.8,595.7"/>
</g>
</svg>
