<svg id="Layer_1" data-name="Layer 1" xmlns="http://www.w3.org/2000/svg" viewBox="0 0 350 90"><defs><style>.cls-1{fill:#fff;}</style></defs><title>TOP TABLERO GDS 2020_firma</title><path class="cls-1" d="M17.91,11.23H14.36V20.3h-1V11.23H9.84v-.87h8.07Z"/><path class="cls-1" d="M21.49,10.36h.83l4.13,9.94h-1l-1.29-3.11H19.66L18.38,20.3H17.33Zm2.41,6.06-2-4.91-2,4.91Z"/><path class="cls-1" d="M35.35,17.74a2.5,2.5,0,0,1-.22,1,2.68,2.68,0,0,1-1.49,1.34,2.92,2.92,0,0,1-1.08.19H27.87V10.36h4.79a2,2,0,0,1,.94.23,2.24,2.24,0,0,1,.71.58,2.58,2.58,0,0,1,.46.81,2.66,2.66,0,0,1,.16.92,2.59,2.59,0,0,1-.38,1.37,2.34,2.34,0,0,1-1,.94,2.46,2.46,0,0,1,1.35.93A2.67,2.67,0,0,1,35.35,17.74Zm-6.5-6.52v3.66h3.42a1.57,1.57,0,0,0,.68-.15,1.68,1.68,0,0,0,.54-.41,1.87,1.87,0,0,0,.35-.58,2,2,0,0,0,.12-.69,2.08,2.08,0,0,0-.12-.71,1.7,1.7,0,0,0-.33-.59,1.92,1.92,0,0,0-.51-.39,1.41,1.41,0,0,0-.65-.14Zm5.52,6.35a1.94,1.94,0,0,0-.13-.71,2,2,0,0,0-.35-.6,2.06,2.06,0,0,0-.55-.42,1.58,1.58,0,0,0-.68-.16H28.85v3.77h3.71a1.54,1.54,0,0,0,.71-.16,1.81,1.81,0,0,0,.57-.41,1.73,1.73,0,0,0,.39-.6A2,2,0,0,0,34.37,17.57Z"/><path class="cls-1" d="M37.2,20.3V10.36h1v9.07h5.74v.87Z"/><path class="cls-1" d="M52,19.43v.87H45.36V10.36h6.55v.87H46.34v3.58H51.2v.83H46.34v3.79Z"/><path class="cls-1" d="M53.89,20.3V10.36h4.19a2.63,2.63,0,0,1,1.19.27,3.14,3.14,0,0,1,.93.72,3.4,3.4,0,0,1,.61,1A3.2,3.2,0,0,1,61,13.48a3.3,3.3,0,0,1-.17,1,3,3,0,0,1-.44.89,2.78,2.78,0,0,1-.7.67,2.38,2.38,0,0,1-.91.38l2.44,3.83H60.14l-2.33-3.67H54.87V20.3Zm1-4.53h3.24a1.71,1.71,0,0,0,.79-.19,1.89,1.89,0,0,0,.61-.51A2.44,2.44,0,0,0,60,13.48a2.34,2.34,0,0,0-.16-.86,2.38,2.38,0,0,0-.43-.72,2.18,2.18,0,0,0-.64-.49,1.78,1.78,0,0,0-.78-.18H54.87Z"/><path class="cls-1" d="M67,20.37a4.18,4.18,0,0,1-1.9-.43,4.66,4.66,0,0,1-1.47-1.13,5.27,5.27,0,0,1-1-1.62,5.36,5.36,0,0,1-.33-1.86,5.09,5.09,0,0,1,.36-1.9,5,5,0,0,1,1-1.61A4.83,4.83,0,0,1,65.2,10.7,4.24,4.24,0,0,1,67,10.29a4.12,4.12,0,0,1,1.9.44,4.67,4.67,0,0,1,1.47,1.16,5.31,5.31,0,0,1,1,1.61,5.39,5.39,0,0,1,.33,1.85,5.21,5.21,0,0,1-1.33,3.5A4.92,4.92,0,0,1,68.88,20,4.28,4.28,0,0,1,67,20.37Zm-3.68-5a4.82,4.82,0,0,0,.26,1.56,4.16,4.16,0,0,0,.76,1.33,3.72,3.72,0,0,0,1.16.93,3.45,3.45,0,0,0,3,0,3.85,3.85,0,0,0,1.16-1,4.19,4.19,0,0,0,.73-1.33,4.32,4.32,0,0,0,.26-1.51,4.57,4.57,0,0,0-.27-1.56,4.3,4.3,0,0,0-.76-1.32,3.73,3.73,0,0,0-1.17-.92A3.16,3.16,0,0,0,67,11.19a3.38,3.38,0,0,0-1.53.35,3.81,3.81,0,0,0-1.16,1,4.52,4.52,0,0,0-.73,1.33A4.61,4.61,0,0,0,63.35,15.33Z"/><path class="cls-1" d="M76.45,15.26a5.27,5.27,0,0,1,.32-1.78,4.82,4.82,0,0,1,.91-1.59,4.7,4.7,0,0,1,1.49-1.14,4.33,4.33,0,0,1,2-.44,4.17,4.17,0,0,1,2.28.6,3.63,3.63,0,0,1,1.39,1.57l-.77.47a3,3,0,0,0-.58-.82,3.16,3.16,0,0,0-.74-.55,3,3,0,0,0-.81-.3,3.91,3.91,0,0,0-.83-.09,3.38,3.38,0,0,0-1.58.36,3.66,3.66,0,0,0-1.15.95,4.16,4.16,0,0,0-.71,1.33,4.74,4.74,0,0,0-.24,1.49,4.43,4.43,0,0,0,.29,1.58,4.58,4.58,0,0,0,.78,1.34,3.92,3.92,0,0,0,1.18.92,3.19,3.19,0,0,0,1.48.34,3.73,3.73,0,0,0,.86-.1,3.09,3.09,0,0,0,.85-.34,3.22,3.22,0,0,0,.76-.57,3,3,0,0,0,.59-.83l.81.42a2.85,2.85,0,0,1-.67,1,4.16,4.16,0,0,1-1,.72,4.6,4.6,0,0,1-1.13.45,4.84,4.84,0,0,1-1.17.16,4,4,0,0,1-1.88-.45,5.2,5.2,0,0,1-1.47-1.17,5.61,5.61,0,0,1-1.3-3.51Z"/><path class="cls-1" d="M90.62,20.37a4.18,4.18,0,0,1-1.9-.43,4.66,4.66,0,0,1-1.47-1.13,5.27,5.27,0,0,1-1-1.62A5.36,5.36,0,0,1,86,15.33a5.09,5.09,0,0,1,.36-1.9,5,5,0,0,1,1-1.61,4.83,4.83,0,0,1,1.49-1.12,4.24,4.24,0,0,1,1.84-.41,4.12,4.12,0,0,1,1.9.44A4.67,4.67,0,0,1,94,11.89a5.31,5.31,0,0,1,1,1.61,5.39,5.39,0,0,1,.33,1.85A5.21,5.21,0,0,1,94,18.85,4.92,4.92,0,0,1,92.47,20,4.28,4.28,0,0,1,90.62,20.37Zm-3.68-5a4.82,4.82,0,0,0,.26,1.56A4.16,4.16,0,0,0,88,18.22a3.72,3.72,0,0,0,1.16.93,3.45,3.45,0,0,0,3,0,3.85,3.85,0,0,0,1.16-1A4.19,4.19,0,0,0,94,16.84a4.32,4.32,0,0,0,.26-1.51A4.57,4.57,0,0,0,94,13.77a4.3,4.3,0,0,0-.76-1.32,3.73,3.73,0,0,0-1.17-.92,3.16,3.16,0,0,0-1.48-.34,3.38,3.38,0,0,0-1.53.35,3.81,3.81,0,0,0-1.16,1,4.52,4.52,0,0,0-.73,1.33A4.36,4.36,0,0,0,86.94,15.33Z"/><path class="cls-1" d="M98.11,12.18V20.3h-1V10.36h.76l6.58,8.28V10.38h1V20.3h-.86Z"/><path class="cls-1" d="M115,11.23h-3.54V20.3h-1V11.23h-3.54v-.87H115Z"/><path class="cls-1" d="M116.48,20.3V10.36h4.2a2.59,2.59,0,0,1,1.18.27,3.14,3.14,0,0,1,.93.72,3.2,3.2,0,0,1,.61,1,3,3,0,0,1,.22,1.13,3.6,3.6,0,0,1-.16,1,3.24,3.24,0,0,1-.45.89,2.59,2.59,0,0,1-.69.67,2.45,2.45,0,0,1-.91.38l2.43,3.83h-1.1l-2.34-3.67h-2.94V20.3Zm1-4.53h3.25a1.74,1.74,0,0,0,.79-.19,2,2,0,0,0,.61-.51,3,3,0,0,0,.39-.73,2.72,2.72,0,0,0,.14-.86,2.57,2.57,0,0,0-.16-.86,2.4,2.4,0,0,0-.44-.72,2.06,2.06,0,0,0-.64-.49,1.78,1.78,0,0,0-.78-.18h-3.16Z"/><path class="cls-1" d="M129.62,20.37a4.1,4.1,0,0,1-1.89-.43,4.59,4.59,0,0,1-1.48-1.13,5.05,5.05,0,0,1-1-1.62,5.15,5.15,0,0,1-.34-1.86,5.09,5.09,0,0,1,.36-1.9,5.18,5.18,0,0,1,1-1.61,4.79,4.79,0,0,1,1.48-1.12,4.28,4.28,0,0,1,1.85-.41,4.18,4.18,0,0,1,1.9.44A4.74,4.74,0,0,1,133,11.89,5.11,5.11,0,0,1,134,13.5a5.4,5.4,0,0,1,.34,1.85,5.13,5.13,0,0,1-.36,1.9,5.3,5.3,0,0,1-1,1.6A4.92,4.92,0,0,1,131.47,20,4.25,4.25,0,0,1,129.62,20.37Zm-3.68-5a4.57,4.57,0,0,0,.27,1.56,4.33,4.33,0,0,0,.75,1.33,3.76,3.76,0,0,0,1.17.93,3.17,3.17,0,0,0,1.49.34,3.26,3.26,0,0,0,1.53-.36,3.73,3.73,0,0,0,1.16-1,4.42,4.42,0,0,0,.74-1.33,4.5,4.5,0,0,0,0-3.07,4.11,4.11,0,0,0-.76-1.32,3.69,3.69,0,0,0-1.16-.92,3.2,3.2,0,0,0-1.49-.34,3.33,3.33,0,0,0-1.52.35,3.59,3.59,0,0,0-1.16,1,4.33,4.33,0,0,0-.74,1.33A4.61,4.61,0,0,0,125.94,15.33Z"/><path class="cls-1" d="M136.13,20.3V10.36h1v9.07h5.74v.87Z"/><path class="cls-1" d="M147.49,20.3V10.36h3.37a5.11,5.11,0,0,1,2.08.39,4.41,4.41,0,0,1,1.49,1.07,4.58,4.58,0,0,1,.89,1.57,6.45,6.45,0,0,1,0,4,4.7,4.7,0,0,1-1,1.57,4.29,4.29,0,0,1-1.5,1,5.12,5.12,0,0,1-2,.36Zm7.15-5a5.1,5.1,0,0,0-.25-1.65,3.71,3.71,0,0,0-.73-1.29,3.29,3.29,0,0,0-1.19-.85,4,4,0,0,0-1.61-.3h-2.39v8.2h2.39a4,4,0,0,0,1.63-.31,3.37,3.37,0,0,0,1.19-.87,4,4,0,0,0,.72-1.3A5.31,5.31,0,0,0,154.64,15.32Z"/><path class="cls-1" d="M164.18,19.43v.87H157.5V10.36h6.55v.87h-5.57v3.58h4.86v.83h-4.86v3.79Z"/><path class="cls-1" d="M176.27,19.43v.87h-6.68V10.36h6.56v.87h-5.58v3.58h4.86v.83h-4.86v3.79Z"/><path class="cls-1" d="M177.35,19.06a2.91,2.91,0,0,0,.79.36,3.64,3.64,0,0,0,1.09.15,2.38,2.38,0,0,0,1.21-.27,1.75,1.75,0,0,0,.69-.8,4.27,4.27,0,0,0,.31-1.31c0-.52.07-1.11.07-1.77V10.36h1v5.06a18.44,18.44,0,0,1-.11,2.06,4.51,4.51,0,0,1-.44,1.59,2.35,2.35,0,0,1-1,1,3.55,3.55,0,0,1-1.73.37,3.74,3.74,0,0,1-2.16-.62Z"/><path class="cls-1" d="M191.53,19.43v.87h-6.68V10.36h6.56v.87h-5.58v3.58h4.86v.83h-4.86v3.79Z"/><path class="cls-1" d="M192.51,15.26a5.27,5.27,0,0,1,.32-1.78,4.82,4.82,0,0,1,.91-1.59,4.59,4.59,0,0,1,1.49-1.14,4.33,4.33,0,0,1,2-.44,4.13,4.13,0,0,1,2.27.6,3.65,3.65,0,0,1,1.4,1.57l-.77.47a3.06,3.06,0,0,0-1.32-1.37,3,3,0,0,0-.81-.3,4,4,0,0,0-.83-.09,3.38,3.38,0,0,0-1.58.36,3.55,3.55,0,0,0-1.15.95,4.16,4.16,0,0,0-.71,1.33,4.74,4.74,0,0,0-.24,1.49,4.43,4.43,0,0,0,.29,1.58,4.58,4.58,0,0,0,.78,1.34,3.92,3.92,0,0,0,1.18.92,3.19,3.19,0,0,0,1.48.34,3.73,3.73,0,0,0,.86-.1,3.56,3.56,0,0,0,1.61-.91,3,3,0,0,0,.59-.83l.81.42a3,3,0,0,1-.67,1,4.16,4.16,0,0,1-1,.72,4.6,4.6,0,0,1-1.13.45,4.84,4.84,0,0,1-1.17.16,4,4,0,0,1-1.88-.45,4.94,4.94,0,0,1-1.47-1.17,5.46,5.46,0,0,1-1.3-3.51Z"/><path class="cls-1" d="M206.81,19.49a3.1,3.1,0,0,0,1.56-.36,2.88,2.88,0,0,0,1-.94,3.69,3.69,0,0,0,.52-1.32,7.48,7.48,0,0,0,.15-1.5v-5h1v5a7.81,7.81,0,0,1-.23,1.91,4.45,4.45,0,0,1-.72,1.59,3.54,3.54,0,0,1-1.29,1.1,4.32,4.32,0,0,1-2,.4,4.14,4.14,0,0,1-2-.43,3.64,3.64,0,0,1-1.3-1.12,4.72,4.72,0,0,1-.7-1.6,8.07,8.07,0,0,1-.21-1.85v-5h1v5a7.63,7.63,0,0,0,.15,1.53,4.06,4.06,0,0,0,.53,1.32,2.74,2.74,0,0,0,1,.92A3.1,3.1,0,0,0,206.81,19.49Z"/><path class="cls-1" d="M212.69,15.26a5.25,5.25,0,0,1,.31-1.78,4.84,4.84,0,0,1,.92-1.59,4.55,4.55,0,0,1,1.48-1.14,4.36,4.36,0,0,1,2-.44,4.17,4.17,0,0,1,2.28.6,3.63,3.63,0,0,1,1.39,1.57l-.77.47a3,3,0,0,0-.58-.82,3.11,3.11,0,0,0-.73-.55,3.25,3.25,0,0,0-.82-.3,3.88,3.88,0,0,0-.82-.09,3.32,3.32,0,0,0-1.58.36,3.59,3.59,0,0,0-1.16.95,4.37,4.37,0,0,0-.71,1.33,4.73,4.73,0,0,0-.23,1.49,4.45,4.45,0,0,0,1.07,2.92,3.88,3.88,0,0,0,1.17.92,3.22,3.22,0,0,0,1.48.34,3.67,3.67,0,0,0,.86-.1,3.09,3.09,0,0,0,.85-.34,3.49,3.49,0,0,0,.77-.57,3.18,3.18,0,0,0,.59-.83l.81.42a3.16,3.16,0,0,1-.67,1,4.21,4.21,0,0,1-1,.72,4.6,4.6,0,0,1-1.13.45,4.71,4.71,0,0,1-1.17.16,3.94,3.94,0,0,1-1.87-.45A4.94,4.94,0,0,1,214,18.77a5.49,5.49,0,0,1-1-1.64A5.24,5.24,0,0,1,212.69,15.26Z"/><path class="cls-1" d="M223,20.3V10.36h1V20.3Z"/><path class="cls-1" d="M230.42,20.37a4.1,4.1,0,0,1-1.89-.43,4.59,4.59,0,0,1-1.48-1.13,5.05,5.05,0,0,1-1-1.62,5.15,5.15,0,0,1-.34-1.86,5.09,5.09,0,0,1,.36-1.9,5.35,5.35,0,0,1,1-1.61,4.83,4.83,0,0,1,1.49-1.12,4.25,4.25,0,0,1,1.85-.41,4.11,4.11,0,0,1,1.89.44,4.67,4.67,0,0,1,1.47,1.16,5.31,5.31,0,0,1,.95,1.61,5.39,5.39,0,0,1,.33,1.85,5.12,5.12,0,0,1-.35,1.9,5.3,5.3,0,0,1-1,1.6A4.92,4.92,0,0,1,232.27,20,4.25,4.25,0,0,1,230.42,20.37Zm-3.68-5a4.57,4.57,0,0,0,.27,1.56,4.13,4.13,0,0,0,.75,1.33,3.84,3.84,0,0,0,1.16.93,3.45,3.45,0,0,0,3,0,3.73,3.73,0,0,0,1.16-1,4.42,4.42,0,0,0,.74-1.33,4.66,4.66,0,0,0,0-3.07,4.11,4.11,0,0,0-.76-1.32,3.81,3.81,0,0,0-1.16-.92,3.23,3.23,0,0,0-1.49-.34,3.3,3.3,0,0,0-1.52.35,3.74,3.74,0,0,0-1.17,1,4.52,4.52,0,0,0-.73,1.33A4.61,4.61,0,0,0,226.74,15.33ZM230.52,9l-.63-.23.83-1.31h1Z"/><path class="cls-1" d="M237.91,12.18V20.3h-1V10.36h.76l6.58,8.28V10.38h1V20.3h-.86Z"/><path class="cls-1" d="M250.65,15.26a5.27,5.27,0,0,1,.32-1.78,4.82,4.82,0,0,1,.91-1.59,4.7,4.7,0,0,1,1.49-1.14,4.33,4.33,0,0,1,2-.44,4.17,4.17,0,0,1,2.28.6A3.63,3.63,0,0,1,259,12.48l-.77.47a3,3,0,0,0-.58-.82,3.16,3.16,0,0,0-.74-.55,3,3,0,0,0-.81-.3,4,4,0,0,0-.83-.09,3.38,3.38,0,0,0-1.58.36,3.55,3.55,0,0,0-1.15.95,4.16,4.16,0,0,0-.71,1.33,4.74,4.74,0,0,0-.24,1.49,4.43,4.43,0,0,0,.29,1.58,4.58,4.58,0,0,0,.78,1.34,3.92,3.92,0,0,0,1.18.92,3.19,3.19,0,0,0,1.48.34,3.73,3.73,0,0,0,.86-.1,3.09,3.09,0,0,0,.85-.34,3.22,3.22,0,0,0,.76-.57,3,3,0,0,0,.59-.83l.81.42a2.85,2.85,0,0,1-.67,1,4.16,4.16,0,0,1-1,.72,4.6,4.6,0,0,1-1.13.45,4.84,4.84,0,0,1-1.17.16,4,4,0,0,1-1.88-.45A5.07,5.07,0,0,1,252,18.77a5.61,5.61,0,0,1-1.3-3.51Z"/><path class="cls-1" d="M264.82,20.37a4.18,4.18,0,0,1-1.9-.43,4.66,4.66,0,0,1-1.47-1.13,5.27,5.27,0,0,1-1-1.62,5.36,5.36,0,0,1-.33-1.86,5.09,5.09,0,0,1,.36-1.9,5,5,0,0,1,1-1.61A4.83,4.83,0,0,1,263,10.7a4.24,4.24,0,0,1,1.84-.41,4.15,4.15,0,0,1,1.9.44,4.67,4.67,0,0,1,1.47,1.16,5.31,5.31,0,0,1,.95,1.61,5.39,5.39,0,0,1,.33,1.85,5.21,5.21,0,0,1-1.33,3.5A4.92,4.92,0,0,1,266.67,20,4.28,4.28,0,0,1,264.82,20.37Zm-3.68-5a4.82,4.82,0,0,0,.26,1.56,4.16,4.16,0,0,0,.76,1.33,3.72,3.72,0,0,0,1.16.93,3.45,3.45,0,0,0,3,0,3.85,3.85,0,0,0,1.16-1,4.19,4.19,0,0,0,.73-1.33,4.32,4.32,0,0,0,.26-1.51,4.57,4.57,0,0,0-.27-1.56,4.3,4.3,0,0,0-.76-1.32,3.73,3.73,0,0,0-1.17-.92,3.16,3.16,0,0,0-1.48-.34,3.38,3.38,0,0,0-1.53.35,3.81,3.81,0,0,0-1.16,1,4.31,4.31,0,0,0-.73,1.33A4.36,4.36,0,0,0,261.14,15.33Z"/><path class="cls-1" d="M280.14,20.3V12.14l-3.63,6.31h-.57l-3.63-6.31V20.3h-1V10.36h1l3.88,6.81,3.9-6.81h1V20.3Z"/><path class="cls-1" d="M290.29,19.43v.87h-6.68V10.36h6.55v.87h-5.57v3.58h4.86v.83h-4.86v3.79Z"/><path class="cls-1" d="M292.13,20.3V10.36h4.2a2.63,2.63,0,0,1,1.19.27,3.14,3.14,0,0,1,.93.72,3.4,3.4,0,0,1,.61,1,3.18,3.18,0,0,1,.21,1.13,3.3,3.3,0,0,1-.16,1,3.22,3.22,0,0,1-.44.89,2.78,2.78,0,0,1-.7.67,2.38,2.38,0,0,1-.91.38l2.44,3.83h-1.11l-2.34-3.67h-2.94V20.3Zm1-4.53h3.25a1.71,1.71,0,0,0,.79-.19,2,2,0,0,0,.61-.51,2.59,2.59,0,0,0,.53-1.59,2.34,2.34,0,0,0-.16-.86,2.38,2.38,0,0,0-.43-.72,2.1,2.1,0,0,0-.65-.49,1.71,1.71,0,0,0-.77-.18h-3.17Z"/><path class="cls-1" d="M300.62,15.26a5.25,5.25,0,0,1,.31-1.78,4.84,4.84,0,0,1,.92-1.59,4.65,4.65,0,0,1,1.48-1.14,4.37,4.37,0,0,1,2-.44,4.15,4.15,0,0,1,2.27.6A3.57,3.57,0,0,1,309,12.48l-.77.47a2.75,2.75,0,0,0-.58-.82,3.11,3.11,0,0,0-.73-.55,3,3,0,0,0-.81-.3,4,4,0,0,0-.83-.09,3.35,3.35,0,0,0-1.58.36,3.7,3.7,0,0,0-1.16.95,4.34,4.34,0,0,0-.7,1.33,4.74,4.74,0,0,0-.24,1.49,4.22,4.22,0,0,0,.29,1.58,4.58,4.58,0,0,0,.78,1.34,3.8,3.8,0,0,0,1.18.92,3.18,3.18,0,0,0,1.47.34,3.67,3.67,0,0,0,.86-.1,3.15,3.15,0,0,0,.86-.34,3.43,3.43,0,0,0,.76-.57,3.18,3.18,0,0,0,.59-.83l.81.42a3,3,0,0,1-.67,1,4,4,0,0,1-1,.72,4.53,4.53,0,0,1-1.12.45,4.84,4.84,0,0,1-1.17.16,4,4,0,0,1-1.88-.45,4.94,4.94,0,0,1-1.47-1.17,5.49,5.49,0,0,1-1-1.64A5.24,5.24,0,0,1,300.62,15.26Z"/><path class="cls-1" d="M310.88,20.3V10.36h1V20.3Z"/><path class="cls-1" d="M317.43,10.36h.83l4.13,9.94h-1l-1.29-3.11H315.6l-1.28,3.11h-1.05Zm2.41,6.06-2-4.91-2,4.91Z"/><path class="cls-1" d="M323.82,20.3V10.36h1v9.07h5.75v.87Z"/><path class="cls-1" d="M14.37,51.42a2.35,2.35,0,0,0,1.12-.25,2.08,2.08,0,0,0,.71-.67,2.73,2.73,0,0,0,.37-1,5.46,5.46,0,0,0,.1-1.07V44.9h.7v3.58a5.53,5.53,0,0,1-.16,1.37A3.14,3.14,0,0,1,16.7,51a2.53,2.53,0,0,1-.93.78,3.07,3.07,0,0,1-1.39.29,3,3,0,0,1-1.41-.3,2.81,2.81,0,0,1-.93-.81,3.27,3.27,0,0,1-.5-1.14,5.81,5.81,0,0,1-.15-1.32V44.9h.69v3.58a5.6,5.6,0,0,0,.11,1.09,2.81,2.81,0,0,0,.38.94,2.11,2.11,0,0,0,.7.66A2.18,2.18,0,0,0,14.37,51.42Z"/><path class="cls-1" d="M23.19,46.23a2.07,2.07,0,0,0-.8-.55,2.9,2.9,0,0,0-1.14-.21,2.14,2.14,0,0,0-1.37.36,1.18,1.18,0,0,0-.43,1,1,1,0,0,0,.47.88,2.41,2.41,0,0,0,.62.26c.25.07.54.15.88.22a9.52,9.52,0,0,1,1,.27,3.25,3.25,0,0,1,.77.37,1.5,1.5,0,0,1,.49.55,1.61,1.61,0,0,1,.17.8,1.75,1.75,0,0,1-.19.85,1.6,1.6,0,0,1-.53.6,2.32,2.32,0,0,1-.81.36,4.65,4.65,0,0,1-1,.11,4.22,4.22,0,0,1-2.85-1l.35-.57a3,3,0,0,0,.46.38,3.31,3.31,0,0,0,.59.32,3.66,3.66,0,0,0,1.47.28,2.4,2.4,0,0,0,1.33-.31,1,1,0,0,0,.47-.92,1.1,1.1,0,0,0-.13-.56,1.16,1.16,0,0,0-.41-.38,2.45,2.45,0,0,0-.67-.29q-.39-.12-.93-.24c-.37-.09-.7-.18-1-.27a2.61,2.61,0,0,1-.71-.35,1.46,1.46,0,0,1-.43-.5,1.61,1.61,0,0,1-.15-.73,2,2,0,0,1,.19-.87,1.64,1.64,0,0,1,.52-.64,2.86,2.86,0,0,1,.8-.4,4.06,4.06,0,0,1,1-.13,3.22,3.22,0,0,1,2.27.82Z"/><path class="cls-1" d="M28,51.42a2.35,2.35,0,0,0,1.12-.25,2.08,2.08,0,0,0,.71-.67,2.73,2.73,0,0,0,.37-1,5.46,5.46,0,0,0,.1-1.07V44.9H31v3.58a5.53,5.53,0,0,1-.16,1.37A3.14,3.14,0,0,1,30.32,51a2.53,2.53,0,0,1-.93.78,3.07,3.07,0,0,1-1.39.29,3,3,0,0,1-1.41-.3,2.81,2.81,0,0,1-.93-.81,3.27,3.27,0,0,1-.5-1.14A5.81,5.81,0,0,1,25,48.48V44.9h.69v3.58a5.6,5.6,0,0,0,.11,1.09,2.81,2.81,0,0,0,.38.94,2.11,2.11,0,0,0,.7.66A2.18,2.18,0,0,0,28,51.42Z"/><path class="cls-1" d="M34.56,44.9h.59l3,7.1h-.74l-.92-2.22H33.25L32.34,52h-.75Zm1.72,4.33-1.43-3.51L33.4,49.23Z"/><path class="cls-1" d="M39.12,52V44.9h3a1.75,1.75,0,0,1,.85.2,2.25,2.25,0,0,1,1.1,1.22,2.32,2.32,0,0,1,.15.81,2.35,2.35,0,0,1-.11.75,2.4,2.4,0,0,1-.32.64,1.9,1.9,0,0,1-.5.48,1.78,1.78,0,0,1-.65.26L44.38,52h-.79l-1.67-2.62h-2.1V52Zm.7-3.24h2.32a1.33,1.33,0,0,0,.57-.13,1.39,1.39,0,0,0,.43-.37,1.63,1.63,0,0,0,.28-.52,1.77,1.77,0,0,0,.1-.61,1.57,1.57,0,0,0-.11-.61A1.79,1.79,0,0,0,43.1,46a1.44,1.44,0,0,0-.46-.35,1.21,1.21,0,0,0-.56-.13H39.82Z"/><path class="cls-1" d="M45.65,52V44.9h.7V52Z"/><path class="cls-1" d="M51,52.05a3,3,0,0,1-1.35-.3,3.69,3.69,0,0,1-1.06-.81,3.85,3.85,0,0,1-.68-1.16,3.81,3.81,0,0,1-.24-1.33,3.7,3.7,0,0,1,.26-1.36,3.74,3.74,0,0,1,.7-1.15,3.42,3.42,0,0,1,1.06-.79,3,3,0,0,1,1.32-.3,2.93,2.93,0,0,1,1.36.32,3.39,3.39,0,0,1,1,.82,3.76,3.76,0,0,1,0,5,3.31,3.31,0,0,1-1.06.79A2.91,2.91,0,0,1,51,52.05Zm-2.63-3.6a3.4,3.4,0,0,0,.19,1.11,3.22,3.22,0,0,0,.54,1,2.75,2.75,0,0,0,.83.65,2.25,2.25,0,0,0,1.07.25,2.31,2.31,0,0,0,1.09-.26,2.51,2.51,0,0,0,.83-.68,3.05,3.05,0,0,0,.53-.95,3.31,3.31,0,0,0,.18-1.08,3.25,3.25,0,0,0-.19-1.12,3,3,0,0,0-.55-.94,2.82,2.82,0,0,0-.83-.66,2.44,2.44,0,0,0-2.15,0,2.7,2.7,0,0,0-.83.67,3.24,3.24,0,0,0-.52.95A3.32,3.32,0,0,0,48.36,48.45Z"/><path class="cls-1" d="M55.4,47.8v-1H56v1Zm0,4.2V51H56v1Z"/><path class="cls-1" d="M65.2,51a3,3,0,0,1-2.28,1.09,2.79,2.79,0,0,1-1.32-.31,3.39,3.39,0,0,1-1.05-.82,4,4,0,0,1-.7-1.15,3.87,3.87,0,0,1-.25-1.33,3.69,3.69,0,0,1,.25-1.36,3.64,3.64,0,0,1,.68-1.14,3.19,3.19,0,0,1,1-.79,2.9,2.9,0,0,1,1.31-.3,3.93,3.93,0,0,1,.95.11,3,3,0,0,1,.77.33,2.43,2.43,0,0,1,.58.48,3,3,0,0,1,.41.63l-.54.36a2.26,2.26,0,0,0-.91-1,2.52,2.52,0,0,0-1.27-.31,2.18,2.18,0,0,0-1.06.25,2.51,2.51,0,0,0-.81.67,2.82,2.82,0,0,0-.52,1,3.38,3.38,0,0,0-.18,1.1,3.12,3.12,0,0,0,.21,1.14,2.91,2.91,0,0,0,.56.95,2.68,2.68,0,0,0,.85.64,2.31,2.31,0,0,0,1,.24,2.42,2.42,0,0,0,1.17-.29,3.47,3.47,0,0,0,1.06-.9V49.05H63.62v-.54h2.17V52H65.2Z"/><path class="cls-1" d="M72,51.38V52H67.23V44.9h4.68v.62h-4v2.56H71.4v.59H67.93v2.71Z"/><path class="cls-1" d="M73.32,52V44.9h3a1.75,1.75,0,0,1,.85.2,2.35,2.35,0,0,1,.66.5,2.4,2.4,0,0,1,.44.72,2.32,2.32,0,0,1,.15.81,2.67,2.67,0,0,1-.11.75,2.74,2.74,0,0,1-.32.64,1.9,1.9,0,0,1-.5.48,1.78,1.78,0,0,1-.65.26L78.58,52h-.79l-1.67-2.62H74V52Zm.7-3.24h2.32a1.33,1.33,0,0,0,.57-.13,1.39,1.39,0,0,0,.43-.37,1.63,1.63,0,0,0,.28-.52,1.82,1.82,0,0,0,0-1.22A1.79,1.79,0,0,0,77.3,46a1.56,1.56,0,0,0-.46-.35,1.21,1.21,0,0,0-.56-.13H74Z"/><path class="cls-1" d="M84.62,51.38V52H79.85V44.9h4.68v.62h-4v2.56H84v.59H80.55v2.71Z"/><path class="cls-1" d="M86.64,46.2V52h-.7V44.9h.54l4.7,5.91v-5.9h.7V52h-.61Z"/><path class="cls-1" d="M98.7,45.52H96.17V52h-.7V45.52H92.94V44.9H98.7Z"/><path class="cls-1" d="M104.53,51.38V52H99.76V44.9h4.68v.62h-4v2.56h3.47v.59h-3.47v2.71Z"/><path class="cls-1" d="M108.4,52V44.9h2.41a3.63,3.63,0,0,1,1.49.28,3.16,3.16,0,0,1,1.06.76,3.34,3.34,0,0,1,.64,1.12,4.48,4.48,0,0,1,.21,1.38A4.18,4.18,0,0,1,114,49.9a3.38,3.38,0,0,1-.68,1.13,3.31,3.31,0,0,1-1.07.72,3.73,3.73,0,0,1-1.41.25Zm5.11-3.56a3.59,3.59,0,0,0-.18-1.17,2.64,2.64,0,0,0-.52-.93,2.4,2.4,0,0,0-.85-.61,2.91,2.91,0,0,0-1.15-.21H109.1v5.86h1.71a2.87,2.87,0,0,0,1.17-.22,2.52,2.52,0,0,0,.84-.62,2.78,2.78,0,0,0,.52-.94A3.87,3.87,0,0,0,113.51,48.44Z"/><path class="cls-1" d="M120.32,51.38V52h-4.77V44.9h4.68v.62h-4v2.56h3.47v.59h-3.47v2.71Z"/><path class="cls-1" d="M123.82,44.9l2.54,6.23,2.53-6.23h.73l-3,7.1h-.61l-3-7.1Z"/><path class="cls-1" d="M135.41,51.38V52h-4.77V44.9h4.68v.62h-4v2.56h3.47v.59h-3.47v2.71Z"/><path class="cls-1" d="M137.43,46.2V52h-.7V44.9h.54l4.7,5.91v-5.9h.7V52h-.61Z"/><path class="cls-1" d="M149.49,45.52H147V52h-.7V45.52h-2.53V44.9h5.76Z"/><path class="cls-1" d="M152.05,44.9h.59l3,7.1h-.74l-.92-2.22h-3.19L149.83,52h-.75Zm1.72,4.33-1.43-3.51-1.45,3.51Z"/><path class="cls-1" d="M160.65,46.23a2.07,2.07,0,0,0-.8-.55,2.9,2.9,0,0,0-1.14-.21,2.14,2.14,0,0,0-1.37.36,1.18,1.18,0,0,0-.43,1,1,1,0,0,0,.12.52.92.92,0,0,0,.35.36,2.41,2.41,0,0,0,.62.26c.25.07.54.15.88.22a10.18,10.18,0,0,1,1,.27,3.25,3.25,0,0,1,.77.37,1.5,1.5,0,0,1,.49.55,1.61,1.61,0,0,1,.17.8,1.75,1.75,0,0,1-.19.85,1.6,1.6,0,0,1-.53.6,2.32,2.32,0,0,1-.81.36,4.65,4.65,0,0,1-1,.11,4.22,4.22,0,0,1-2.85-1l.35-.57a3.28,3.28,0,0,0,1.05.7,3.7,3.7,0,0,0,.69.21,4,4,0,0,0,.78.07,2.4,2.4,0,0,0,1.33-.31,1,1,0,0,0,.47-.92,1.1,1.1,0,0,0-.13-.56,1.16,1.16,0,0,0-.41-.38,2.45,2.45,0,0,0-.67-.29q-.39-.12-.93-.24c-.37-.09-.7-.18-1-.27a2.61,2.61,0,0,1-.71-.35,1.36,1.36,0,0,1-.43-.5,1.61,1.61,0,0,1-.15-.73,1.86,1.86,0,0,1,.19-.87,1.64,1.64,0,0,1,.52-.64,2.86,2.86,0,0,1,.8-.4,4.06,4.06,0,0,1,1-.13,3.22,3.22,0,0,1,2.27.82Z"/><path class="cls-1" d="M11.49,64V56.9h4.66v.62h-4v2.61h3.34v.58H12.19V64Z"/><path class="cls-1" d="M17.38,64V56.9h3a1.75,1.75,0,0,1,.85.2,2.09,2.09,0,0,1,.66.51,2.17,2.17,0,0,1,.44.71,2.32,2.32,0,0,1,.15.81,2.35,2.35,0,0,1-.11.75,2.4,2.4,0,0,1-.32.64,1.9,1.9,0,0,1-.5.48,1.78,1.78,0,0,1-.65.26L22.64,64h-.79l-1.67-2.62h-2.1V64Zm.7-3.24H20.4a1.33,1.33,0,0,0,.57-.13,1.39,1.39,0,0,0,.43-.37,1.63,1.63,0,0,0,.28-.52,1.77,1.77,0,0,0,.1-.61,1.57,1.57,0,0,0-.11-.61,1.79,1.79,0,0,0-.31-.52,1.44,1.44,0,0,0-.46-.35,1.21,1.21,0,0,0-.56-.13H18.08Z"/><path class="cls-1" d="M28.68,63.38V64H23.91V56.9h4.68v.62h-4v2.56h3.47v.59H24.61v2.71Z"/><path class="cls-1" d="M29.38,60.4a3.74,3.74,0,0,1,.23-1.27A3.56,3.56,0,0,1,30.26,58a3.46,3.46,0,0,1,1.06-.82,3.16,3.16,0,0,1,1.43-.31,2.94,2.94,0,0,1,1.63.43,2.6,2.6,0,0,1,1,1.12l-.55.34a2.14,2.14,0,0,0-.41-.59,2.2,2.2,0,0,0-.53-.39,2,2,0,0,0-.58-.21,2.38,2.38,0,0,0-.59-.07,2.44,2.44,0,0,0-1.13.26,2.57,2.57,0,0,0-.82.68,3.22,3.22,0,0,0-.51,1,3.51,3.51,0,0,0-.17,1.06,3.1,3.1,0,0,0,.21,1.13,3.27,3.27,0,0,0,.56,1,3,3,0,0,0,.84.66,2.31,2.31,0,0,0,1.05.24,2.68,2.68,0,0,0,.62-.07,2.42,2.42,0,0,0,.61-.24,2.74,2.74,0,0,0,.54-.41,2.15,2.15,0,0,0,.42-.6l.58.3a2.12,2.12,0,0,1-.48.71,2.94,2.94,0,0,1-.69.51,3.26,3.26,0,0,1-.8.32,3.46,3.46,0,0,1-.84.11,2.91,2.91,0,0,1-1.34-.32,3.67,3.67,0,0,1-1.05-.83,4,4,0,0,1-.68-1.17A3.92,3.92,0,0,1,29.38,60.4Z"/><path class="cls-1" d="M39.59,63.42a2.35,2.35,0,0,0,1.12-.25,2.08,2.08,0,0,0,.71-.67,2.73,2.73,0,0,0,.37-1,5.46,5.46,0,0,0,.1-1.07V56.9h.7v3.58a5.53,5.53,0,0,1-.16,1.37A3.07,3.07,0,0,1,41.92,63a2.53,2.53,0,0,1-.93.78,3.07,3.07,0,0,1-1.39.29,3,3,0,0,1-1.41-.3,2.81,2.81,0,0,1-.93-.81,3.27,3.27,0,0,1-.5-1.14,5.81,5.81,0,0,1-.15-1.32V56.9h.69v3.58a5.6,5.6,0,0,0,.11,1.09,2.81,2.81,0,0,0,.38.94,2.11,2.11,0,0,0,.7.66A2.18,2.18,0,0,0,39.59,63.42Z"/><path class="cls-1" d="M49,63.38V64H44.26V56.9h4.68v.62H45v2.56h3.47v.59H45v2.71Z"/><path class="cls-1" d="M51.05,58.2V64h-.7V56.9h.54l4.7,5.91v-5.9h.7V64h-.61Z"/><path class="cls-1" d="M57.6,60.4a3.74,3.74,0,0,1,.23-1.27A3.56,3.56,0,0,1,58.48,58a3.46,3.46,0,0,1,1.06-.82A3.16,3.16,0,0,1,61,56.86a2.94,2.94,0,0,1,1.63.43,2.6,2.6,0,0,1,1,1.12l-.55.34a2.14,2.14,0,0,0-.41-.59,2.2,2.2,0,0,0-.53-.39,2,2,0,0,0-.58-.21,2.38,2.38,0,0,0-.59-.07,2.44,2.44,0,0,0-1.13.26,2.57,2.57,0,0,0-.82.68,3.22,3.22,0,0,0-.51,1,3.51,3.51,0,0,0-.17,1.06,3.1,3.1,0,0,0,.21,1.13,3.27,3.27,0,0,0,.56,1,2.86,2.86,0,0,0,.84.66,2.31,2.31,0,0,0,1.05.24,2.68,2.68,0,0,0,.62-.07,2.42,2.42,0,0,0,.61-.24,2.74,2.74,0,0,0,.54-.41,2.15,2.15,0,0,0,.42-.6l.58.3a2.12,2.12,0,0,1-.48.71,2.94,2.94,0,0,1-.69.51,3.26,3.26,0,0,1-.8.32,3.46,3.46,0,0,1-.84.11,2.91,2.91,0,0,1-1.34-.32,3.67,3.67,0,0,1-1-.83,4,4,0,0,1-.68-1.17A3.92,3.92,0,0,1,57.6,60.4Z"/><path class="cls-1" d="M64.93,64V56.9h.7V64Z"/><path class="cls-1" d="M69.61,56.9h.59l3,7.1h-.74l-.92-2.22H68.3L67.39,64h-.75Zm1.72,4.33L69.9,57.72l-1.45,3.51Z"/><path class="cls-1" d="M73.93,59.8v-1h.58v1Zm0,4.2V63h.58v1Z"/><path class="cls-1" d="M82.75,58.23a2.07,2.07,0,0,0-.8-.55,2.9,2.9,0,0,0-1.14-.21,2.14,2.14,0,0,0-1.37.36,1.18,1.18,0,0,0-.43,1,1.07,1.07,0,0,0,.12.53,1,1,0,0,0,.35.35,2.41,2.41,0,0,0,.62.26c.25.07.54.15.88.22a10.18,10.18,0,0,1,1,.27,3.25,3.25,0,0,1,.77.37,1.59,1.59,0,0,1,.49.55,1.61,1.61,0,0,1,.17.8,1.75,1.75,0,0,1-.19.85,1.6,1.6,0,0,1-.53.6,2.32,2.32,0,0,1-.81.36,4.65,4.65,0,0,1-1,.11A4.22,4.22,0,0,1,78,63l.35-.57a3.28,3.28,0,0,0,1.05.7,3.7,3.7,0,0,0,.69.21,4,4,0,0,0,.78.07,2.4,2.4,0,0,0,1.33-.31,1,1,0,0,0,.47-.92,1,1,0,0,0-.13-.55,1.1,1.1,0,0,0-.41-.39,2.8,2.8,0,0,0-.67-.29q-.39-.12-.93-.24c-.37-.09-.7-.18-1-.27a2.61,2.61,0,0,1-.71-.35,1.36,1.36,0,0,1-.43-.5,1.61,1.61,0,0,1-.15-.73,1.86,1.86,0,0,1,.19-.87,1.64,1.64,0,0,1,.52-.64,2.59,2.59,0,0,1,.8-.39,3.64,3.64,0,0,1,1-.14,3.35,3.35,0,0,1,1.27.22,3.29,3.29,0,0,1,1,.6Z"/><path class="cls-1" d="M89.44,63.38V64H84.67V56.9h4.68v.62h-4v2.56h3.47v.59H85.37v2.71Z"/><path class="cls-1" d="M97.05,64V58.17l-2.59,4.51h-.41l-2.59-4.51V64h-.7V56.9h.72l2.77,4.86L97,56.9h.71V64Z"/><path class="cls-1" d="M101.73,56.9h.59l3,7.1h-.74l-.92-2.22h-3.19L99.51,64h-.75Zm1.72,4.33L102,57.72l-1.45,3.51Z"/><path class="cls-1" d="M107,58.2V64h-.7V56.9h.54l4.7,5.91v-5.9h.7V64h-.61Z"/><path class="cls-1" d="M116.21,56.9h.59l3,7.1H119l-.92-2.22H114.9L114,64h-.75Zm1.72,4.33-1.43-3.51-1.45,3.51Z"/><path class="cls-1" d="M120.77,64V56.9h.7v6.48h4.1V64Z"/><path class="cls-1" d="M11.49,76V68.9h2.94a1.75,1.75,0,0,1,.85.2,2.09,2.09,0,0,1,.66.51,2.17,2.17,0,0,1,.44.71,2.13,2.13,0,0,1,.16.81,2.45,2.45,0,0,1-.15.85,2.3,2.3,0,0,1-.42.71,2.09,2.09,0,0,1-.64.5,1.79,1.79,0,0,1-.84.19h-2.3V76Zm.7-3.24h2.27a1.33,1.33,0,0,0,.57-.13,1.36,1.36,0,0,0,.43-.36,1.63,1.63,0,0,0,.28-.52,1.87,1.87,0,0,0,.1-.62,1.67,1.67,0,0,0-.11-.63,1.88,1.88,0,0,0-.31-.51,1.28,1.28,0,0,0-.46-.34,1.21,1.21,0,0,0-.56-.13H12.19Z"/><path class="cls-1" d="M22.48,75.38V76H17.71V68.9h4.68v.62h-4v2.56h3.47v.59H18.41v2.71Z"/><path class="cls-1" d="M23.8,76V68.9h3a1.75,1.75,0,0,1,.85.2,2.09,2.09,0,0,1,.66.51,2.17,2.17,0,0,1,.44.71,2.32,2.32,0,0,1,.15.81,2.35,2.35,0,0,1-.11.75,2.4,2.4,0,0,1-.32.64A1.9,1.9,0,0,1,28,73a1.78,1.78,0,0,1-.65.26L29.06,76h-.79L26.6,73.38H24.5V76Zm.7-3.24h2.32a1.33,1.33,0,0,0,.57-.13,1.39,1.39,0,0,0,.43-.37,1.63,1.63,0,0,0,.28-.52,1.77,1.77,0,0,0,.1-.61,1.57,1.57,0,0,0-.11-.61,1.79,1.79,0,0,0-.31-.52,1.44,1.44,0,0,0-.46-.35,1.21,1.21,0,0,0-.56-.13H24.5Z"/><path class="cls-1" d="M30.33,76V68.9H31V76Z"/><path class="cls-1" d="M35.67,76.05a3,3,0,0,1-1.35-.3,3.69,3.69,0,0,1-1.06-.81,3.85,3.85,0,0,1-.68-1.16,3.81,3.81,0,0,1-.24-1.33,3.7,3.7,0,0,1,.26-1.36,3.74,3.74,0,0,1,.7-1.15,3.42,3.42,0,0,1,1.06-.79,3,3,0,0,1,1.32-.3,2.93,2.93,0,0,1,1.36.32,3.39,3.39,0,0,1,1.05.82,3.76,3.76,0,0,1,0,5,3.31,3.31,0,0,1-1.06.79A2.91,2.91,0,0,1,35.67,76.05ZM33,72.45a3.51,3.51,0,0,0,.19,1.12,3.3,3.3,0,0,0,.54,1,2.75,2.75,0,0,0,.83.65,2.25,2.25,0,0,0,1.07.25,2.31,2.31,0,0,0,1.09-.26,2.51,2.51,0,0,0,.83-.68,3.05,3.05,0,0,0,.53-1,3.31,3.31,0,0,0,.18-1.08,3.25,3.25,0,0,0-.19-1.12,3,3,0,0,0-.55-.94,2.63,2.63,0,0,0-.83-.65,2.21,2.21,0,0,0-1.06-.25,2.34,2.34,0,0,0-1.09.26,2.7,2.7,0,0,0-.83.67,3.24,3.24,0,0,0-.52,1A3.32,3.32,0,0,0,33,72.45Z"/><path class="cls-1" d="M40.32,76V68.9h2.41a3.63,3.63,0,0,1,1.49.28,3.06,3.06,0,0,1,1.06.76,3.14,3.14,0,0,1,.64,1.13,4.37,4.37,0,0,1,.21,1.37,4.28,4.28,0,0,1-.24,1.47A3.27,3.27,0,0,1,45.21,75a3.2,3.2,0,0,1-1.07.72,3.73,3.73,0,0,1-1.41.25Zm5.11-3.56a3.59,3.59,0,0,0-.18-1.17,2.64,2.64,0,0,0-.52-.93,2.26,2.26,0,0,0-.85-.6,2.74,2.74,0,0,0-1.15-.22H41v5.86h1.71a2.87,2.87,0,0,0,1.17-.22,2.42,2.42,0,0,0,.84-.62,2.83,2.83,0,0,0,.52-.93A3.68,3.68,0,0,0,45.43,72.44Z"/><path class="cls-1" d="M50.33,76.05a3,3,0,0,1-1.35-.3,3.69,3.69,0,0,1-1.06-.81,3.85,3.85,0,0,1-.68-1.16A3.81,3.81,0,0,1,47,72.45a3.7,3.7,0,0,1,.26-1.36,3.74,3.74,0,0,1,.7-1.15A3.42,3.42,0,0,1,49,69.15a3,3,0,0,1,1.32-.3,2.93,2.93,0,0,1,1.36.32,3.39,3.39,0,0,1,1,.82,3.81,3.81,0,0,1,.66,3.83,3.89,3.89,0,0,1-.7,1.14,3.31,3.31,0,0,1-1.06.79A2.91,2.91,0,0,1,50.33,76.05Zm-2.63-3.6a3.51,3.51,0,0,0,.19,1.12,3.3,3.3,0,0,0,.54,1,2.75,2.75,0,0,0,.83.65,2.25,2.25,0,0,0,1.07.25,2.31,2.31,0,0,0,1.09-.26,2.51,2.51,0,0,0,.83-.68,3.05,3.05,0,0,0,.53-1A3.31,3.31,0,0,0,53,72.45a3.25,3.25,0,0,0-.19-1.12,3,3,0,0,0-.55-.94,2.63,2.63,0,0,0-.83-.65,2.21,2.21,0,0,0-1.06-.25,2.34,2.34,0,0,0-1.09.26,2.7,2.7,0,0,0-.83.67,3.24,3.24,0,0,0-.52,1A3.32,3.32,0,0,0,47.7,72.45Z"/><path class="cls-1" d="M54.74,71.8v-1h.58v1Zm0,4.2V75h.58v1Z"/><path class="cls-1" d="M59.41,76V68.9h.7v6.48h4.1V76Z"/><path class="cls-1" d="M67.68,75.42a2.35,2.35,0,0,0,1.12-.25,2.08,2.08,0,0,0,.71-.67,2.73,2.73,0,0,0,.37-1,5.46,5.46,0,0,0,.1-1.07V68.9h.7v3.58a5.53,5.53,0,0,1-.16,1.37A3.07,3.07,0,0,1,70,75a2.53,2.53,0,0,1-.93.78,3.07,3.07,0,0,1-1.39.29,3,3,0,0,1-1.41-.3,2.81,2.81,0,0,1-.93-.81,3.27,3.27,0,0,1-.5-1.14,5.81,5.81,0,0,1-.15-1.32V68.9h.69v3.58a5.6,5.6,0,0,0,.11,1.09,2.81,2.81,0,0,0,.38.94,2.11,2.11,0,0,0,.7.66A2.18,2.18,0,0,0,67.68,75.42Z"/><path class="cls-1" d="M73.05,70.2V76h-.7V68.9h.54l4.7,5.91v-5.9h.7V76h-.61Z"/><path class="cls-1" d="M84.84,75.38V76H80.07V68.9h4.68v.62h-4v2.56h3.47v.59H80.77v2.71Z"/><path class="cls-1" d="M90.16,70.23a2.07,2.07,0,0,0-.8-.55,2.9,2.9,0,0,0-1.14-.21,2.14,2.14,0,0,0-1.37.36,1.18,1.18,0,0,0-.43,1,1.07,1.07,0,0,0,.12.53,1,1,0,0,0,.35.35,2.41,2.41,0,0,0,.62.26c.25.07.54.15.88.22a10.18,10.18,0,0,1,1,.27,3.25,3.25,0,0,1,.77.37,1.59,1.59,0,0,1,.49.55,1.61,1.61,0,0,1,.17.8,1.75,1.75,0,0,1-.19.85,1.6,1.6,0,0,1-.53.6,2.32,2.32,0,0,1-.81.36,4.65,4.65,0,0,1-1,.11,4.22,4.22,0,0,1-2.85-1l.35-.57a3.28,3.28,0,0,0,1,.7,3.7,3.7,0,0,0,.69.21,4,4,0,0,0,.78.07,2.4,2.4,0,0,0,1.33-.31,1,1,0,0,0,.47-.92,1,1,0,0,0-.13-.55,1.1,1.1,0,0,0-.41-.39A2.8,2.8,0,0,0,88.9,73q-.39-.12-.93-.24c-.37-.09-.7-.18-1-.27a2.61,2.61,0,0,1-.71-.35,1.36,1.36,0,0,1-.43-.5,1.61,1.61,0,0,1-.15-.73,1.86,1.86,0,0,1,.19-.87,1.64,1.64,0,0,1,.52-.64,2.59,2.59,0,0,1,.8-.39,3.64,3.64,0,0,1,1-.14,3.35,3.35,0,0,1,1.27.22,3.29,3.29,0,0,1,1,.6Z"/><path class="cls-1" d="M97.8,75.38V76H94.41v-.62h1.42V71.1a1,1,0,0,1-.27.26,4.45,4.45,0,0,1-.43.26,3,3,0,0,1-.49.2,1.52,1.52,0,0,1-.44.08v-.66a1.17,1.17,0,0,0,.51-.13,5.39,5.39,0,0,0,.52-.3,3.93,3.93,0,0,0,.41-.32.72.72,0,0,0,.19-.2h.7v5.09Z"/><path class="cls-1" d="M102.08,75.38V76H98.69v-.62h1.42V71.1a1,1,0,0,1-.27.26,4.45,4.45,0,0,1-.43.26,3,3,0,0,1-.49.2,1.52,1.52,0,0,1-.44.08v-.66a1.17,1.17,0,0,0,.51-.13,5.39,5.39,0,0,0,.52-.3,3.93,3.93,0,0,0,.41-.32.72.72,0,0,0,.19-.2h.7v5.09Z"/><path class="cls-1" d="M107.63,68.9h.59l3,7.1h-.74l-.92-2.22h-3.19L105.41,76h-.75Zm1.72,4.33-1.43-3.51-1.45,3.51Z"/><path class="cls-1" d="M112.19,76V68.9h.7v6.48H117V76Z"/><path class="cls-1" d="M120.3,76V68.9h2.41a3.63,3.63,0,0,1,1.49.28,3.16,3.16,0,0,1,1.06.76,3.29,3.29,0,0,1,.64,1.13,4.37,4.37,0,0,1,.21,1.37,4.28,4.28,0,0,1-.24,1.47,3.43,3.43,0,0,1-.68,1.12,3.31,3.31,0,0,1-1.07.72,3.73,3.73,0,0,1-1.41.25Zm5.11-3.56a3.59,3.59,0,0,0-.18-1.17,2.64,2.64,0,0,0-.52-.93,2.26,2.26,0,0,0-.85-.6,2.74,2.74,0,0,0-1.15-.22H121v5.86h1.71a2.87,2.87,0,0,0,1.17-.22,2.52,2.52,0,0,0,.84-.62,2.83,2.83,0,0,0,.52-.93A4,4,0,0,0,125.41,72.44Z"/><path class="cls-1" d="M130.31,76.05a3,3,0,0,1-1.35-.3,3.69,3.69,0,0,1-1.06-.81,3.85,3.85,0,0,1-.68-1.16,3.81,3.81,0,0,1-.24-1.33,3.7,3.7,0,0,1,.26-1.36,3.74,3.74,0,0,1,.7-1.15,3.42,3.42,0,0,1,1.06-.79,3,3,0,0,1,1.32-.3,2.93,2.93,0,0,1,1.36.32,3.39,3.39,0,0,1,1,.82,3.81,3.81,0,0,1,.66,3.83,3.89,3.89,0,0,1-.7,1.14,3.31,3.31,0,0,1-1.06.79A2.91,2.91,0,0,1,130.31,76.05Zm-2.63-3.6a3.51,3.51,0,0,0,.19,1.12,3.3,3.3,0,0,0,.54,1,2.75,2.75,0,0,0,.83.65,2.25,2.25,0,0,0,1.07.25,2.31,2.31,0,0,0,1.09-.26,2.51,2.51,0,0,0,.83-.68,3.27,3.27,0,0,0,.53-1,3.31,3.31,0,0,0,.18-1.08,3.25,3.25,0,0,0-.19-1.12,3,3,0,0,0-.55-.94,2.63,2.63,0,0,0-.83-.65,2.21,2.21,0,0,0-1.06-.25,2.34,2.34,0,0,0-1.09.26,2.7,2.7,0,0,0-.83.67,3.24,3.24,0,0,0-.52,1A3.07,3.07,0,0,0,127.68,72.45Z"/><path class="cls-1" d="M141.25,76V70.17l-2.59,4.51h-.41l-2.59-4.51V76H135V68.9h.72l2.77,4.86,2.79-4.86H142V76Z"/><path class="cls-1" d="M143.73,76V68.9h.7V76Z"/><path class="cls-1" d="M146.91,70.2V76h-.7V68.9h.54l4.7,5.91v-5.9h.7V76h-.61Z"/><path class="cls-1" d="M159.06,75a3,3,0,0,1-2.28,1.09,2.79,2.79,0,0,1-1.32-.31,3.39,3.39,0,0,1-1.05-.82,3.76,3.76,0,0,1-.95-2.48,3.69,3.69,0,0,1,.25-1.36,3.64,3.64,0,0,1,.68-1.14,3.34,3.34,0,0,1,1-.79,2.9,2.9,0,0,1,1.31-.3,3.93,3.93,0,0,1,.95.11,3,3,0,0,1,.77.33,2.26,2.26,0,0,1,.58.49,2.67,2.67,0,0,1,.41.62l-.54.36a2.26,2.26,0,0,0-.91-1,2.52,2.52,0,0,0-1.27-.31,2.18,2.18,0,0,0-1.06.25,2.51,2.51,0,0,0-.81.67,2.82,2.82,0,0,0-.52.95,3.38,3.38,0,0,0-.18,1.1,3.12,3.12,0,0,0,.21,1.14,2.91,2.91,0,0,0,.56,1,2.68,2.68,0,0,0,.85.64,2.31,2.31,0,0,0,1.05.24,2.42,2.42,0,0,0,1.17-.29,3.33,3.33,0,0,0,1.06-.9V73.05h-1.58v-.54h2.17V76h-.59Z"/><path class="cls-1" d="M164,76.05a3,3,0,0,1-1.35-.3,3.69,3.69,0,0,1-1.06-.81,3.85,3.85,0,0,1-.68-1.16,3.81,3.81,0,0,1-.24-1.33,3.7,3.7,0,0,1,.26-1.36,3.74,3.74,0,0,1,.7-1.15,3.42,3.42,0,0,1,1.06-.79,3,3,0,0,1,1.32-.3,2.93,2.93,0,0,1,1.36.32,3.39,3.39,0,0,1,1.05.82,3.81,3.81,0,0,1,.66,3.83,3.89,3.89,0,0,1-.7,1.14,3.31,3.31,0,0,1-1.06.79A2.91,2.91,0,0,1,164,76.05Zm-2.63-3.6a3.51,3.51,0,0,0,.19,1.12,3.3,3.3,0,0,0,.54,1,2.75,2.75,0,0,0,.83.65,2.25,2.25,0,0,0,1.07.25,2.31,2.31,0,0,0,1.09-.26,2.51,2.51,0,0,0,.83-.68,3.27,3.27,0,0,0,.53-1,3.31,3.31,0,0,0,.18-1.08,3.25,3.25,0,0,0-.19-1.12,3,3,0,0,0-.55-.94,2.63,2.63,0,0,0-.83-.65,2.21,2.21,0,0,0-1.06-.25,2.34,2.34,0,0,0-1.09.26,2.7,2.7,0,0,0-.83.67,3.24,3.24,0,0,0-.52,1A3.07,3.07,0,0,0,161.32,72.45Z"/><path class="cls-1" d="M174.32,75.38V76h-3.39v-.62h1.42V71.1a1,1,0,0,1-.27.26,4.45,4.45,0,0,1-.43.26,3,3,0,0,1-.49.2,1.52,1.52,0,0,1-.44.08v-.66a1.17,1.17,0,0,0,.51-.13,5.39,5.39,0,0,0,.52-.3,3.93,3.93,0,0,0,.41-.32.94.94,0,0,0,.19-.2h.7v5.09Z"/><path class="cls-1" d="M180,74a1.72,1.72,0,0,1-.2.85,2,2,0,0,1-.54.64,2.48,2.48,0,0,1-.79.42,3.38,3.38,0,0,1-1,.14,2.84,2.84,0,0,1-1-.16,2.19,2.19,0,0,1-.77-.46,1.92,1.92,0,0,1-.51-.66A1.85,1.85,0,0,1,175,74a1.45,1.45,0,0,1,.13-.63,1.91,1.91,0,0,1,.32-.51,2.54,2.54,0,0,1,1-.65A3.21,3.21,0,0,1,176,72a2,2,0,0,1-.37-.34,1.79,1.79,0,0,1-.25-.42,1.16,1.16,0,0,1-.1-.49,1.5,1.5,0,0,1,.2-.77,1.9,1.9,0,0,1,.52-.57,2.35,2.35,0,0,1,.71-.35,2.71,2.71,0,0,1,.79-.12,2.77,2.77,0,0,1,.8.12,2.24,2.24,0,0,1,.71.35,1.71,1.71,0,0,1,.51.56,1.43,1.43,0,0,1,.2.77,1.33,1.33,0,0,1-.09.49,1.9,1.9,0,0,1-.26.43A2.05,2.05,0,0,1,179,72a4,4,0,0,1-.46.24,2.19,2.19,0,0,1,.55.28,2,2,0,0,1,.46.4,1.94,1.94,0,0,1,.31.52A1.81,1.81,0,0,1,180,74Zm-.69,0a1.18,1.18,0,0,0-.16-.63,1.35,1.35,0,0,0-.42-.47,1.86,1.86,0,0,0-.58-.29,2,2,0,0,0-.63-.1,2,2,0,0,0-1.2.41,1.52,1.52,0,0,0-.4.47,1.29,1.29,0,0,0-.15.62,1.34,1.34,0,0,0,.16.63,1.67,1.67,0,0,0,.42.46,1.92,1.92,0,0,0,.57.29,2.07,2.07,0,0,0,1.27,0,2,2,0,0,0,.56-.3,1.68,1.68,0,0,0,.41-.47A1.29,1.29,0,0,0,179.28,74ZM176,70.74a1,1,0,0,0,.14.51,1.31,1.31,0,0,0,.36.38,1.45,1.45,0,0,0,.5.24,1.83,1.83,0,0,0,1.07,0,1.54,1.54,0,0,0,.5-.24,1.33,1.33,0,0,0,.36-.39.92.92,0,0,0,.14-.52,1,1,0,0,0-.13-.51,1.35,1.35,0,0,0-.34-.38,1.64,1.64,0,0,0-.5-.23,2.2,2.2,0,0,0-.58-.08,1.77,1.77,0,0,0-.56.09,1.32,1.32,0,0,0-.49.24,1.24,1.24,0,0,0-.34.38A1.07,1.07,0,0,0,176,70.74Z"/><path class="cls-1" d="M183.91,76V68.9h2.41a3.63,3.63,0,0,1,1.49.28,3.16,3.16,0,0,1,1.06.76,3.29,3.29,0,0,1,.64,1.13,4.37,4.37,0,0,1,.21,1.37,4.28,4.28,0,0,1-.24,1.47A3.43,3.43,0,0,1,188.8,75a3.31,3.31,0,0,1-1.07.72,3.73,3.73,0,0,1-1.41.25ZM189,72.44a3.59,3.59,0,0,0-.18-1.17,2.64,2.64,0,0,0-.52-.93,2.35,2.35,0,0,0-.85-.6,2.78,2.78,0,0,0-1.15-.22h-1.71v5.86h1.71a2.87,2.87,0,0,0,1.17-.22,2.62,2.62,0,0,0,.84-.62,2.83,2.83,0,0,0,.52-.93A4,4,0,0,0,189,72.44Z"/><path class="cls-1" d="M195.83,75.38V76h-4.77V68.9h4.68v.62h-4v2.56h3.47v.59h-3.47v2.71Z"/><path class="cls-1" d="M200.4,70.2V76h-.7V68.9h.54l4.7,5.91v-5.9h.7V76H205Z"/><path class="cls-1" d="M210.28,76.05a3,3,0,0,1-1.35-.3,3.56,3.56,0,0,1-1.06-.81,3.85,3.85,0,0,1-.68-1.16,3.81,3.81,0,0,1-.24-1.33,3.7,3.7,0,0,1,.26-1.36,3.74,3.74,0,0,1,.7-1.15,3.31,3.31,0,0,1,1.06-.79,3.05,3.05,0,0,1,2.68,0,3.39,3.39,0,0,1,1,.82,3.81,3.81,0,0,1,.66,3.83,3.89,3.89,0,0,1-.7,1.14,3.31,3.31,0,0,1-1.06.79A3,3,0,0,1,210.28,76.05Zm-2.63-3.6a3.25,3.25,0,0,0,.19,1.12,3.3,3.3,0,0,0,.54,1,2.63,2.63,0,0,0,.83.65,2.25,2.25,0,0,0,1.07.25,2.34,2.34,0,0,0,1.09-.26,2.61,2.61,0,0,0,.83-.68,3.27,3.27,0,0,0,.53-1,3.31,3.31,0,0,0,.18-1.08,3.25,3.25,0,0,0-.19-1.12,3.14,3.14,0,0,0-.55-.94,2.63,2.63,0,0,0-.83-.65,2.21,2.21,0,0,0-1.06-.25,2.34,2.34,0,0,0-1.09.26,2.58,2.58,0,0,0-.83.67,3,3,0,0,0-.52,1A3.07,3.07,0,0,0,207.65,72.45Z"/><path class="cls-1" d="M214.64,68.9l2.54,6.23,2.53-6.23h.73l-3,7.1h-.61l-3-7.1Z"/><path class="cls-1" d="M221.46,76V68.9h.7V76Z"/><path class="cls-1" d="M228.71,75.38V76h-4.77V68.9h4.68v.62h-4v2.56h3.47v.59h-3.47v2.71Z"/><path class="cls-1" d="M236.32,76V70.17l-2.59,4.51h-.41l-2.59-4.51V76H230V68.9h.72l2.77,4.86,2.79-4.86H237V76Z"/><path class="cls-1" d="M244.14,74.17a1.67,1.67,0,0,1-.16.74,2,2,0,0,1-.43.58,2,2,0,0,1-.63.38,2.19,2.19,0,0,1-.77.13H238.8V68.9h3.42a1.35,1.35,0,0,1,.67.16,1.74,1.74,0,0,1,.51.42,1.94,1.94,0,0,1,.33.58,2.06,2.06,0,0,1,.11.65,1.89,1.89,0,0,1-.27,1,1.72,1.72,0,0,1-.75.66,1.77,1.77,0,0,1,1,.67A2,2,0,0,1,244.14,74.17Zm-4.64-4.66v2.62h2.44a1.17,1.17,0,0,0,.49-.11,1.2,1.2,0,0,0,.38-.29,1.33,1.33,0,0,0,.25-.41,1.43,1.43,0,0,0,.09-.5,1.7,1.7,0,0,0-.08-.51,1.27,1.27,0,0,0-.24-.41,1.25,1.25,0,0,0-.37-.28.9.9,0,0,0-.46-.11Zm3.94,4.54a1.52,1.52,0,0,0-.09-.51,1.27,1.27,0,0,0-.25-.42,1.14,1.14,0,0,0-.39-.3,1,1,0,0,0-.49-.12H239.5v2.69h2.65a1.26,1.26,0,0,0,.51-.11,1.46,1.46,0,0,0,.41-.29,1.73,1.73,0,0,0,.27-.43A1.32,1.32,0,0,0,243.44,74.05Z"/><path class="cls-1" d="M245.46,76V68.9h3a1.75,1.75,0,0,1,.85.2,2.28,2.28,0,0,1,1.25,2,2.67,2.67,0,0,1-.11.75,2.74,2.74,0,0,1-.32.64,2.07,2.07,0,0,1-.5.48,1.78,1.78,0,0,1-.65.26L250.72,76h-.79l-1.67-2.62h-2.1V76Zm.7-3.24h2.32a1.33,1.33,0,0,0,.57-.13,1.39,1.39,0,0,0,.43-.37,1.86,1.86,0,0,0,.28-.52,1.82,1.82,0,0,0,0-1.22,1.79,1.79,0,0,0-.31-.52,1.56,1.56,0,0,0-.46-.35,1.24,1.24,0,0,0-.56-.13h-2.26Z"/><path class="cls-1" d="M256.76,75.38V76H252V68.9h4.68v.62h-4v2.56h3.47v.59h-3.47v2.71Z"/><path class="cls-1" d="M260.18,76a3.82,3.82,0,0,1,.06-.68A2.43,2.43,0,0,1,261,74a3.58,3.58,0,0,1,.86-.6l.61-.3a3.6,3.6,0,0,0,.58-.32,2.08,2.08,0,0,0,.43-.4.88.88,0,0,0,.17-.53,1,1,0,0,0-.08-.37.9.9,0,0,0-.25-.33,1.27,1.27,0,0,0-.41-.24,1.72,1.72,0,0,0-.58-.09,1.55,1.55,0,0,0-.59.1,1.88,1.88,0,0,0-.45.22,2,2,0,0,0-.34.28l-.21.23-.45-.49.23-.22a2.18,2.18,0,0,1,.45-.32,2.93,2.93,0,0,1,.64-.28,2.41,2.41,0,0,1,.83-.13,2.31,2.31,0,0,1,.82.13,1.72,1.72,0,0,1,.61.34,1.55,1.55,0,0,1,.38.51,1.34,1.34,0,0,1,.13.59,1.36,1.36,0,0,1-.18.71,2.21,2.21,0,0,1-.44.52,3.53,3.53,0,0,1-.57.38l-.54.26A5.2,5.2,0,0,0,262,74a2.81,2.81,0,0,0-.55.38,1.91,1.91,0,0,0-.39.47,1.06,1.06,0,0,0-.16.58h3.56V76Z"/><path class="cls-1" d="M270.52,73.07a3.67,3.67,0,0,1-.19,1.22,3.16,3.16,0,0,1-.52,1,2.43,2.43,0,0,1-.8.63,2.38,2.38,0,0,1-2,0,2.3,2.3,0,0,1-.79-.63,3,3,0,0,1-.53-1,3.67,3.67,0,0,1-.19-1.22,3.61,3.61,0,0,1,.19-1.21,3,3,0,0,1,.53-1,2.33,2.33,0,0,1,.79-.64,2.29,2.29,0,0,1,2,0,2.46,2.46,0,0,1,.8.64,3.16,3.16,0,0,1,.52,1A3.61,3.61,0,0,1,270.52,73.07Zm-.69,0a3.32,3.32,0,0,0-.13-1,2.46,2.46,0,0,0-.38-.76,1.74,1.74,0,0,0-.57-.48,1.56,1.56,0,0,0-.74-.18,1.53,1.53,0,0,0-.74.18,1.68,1.68,0,0,0-.58.48,2.45,2.45,0,0,0-.37.76,3.5,3.5,0,0,0,0,2,2.45,2.45,0,0,0,.37.76,1.58,1.58,0,0,0,.58.48,1.64,1.64,0,0,0,.74.17,1.68,1.68,0,0,0,.74-.17,1.63,1.63,0,0,0,.57-.48,2.46,2.46,0,0,0,.38-.76A3.32,3.32,0,0,0,269.83,73.07Z"/><path class="cls-1" d="M275.13,75.38V76h-3.39v-.62h1.42V71.1a1,1,0,0,1-.27.26,4.45,4.45,0,0,1-.43.26,3,3,0,0,1-.49.2,1.58,1.58,0,0,1-.44.08v-.66a1.2,1.2,0,0,0,.51-.13,5.39,5.39,0,0,0,.52-.3,3.93,3.93,0,0,0,.41-.32.94.94,0,0,0,.19-.2h.7v5.09Z"/><path class="cls-1" d="M275.71,72.73a2.31,2.31,0,0,1,.2-1,2.35,2.35,0,0,1,.53-.78,2.57,2.57,0,0,1,.8-.52,2.53,2.53,0,0,1,1-.19,2.5,2.5,0,0,1,1,.21,2.32,2.32,0,0,1,.81.58,2.83,2.83,0,0,1,.52.94,3.67,3.67,0,0,1,.19,1.24,8.16,8.16,0,0,1-.19,1.89,4.46,4.46,0,0,1-.53,1.34,2.18,2.18,0,0,1-1.9,1.05,2.34,2.34,0,0,1-1.26-.35,2.19,2.19,0,0,1-.86-1l.44-.4a1.84,1.84,0,0,0,1.68,1.12,1.57,1.57,0,0,0,.8-.21,1.86,1.86,0,0,0,.62-.6,3.18,3.18,0,0,0,.4-1,6.48,6.48,0,0,0,.15-1.32,2,2,0,0,1-.76.94,2.23,2.23,0,0,1-1.22.35,2.47,2.47,0,0,1-.95-.18,2.63,2.63,0,0,1-.78-.51,2.55,2.55,0,0,1-.52-.77A2.29,2.29,0,0,1,275.71,72.73Zm2.51-1.84a1.71,1.71,0,0,0-.71.15,1.69,1.69,0,0,0-.59.39,1.89,1.89,0,0,0-.41.59,1.71,1.71,0,0,0-.15.71,1.79,1.79,0,0,0,.15.72,2,2,0,0,0,.41.58,1.69,1.69,0,0,0,.59.39,1.71,1.71,0,0,0,.71.15,1.79,1.79,0,0,0,.72-.15,1.69,1.69,0,0,0,.59-.39,1.94,1.94,0,0,0,.4-.58,2,2,0,0,0,.14-.72,1.82,1.82,0,0,0-.14-.7,1.87,1.87,0,0,0-.4-.59,1.81,1.81,0,0,0-.59-.4A1.79,1.79,0,0,0,278.22,70.89Z"/><rect class="cls-1" x="11.54" y="32.5" width="317.92" height="1.6"/></svg>