<svg id="Layer_1" data-name="Layer 1" xmlns="http://www.w3.org/2000/svg" viewBox="0 0 600 150"><defs><style>.cls-1{font-size:14px;}.cls-1,.cls-19,.cls-20,.cls-8{fill:#fff;}.cls-1,.cls-8{font-family:Raleway-Regular, Raleway;}.cls-2{letter-spacing:-0.07em;}.cls-3{letter-spacing:-0.01em;}.cls-4{letter-spacing:0em;}.cls-5{letter-spacing:-0.03em;}.cls-6{letter-spacing:-0.01em;}.cls-7{letter-spacing:-0.03em;}.cls-8{font-size:10px;}.cls-9{letter-spacing:-0.03em;}.cls-10{letter-spacing:0em;}.cls-11{letter-spacing:-0.03em;}.cls-12{letter-spacing:-0.07em;}.cls-13{letter-spacing:-0.01em;}.cls-14{letter-spacing:-0.01em;}.cls-15{letter-spacing:-0.03em;}.cls-16{letter-spacing:-0.04em;}.cls-17{letter-spacing:-0.03em;}.cls-18{letter-spacing:-0.03em;}.cls-20{font-size:22.81px;font-family:Raleway-Medium, Raleway;}.cls-21{fill:#b94817;}</style></defs><title>TOP TABLERO GDS 2020_desktop-01</title><text class="cls-1" transform="translate(13.6 45.3)"><tspan class="cls-2">T</tspan><tspan x="7.56" y="0">ABLERO </tspan><tspan class="cls-3" x="66.26" y="0">C</tspan><tspan class="cls-4" x="75.77" y="0">ONTRO</tspan><tspan class="cls-5" x="125.28" y="0">L</tspan><tspan class="cls-4" x="133.07" y="0" xml:space="preserve"> DE EJ</tspan><tspan class="cls-6" x="174" y="0">E</tspan><tspan x="182.32" y="0">CUCIÓN </tspan><tspan class="cls-3" x="240.46" y="0">C</tspan><tspan x="249.97" y="0">OMERCIA</tspan><tspan class="cls-7" x="312.97" y="0">L</tspan></text><text class="cls-8" transform="translate(14.6 77)">US<tspan class="cls-9" x="13.62" y="0">U</tspan><tspan class="cls-10" x="20.87" y="0">ARIO: GERENTE DE</tspan><tspan class="cls-11" x="110.15" y="0"> </tspan><tspan x="112.36" y="0">VEN</tspan><tspan class="cls-12" x="132.96" y="0">T</tspan><tspan class="cls-13" x="138.36" y="0">A</tspan><tspan x="145.01" y="0">S</tspan><tspan x="0" y="12">FR</tspan><tspan class="cls-14" x="12.42" y="12">E</tspan><tspan x="18.36" y="12">CUENCIA: SEMANA</tspan><tspan class="cls-15" x="109.28" y="12">L</tspan><tspan x="0" y="24">PERIODO: </tspan><tspan class="cls-16" x="47.92" y="24">L</tspan><tspan x="53.31" y="24">UN</tspan><tspan class="cls-14" x="68.58" y="24">E</tspan><tspan x="74.52" y="24">S 11</tspan><tspan class="cls-17" x="91.7" y="24"> </tspan><tspan x="93.94" y="24">A</tspan><tspan class="cls-15" x="100.7" y="24">L</tspan><tspan x="106.26" y="24" xml:space="preserve"> DOMINGO 18 DE N</tspan><tspan class="cls-18" x="195.93" y="24">O</tspan><tspan x="203.18" y="24">VIEMBRE 2019</tspan></text><path class="cls-19" d="M373.6,87A12.09,12.09,0,0,1,368,85.65a13.09,13.09,0,0,1-4.35-3.59,16.6,16.6,0,0,1-2.8-5.35,23.06,23.06,0,0,1,.09-13.66,16.79,16.79,0,0,1,3-5.51,14,14,0,0,1,4.65-3.62,13.41,13.41,0,0,1,5.95-1.31,12.12,12.12,0,0,1,6,1.44,10,10,0,0,1,2.93,2.46.65.65,0,0,0,1.16-.41V53.9a.65.65,0,0,1,.65-.65h8.61a.65.65,0,0,1,.65.65v30a18,18,0,0,1-1.38,7.18,15.39,15.39,0,0,1-3.9,5.45,18.19,18.19,0,0,1-6.07,3.49,23.43,23.43,0,0,1-7.88,1.25,21.18,21.18,0,0,1-8.77-1.67,19.85,19.85,0,0,1-6.19-4.36.66.66,0,0,1,0-.9l5.15-5.71a.66.66,0,0,1,.94,0A15.83,15.83,0,0,0,370.15,91a11.68,11.68,0,0,0,5.19,1.18,9.73,9.73,0,0,0,3-.45,6.62,6.62,0,0,0,2.49-1.44,6.88,6.88,0,0,0,1.72-2.6,10.47,10.47,0,0,0,.63-3.84.65.65,0,0,0-1.16-.41,8.53,8.53,0,0,1-2.78,2.2A12.26,12.26,0,0,1,373.6,87m4.09-9.62a5.29,5.29,0,0,0,3-.87A8.71,8.71,0,0,0,383,74.06a.64.64,0,0,0,.12-.38V68a.7.7,0,0,0-.05-.25,8.08,8.08,0,0,0-2.45-3.53,5.38,5.38,0,0,0-3.45-1.35,4.51,4.51,0,0,0-2.26.61,6.48,6.48,0,0,0-1.83,1.6,7.3,7.3,0,0,0-1.2,2.38,9.94,9.94,0,0,0-.42,2.91,7.28,7.28,0,0,0,1.74,5.07,5.75,5.75,0,0,0,4.45,1.92"/><path class="cls-19" d="M412.34,87.61a13.68,13.68,0,0,1-10.7-4.91,17.18,17.18,0,0,1-3.09-5.57A21.74,21.74,0,0,1,397.44,70a22.7,22.7,0,0,1,1-6.92,17.53,17.53,0,0,1,2.85-5.55,13.23,13.23,0,0,1,4.36-3.65,11.85,11.85,0,0,1,5.59-1.31,11,11,0,0,1,5.61,1.47,9.75,9.75,0,0,1,2.78,2.36.65.65,0,0,0,1.16-.4V35.16a.65.65,0,0,1,.65-.65h10.11a.65.65,0,0,1,.66.65V73.5a4.37,4.37,0,0,0,.48,2.41,2,2,0,0,0,1.17.71.65.65,0,0,1,.51.64v9.17a.67.67,0,0,1-.52.65,22.52,22.52,0,0,1-4.29.53q-5.82,0-6.73-4.68l-.24-1.22a10.18,10.18,0,0,1-4.38,4.49,12.82,12.82,0,0,1-5.89,1.41m3.12-10.26q3,0,5.3-3.29a.7.7,0,0,0,.11-.38V68a.73.73,0,0,0,0-.25,8.56,8.56,0,0,0-2.42-3.5A5.23,5.23,0,0,0,415,62.86a4.66,4.66,0,0,0-2.31.58,5.48,5.48,0,0,0-1.8,1.6,8.4,8.4,0,0,0-1.21,2.37,9.07,9.07,0,0,0-.45,2.89,7.4,7.4,0,0,0,1.72,5.13,5.77,5.77,0,0,0,4.53,1.92"/><path class="cls-19" d="M451.37,87.61a23.42,23.42,0,0,1-8.12-1.45,18.27,18.27,0,0,1-6.37-3.85.65.65,0,0,1-.12-.78l3.32-6.22a.65.65,0,0,1,.95-.23,28.31,28.31,0,0,0,5.08,2.85,13,13,0,0,0,5,1.15c1.6,0,2.4-.53,2.4-1.6a1.85,1.85,0,0,0-.93-1.54A14.69,14.69,0,0,0,449,74.47a54,54,0,0,1-5.62-2,16.21,16.21,0,0,1-3.66-2.15,6.78,6.78,0,0,1-2-2.57,8.25,8.25,0,0,1-.61-3.33,11.61,11.61,0,0,1,1-4.74,11.43,11.43,0,0,1,2.67-3.79,11.77,11.77,0,0,1,4.09-2.46,15,15,0,0,1,5.19-.87,22.64,22.64,0,0,1,6.64,1,16.26,16.26,0,0,1,5.95,3.55.66.66,0,0,1,.12.82L459,64.12a.65.65,0,0,1-.93.2,28.42,28.42,0,0,0-4.35-2.52,9.43,9.43,0,0,0-3.73-.86,3.17,3.17,0,0,0-1.68.41,1.45,1.45,0,0,0-.66,1.32,1.82,1.82,0,0,0,1,1.57,15.67,15.67,0,0,0,3.79,1.38,41.23,41.23,0,0,1,5.77,2A14.55,14.55,0,0,1,461.91,70a7.27,7.27,0,0,1,2,2.82,10.06,10.06,0,0,1,.6,3.62,11.39,11.39,0,0,1-.91,4.68A9.73,9.73,0,0,1,461,84.59a11.48,11.48,0,0,1-4.14,2.25,18.36,18.36,0,0,1-5.5.77"/><path class="cls-19" d="M471.55,66.86V53.65h1.68V61L480,53.63h1.8l-5.3,5.83,5.6,7.4h-1.83l-4.8-6.43-2.28,2.39v4Z"/><path class="cls-19" d="M485.36,56.76v10.1h-1.68V53.63H485l8.19,10.31V53.65h1.67V66.86h-1.41Z"/><path class="cls-19" d="M503.36,67a5.64,5.64,0,0,1-2.54-.57,6.32,6.32,0,0,1-2-1.51,6.73,6.73,0,0,1-1.26-2.15,7.1,7.1,0,0,1-.45-2.48,6.93,6.93,0,0,1,1.79-4.68,6.06,6.06,0,0,1,2-1.48,5.6,5.6,0,0,1,2.48-.55,5.45,5.45,0,0,1,2.53.58,6.4,6.4,0,0,1,1.95,1.54,7.12,7.12,0,0,1,1.72,4.61,6.81,6.81,0,0,1-.48,2.53,7,7,0,0,1-1.3,2.13,6.27,6.27,0,0,1-2,1.48A5.78,5.78,0,0,1,503.36,67Zm-4.52-6.71a5.77,5.77,0,0,0,.33,1.94,5.12,5.12,0,0,0,.92,1.67A4.46,4.46,0,0,0,501.52,65a4.11,4.11,0,0,0,1.86.43,3.84,3.84,0,0,0,1.9-.46,4.54,4.54,0,0,0,1.42-1.19,5.26,5.26,0,0,0,.89-1.67,5.83,5.83,0,0,0,.31-1.88,6.13,6.13,0,0,0-.32-2,5.28,5.28,0,0,0-.93-1.66,4.72,4.72,0,0,0-1.44-1.15,4.17,4.17,0,0,0-3.73,0,4.62,4.62,0,0,0-1.42,1.18,5.21,5.21,0,0,0-.9,1.66A5.88,5.88,0,0,0,498.84,60.25Z"/><path class="cls-19" d="M516.27,53.7h1.59l1.74,4.61,1.77-4.61H523l-2.29,5.76,2.27,5.46,4.47-11.29h1.82L523.7,66.86h-1.45l-2.63-6.24L517,66.86h-1.45L510,53.63h1.81l4.48,11.29,2.25-5.46Z"/><path class="cls-19" d="M531,66.86V53.63h1.68V65.37H540v1.49Z"/><path class="cls-19" d="M550.78,65.37v1.49h-9V53.63h8.79v1.49h-7.12v4.29h6.19v1.4h-6.19v4.56Z"/><path class="cls-19" d="M553.07,66.86V53.63h4.58a6.89,6.89,0,0,1,2.78.52,5.72,5.72,0,0,1,2,1.42,5.93,5.93,0,0,1,1.2,2.09,8.33,8.33,0,0,1,.4,2.57,7.9,7.9,0,0,1-.45,2.73,6.07,6.07,0,0,1-1.28,2.09,6,6,0,0,1-2,1.34,7.16,7.16,0,0,1-2.63.47Zm9.26-6.63a6.75,6.75,0,0,0-.3-2.06,4.25,4.25,0,0,0-2.39-2.67,5,5,0,0,0-2-.38h-2.91V65.37h2.91a4.9,4.9,0,0,0,2-.39,4,4,0,0,0,1.47-1.08,4.86,4.86,0,0,0,.9-1.63A6.71,6.71,0,0,0,562.33,60.23Z"/><path class="cls-19" d="M575.71,65.07a5.3,5.3,0,0,1-6.47,1.31,6.54,6.54,0,0,1-1.94-1.52A7.2,7.2,0,0,1,566,62.71a6.73,6.73,0,0,1-.48-2.5,7.06,7.06,0,0,1,1.75-4.67,6.17,6.17,0,0,1,2-1.46,6.24,6.24,0,0,1,5.6.26,5.21,5.21,0,0,1,1.89,2.09l-1.28.89a4,4,0,0,0-1.58-1.71,4.36,4.36,0,0,0-2.22-.56,3.82,3.82,0,0,0-1.82.43,4.62,4.62,0,0,0-1.4,1.16,5.4,5.4,0,0,0-.89,1.66,6.12,6.12,0,0,0-.31,2,5.58,5.58,0,0,0,.35,2,5.37,5.37,0,0,0,1,1.66A4.55,4.55,0,0,0,570,65a4.12,4.12,0,0,0,1.82.41,5,5,0,0,0,3.89-2.09V61.53h-2.85V60.27h4.26v6.59h-1.41Z"/><path class="cls-19" d="M588.64,65.37v1.49h-9V53.63h8.8v1.49h-7.12v4.29h6.19v1.4h-6.19v4.56Z"/><text class="cls-20" transform="translate(589.33 66.86)"> </text><path class="cls-19" d="M483.6,72.14H478v14.4H476V72.14h-5.59V70.31H483.6Z"/><path class="cls-19" d="M492,86.65a7,7,0,0,1-3.12-.69,7.71,7.71,0,0,1-2.4-1.86A8.21,8.21,0,0,1,485,81.46a8.59,8.59,0,0,1-.55-3,8.38,8.38,0,0,1,.58-3.11,8.5,8.5,0,0,1,1.61-2.63A7.68,7.68,0,0,1,489,70.87a6.9,6.9,0,0,1,3-.67,6.65,6.65,0,0,1,3.1.72,8,8,0,0,1,2.4,1.88,8.79,8.79,0,0,1,2.1,5.65,8.7,8.7,0,0,1-2.18,5.72A7.72,7.72,0,0,1,495.08,86,6.93,6.93,0,0,1,492,86.65Zm-5.55-8.22a7.38,7.38,0,0,0,.4,2.38,6.7,6.7,0,0,0,1.13,2,5.52,5.52,0,0,0,1.76,1.42,4.91,4.91,0,0,0,2.28.52,4.8,4.8,0,0,0,2.32-.56,5.62,5.62,0,0,0,1.75-1.46,6.4,6.4,0,0,0,1.09-2,7.34,7.34,0,0,0,.38-2.3,7.14,7.14,0,0,0-.4-2.39,6.56,6.56,0,0,0-1.14-2,5.71,5.71,0,0,0-1.76-1.4,4.78,4.78,0,0,0-2.24-.53,5,5,0,0,0-2.33.55A5.78,5.78,0,0,0,488,74.06a6.6,6.6,0,0,0-1.11,2A7.12,7.12,0,0,0,486.49,78.43Z"/><path class="cls-19" d="M521.36,78.31a8.52,8.52,0,0,1,.52-2.91,8.08,8.08,0,0,1,1.5-2.61,7.5,7.5,0,0,1,2.43-1.86,7.33,7.33,0,0,1,3.26-.71,6.75,6.75,0,0,1,3.72,1,6.07,6.07,0,0,1,2.3,2.55l-1.62,1.06a4.67,4.67,0,0,0-.87-1.31,4.63,4.63,0,0,0-1.12-.84,4.55,4.55,0,0,0-1.24-.46,6.16,6.16,0,0,0-1.26-.14,5,5,0,0,0-2.38.56,5.65,5.65,0,0,0-1.75,1.47,6.45,6.45,0,0,0-1.06,2,7.73,7.73,0,0,0-.35,2.27,7.07,7.07,0,0,0,.42,2.44,6.45,6.45,0,0,0,1.18,2,5.56,5.56,0,0,0,1.78,1.42,4.79,4.79,0,0,0,2.23.52,5.52,5.52,0,0,0,1.31-.16,4.45,4.45,0,0,0,1.29-.51,5.64,5.64,0,0,0,1.15-.89,4.4,4.4,0,0,0,.88-1.29l1.71.93a5.06,5.06,0,0,1-1.08,1.61,6.79,6.79,0,0,1-1.58,1.18,8.07,8.07,0,0,1-3.77,1,6.46,6.46,0,0,1-3.06-.73,8,8,0,0,1-2.4-1.9,8.89,8.89,0,0,1-2.14-5.73Z"/><path class="cls-19" d="M549.64,72.14h-5.58v14.4H542V72.14h-5.58V70.31h13.22Z"/><path class="cls-19" d="M552,86.54V70.31h2V86.54Z"/><path class="cls-19" d="M564.47,86.65a7,7,0,0,1-3.12-.69A7.83,7.83,0,0,1,559,84.1a8.21,8.21,0,0,1-1.55-2.64,8.59,8.59,0,0,1-.55-3,8.38,8.38,0,0,1,.58-3.11A8.5,8.5,0,0,1,559,72.69a7.68,7.68,0,0,1,2.43-1.82,6.9,6.9,0,0,1,3-.67,6.62,6.62,0,0,1,3.1.72A8,8,0,0,1,570,72.8a8.79,8.79,0,0,1,2.1,5.65,8.63,8.63,0,0,1-.58,3.11,8.45,8.45,0,0,1-1.6,2.61A7.61,7.61,0,0,1,567.51,86,6.9,6.9,0,0,1,564.47,86.65Zm-5.55-8.22a7.38,7.38,0,0,0,.4,2.38,6.92,6.92,0,0,0,1.13,2,5.63,5.63,0,0,0,1.76,1.42,4.91,4.91,0,0,0,2.28.52,4.84,4.84,0,0,0,2.33-.56,5.7,5.7,0,0,0,1.74-1.46,6.63,6.63,0,0,0,1.1-2,7.33,7.33,0,0,0,.37-2.3,7.14,7.14,0,0,0-.4-2.39,6.18,6.18,0,0,0-1.14-2,5.79,5.79,0,0,0-1.75-1.4,4.85,4.85,0,0,0-2.25-.53,5,5,0,0,0-2.33.55,5.78,5.78,0,0,0-1.74,1.44,6.6,6.6,0,0,0-1.11,2A7.12,7.12,0,0,0,558.92,78.43Z"/><path class="cls-19" d="M577,74.15V86.54h-2V70.31h1.59l10,12.64V70.34h2v16.2h-1.73Z"/><path class="cls-21" d="M518.52,86.2l-4.76-12.11a.52.52,0,0,0-1,0L508.05,86.2a.52.52,0,0,1-.49.33h-1a.53.53,0,0,1-.49-.72l6.21-15.23a.52.52,0,0,1,.48-.33h1.09a.52.52,0,0,1,.48.33l6.23,15.23a.52.52,0,0,1-.49.72h-1a.52.52,0,0,1-.49-.33"/><rect class="cls-19" x="15.54" y="57.5" width="317.92" height="1.6"/></svg>