<svg id="Layer_1" data-name="Layer 1" xmlns="http://www.w3.org/2000/svg" viewBox="0 0 250 90"><defs><style>.cls-1,.cls-2{fill:#fff;}.cls-2{font-size:22.81px;font-family:Raleway-Medium, Raleway;}.cls-3{fill:#b94817;}</style></defs><title>TOP TABLERO GDS 2020_logo</title><path class="cls-1" d="M20.1,62a12.09,12.09,0,0,1-5.62-1.32,13.09,13.09,0,0,1-4.35-3.59,16.6,16.6,0,0,1-2.8-5.35,23.06,23.06,0,0,1,.09-13.66,16.79,16.79,0,0,1,3-5.51,14,14,0,0,1,4.65-3.62,13.41,13.41,0,0,1,5.95-1.31,12.12,12.12,0,0,1,6,1.44A10,10,0,0,1,30,31.51a.65.65,0,0,0,1.16-.41V28.9a.65.65,0,0,1,.65-.65h8.61a.65.65,0,0,1,.65.65v30a18,18,0,0,1-1.38,7.18,15.39,15.39,0,0,1-3.9,5.45A18.19,18.19,0,0,1,29.72,75a23.43,23.43,0,0,1-7.88,1.25,21.18,21.18,0,0,1-8.77-1.67,19.85,19.85,0,0,1-6.19-4.36.66.66,0,0,1,0-.9L12,63.62a.66.66,0,0,1,.94,0A15.83,15.83,0,0,0,16.65,66a11.68,11.68,0,0,0,5.19,1.18,9.73,9.73,0,0,0,3-.45,6.62,6.62,0,0,0,2.49-1.44A6.88,6.88,0,0,0,29,62.73a10.47,10.47,0,0,0,.63-3.84.65.65,0,0,0-1.16-.41,8.53,8.53,0,0,1-2.78,2.2A12.26,12.26,0,0,1,20.1,62m4.09-9.62a5.29,5.29,0,0,0,3-.87,8.71,8.71,0,0,0,2.32-2.42.64.64,0,0,0,.12-.38V43a.7.7,0,0,0-.05-.25,8.08,8.08,0,0,0-2.45-3.53,5.38,5.38,0,0,0-3.45-1.35,4.51,4.51,0,0,0-2.26.61,6.48,6.48,0,0,0-1.83,1.6,7.3,7.3,0,0,0-1.2,2.38A9.94,9.94,0,0,0,18,45.36a7.28,7.28,0,0,0,1.74,5.07,5.75,5.75,0,0,0,4.45,1.92"/><path class="cls-1" d="M58.84,62.61a13.68,13.68,0,0,1-10.7-4.91,17.18,17.18,0,0,1-3.09-5.57A21.74,21.74,0,0,1,43.94,45a22.7,22.7,0,0,1,1-6.92,17.53,17.53,0,0,1,2.85-5.55,13.23,13.23,0,0,1,4.36-3.65,11.85,11.85,0,0,1,5.59-1.31,11,11,0,0,1,5.61,1.47,9.75,9.75,0,0,1,2.78,2.36.65.65,0,0,0,1.16-.4V10.16A.65.65,0,0,1,68,9.51H78.07a.65.65,0,0,1,.66.65V48.5a4.37,4.37,0,0,0,.48,2.41,2,2,0,0,0,1.17.71.65.65,0,0,1,.51.64v9.17a.67.67,0,0,1-.52.65,22.52,22.52,0,0,1-4.29.53q-5.82,0-6.73-4.68l-.24-1.22a10.18,10.18,0,0,1-4.38,4.49,12.82,12.82,0,0,1-5.89,1.41M62,52.35q3,0,5.3-3.29a.7.7,0,0,0,.11-.38V43a.73.73,0,0,0,0-.25,8.56,8.56,0,0,0-2.42-3.5,5.23,5.23,0,0,0-3.43-1.38,4.66,4.66,0,0,0-2.31.58,5.48,5.48,0,0,0-1.8,1.6,8.4,8.4,0,0,0-1.21,2.37,9.07,9.07,0,0,0-.45,2.89,7.4,7.4,0,0,0,1.72,5.13A5.77,5.77,0,0,0,62,52.35"/><path class="cls-1" d="M97.87,62.61a23.42,23.42,0,0,1-8.12-1.45,18.27,18.27,0,0,1-6.37-3.85.65.65,0,0,1-.12-.78l3.32-6.22a.65.65,0,0,1,1-.23,28.31,28.31,0,0,0,5.08,2.85,13,13,0,0,0,5,1.15c1.6,0,2.4-.53,2.4-1.6a1.85,1.85,0,0,0-.93-1.54,14.69,14.69,0,0,0-3.64-1.47,54,54,0,0,1-5.62-2,16.21,16.21,0,0,1-3.66-2.15,6.78,6.78,0,0,1-2-2.57,8.25,8.25,0,0,1-.61-3.33,11.61,11.61,0,0,1,1-4.74,11.43,11.43,0,0,1,2.67-3.79,11.77,11.77,0,0,1,4.09-2.46,15,15,0,0,1,5.19-.87,22.64,22.64,0,0,1,6.64,1,16.26,16.26,0,0,1,5.95,3.55.66.66,0,0,1,.12.82l-3.7,6.25a.65.65,0,0,1-.93.2,28.42,28.42,0,0,0-4.35-2.52,9.43,9.43,0,0,0-3.73-.86,3.17,3.17,0,0,0-1.68.41,1.45,1.45,0,0,0-.66,1.32,1.82,1.82,0,0,0,1,1.57,15.67,15.67,0,0,0,3.79,1.38,41.23,41.23,0,0,1,5.77,2A14.55,14.55,0,0,1,108.41,45a7.27,7.27,0,0,1,2,2.82,10.06,10.06,0,0,1,.6,3.62,11.39,11.39,0,0,1-.91,4.68,9.73,9.73,0,0,1-2.61,3.52,11.48,11.48,0,0,1-4.14,2.25,18.36,18.36,0,0,1-5.5.77"/><path class="cls-1" d="M118.05,41.86V28.65h1.68V36l6.81-7.32h1.8L123,34.46l5.6,7.4h-1.83L122,35.43l-2.28,2.39v4Z"/><path class="cls-1" d="M131.86,31.76v10.1h-1.68V28.63h1.3l8.19,10.31V28.65h1.67V41.86h-1.41Z"/><path class="cls-1" d="M149.86,42a5.64,5.64,0,0,1-2.54-.57,6.32,6.32,0,0,1-2-1.51,6.73,6.73,0,0,1-1.26-2.15,7.1,7.1,0,0,1-.45-2.48,6.93,6.93,0,0,1,1.79-4.68,6.06,6.06,0,0,1,2-1.48,5.6,5.6,0,0,1,2.48-.55,5.45,5.45,0,0,1,2.53.58,6.4,6.4,0,0,1,1.95,1.54,7.12,7.12,0,0,1,1.72,4.61,6.81,6.81,0,0,1-.48,2.53,7,7,0,0,1-1.3,2.13,6.27,6.27,0,0,1-2,1.48A5.78,5.78,0,0,1,149.86,42Zm-4.52-6.71a5.77,5.77,0,0,0,.33,1.94,5.12,5.12,0,0,0,.92,1.67A4.46,4.46,0,0,0,148,40a4.11,4.11,0,0,0,1.86.43,3.84,3.84,0,0,0,1.9-.46,4.54,4.54,0,0,0,1.42-1.19,5.26,5.26,0,0,0,.89-1.67,5.83,5.83,0,0,0,.31-1.88,6.13,6.13,0,0,0-.32-2,5.28,5.28,0,0,0-.93-1.66,4.72,4.72,0,0,0-1.44-1.15,4.17,4.17,0,0,0-3.73,0,4.62,4.62,0,0,0-1.42,1.18,5.21,5.21,0,0,0-.9,1.66A5.88,5.88,0,0,0,145.34,35.25Z"/><path class="cls-1" d="M162.77,28.7h1.59l1.74,4.61,1.77-4.61h1.58l-2.29,5.76,2.27,5.46,4.47-11.29h1.82L170.2,41.86h-1.45l-2.63-6.24-2.64,6.24H162l-5.51-13.23h1.81l4.48,11.29,2.25-5.46Z"/><path class="cls-1" d="M177.45,41.86V28.63h1.68V40.37h7.36v1.49Z"/><path class="cls-1" d="M197.28,40.37v1.49h-9V28.63h8.79v1.49H190v4.29h6.19v1.4H190v4.56Z"/><path class="cls-1" d="M199.57,41.86V28.63h4.58a6.89,6.89,0,0,1,2.78.52,5.72,5.72,0,0,1,2,1.42,5.93,5.93,0,0,1,1.2,2.09,8.33,8.33,0,0,1,.4,2.57,7.9,7.9,0,0,1-.45,2.73,6.07,6.07,0,0,1-1.28,2.09,6,6,0,0,1-2,1.34,7.16,7.16,0,0,1-2.63.47Zm9.26-6.63a6.75,6.75,0,0,0-.3-2.06,4.25,4.25,0,0,0-2.39-2.67,5,5,0,0,0-2-.38h-2.91V40.37h2.91a4.9,4.9,0,0,0,2-.39,4,4,0,0,0,1.47-1.08,4.86,4.86,0,0,0,.9-1.63A6.71,6.71,0,0,0,208.83,35.23Z"/><path class="cls-1" d="M222.21,40.07a5.3,5.3,0,0,1-6.47,1.31,6.54,6.54,0,0,1-1.94-1.52,7.2,7.2,0,0,1-1.29-2.15,6.73,6.73,0,0,1-.48-2.5,7.06,7.06,0,0,1,1.75-4.67,6.17,6.17,0,0,1,2-1.46,6.24,6.24,0,0,1,5.6.26,5.21,5.21,0,0,1,1.89,2.09l-1.28.89a4,4,0,0,0-1.58-1.71,4.36,4.36,0,0,0-2.22-.56,3.82,3.82,0,0,0-1.82.43,4.62,4.62,0,0,0-1.4,1.16A5.4,5.4,0,0,0,214,33.3a6.12,6.12,0,0,0-.31,2,5.58,5.58,0,0,0,.35,2,5.37,5.37,0,0,0,1,1.66A4.55,4.55,0,0,0,216.5,40a4.12,4.12,0,0,0,1.82.41,5,5,0,0,0,3.89-2.09V36.53h-2.85V35.27h4.26v6.59h-1.41Z"/><path class="cls-1" d="M235.14,40.37v1.49h-9V28.63H235v1.49h-7.12v4.29H234v1.4h-6.19v4.56Z"/><text class="cls-2" transform="translate(235.83 41.86)"> </text><path class="cls-1" d="M130.1,47.14h-5.59v14.4h-2.05V47.14h-5.59V45.31H130.1Z"/><path class="cls-1" d="M138.54,61.65a7,7,0,0,1-3.12-.69A7.71,7.71,0,0,1,133,59.1a8.21,8.21,0,0,1-1.55-2.64,8.59,8.59,0,0,1-.55-3,8.38,8.38,0,0,1,.58-3.11,8.5,8.5,0,0,1,1.61-2.63,7.68,7.68,0,0,1,2.43-1.82,6.9,6.9,0,0,1,3-.67,6.65,6.65,0,0,1,3.1.72,8,8,0,0,1,2.4,1.88,8.79,8.79,0,0,1,2.1,5.65A8.7,8.7,0,0,1,144,59.17,7.72,7.72,0,0,1,141.58,61,6.93,6.93,0,0,1,138.54,61.65ZM133,53.43a7.38,7.38,0,0,0,.4,2.38,6.7,6.7,0,0,0,1.13,2,5.52,5.52,0,0,0,1.76,1.42,4.91,4.91,0,0,0,2.28.52,4.8,4.8,0,0,0,2.32-.56,5.62,5.62,0,0,0,1.75-1.46,6.4,6.4,0,0,0,1.09-2.05,7.34,7.34,0,0,0,.38-2.3,7.14,7.14,0,0,0-.4-2.39,6.56,6.56,0,0,0-1.14-2,5.71,5.71,0,0,0-1.76-1.4,4.78,4.78,0,0,0-2.24-.53,5,5,0,0,0-2.33.55,5.78,5.78,0,0,0-1.74,1.44,6.6,6.6,0,0,0-1.11,2A7.12,7.12,0,0,0,133,53.43Z"/><path class="cls-1" d="M167.86,53.31a8.52,8.52,0,0,1,.52-2.91,8.08,8.08,0,0,1,1.5-2.61,7.5,7.5,0,0,1,2.43-1.86,7.33,7.33,0,0,1,3.26-.71,6.75,6.75,0,0,1,3.72,1,6.07,6.07,0,0,1,2.3,2.55L180,49.82a4.67,4.67,0,0,0-.87-1.31,4.63,4.63,0,0,0-1.12-.84,4.55,4.55,0,0,0-1.24-.46,6.16,6.16,0,0,0-1.26-.14,5,5,0,0,0-2.38.56,5.65,5.65,0,0,0-1.75,1.47,6.45,6.45,0,0,0-1.06,2,7.73,7.73,0,0,0-.35,2.27,7.07,7.07,0,0,0,.42,2.44,6.45,6.45,0,0,0,1.18,2,5.56,5.56,0,0,0,1.78,1.42,4.79,4.79,0,0,0,2.23.52,5.52,5.52,0,0,0,1.31-.16,4.45,4.45,0,0,0,1.29-.51,5.64,5.64,0,0,0,1.15-.89,4.4,4.4,0,0,0,.88-1.29l1.71.93a5.06,5.06,0,0,1-1.08,1.61,6.79,6.79,0,0,1-1.58,1.18,8.07,8.07,0,0,1-3.77,1,6.46,6.46,0,0,1-3.06-.73A8,8,0,0,1,170,59a8.89,8.89,0,0,1-2.14-5.73Z"/><path class="cls-1" d="M196.14,47.14h-5.58v14.4H188.5V47.14h-5.58V45.31h13.22Z"/><path class="cls-1" d="M198.47,61.54V45.31h2.05V61.54Z"/><path class="cls-1" d="M211,61.65a7,7,0,0,1-3.12-.69,7.83,7.83,0,0,1-2.4-1.86,8.21,8.21,0,0,1-1.55-2.64,8.59,8.59,0,0,1-.55-3,8.38,8.38,0,0,1,.58-3.11,8.5,8.5,0,0,1,1.61-2.63A7.68,7.68,0,0,1,208,45.87a6.9,6.9,0,0,1,3-.67,6.62,6.62,0,0,1,3.1.72,8,8,0,0,1,2.4,1.88,8.79,8.79,0,0,1,2.1,5.65,8.63,8.63,0,0,1-.58,3.11,8.45,8.45,0,0,1-1.6,2.61A7.61,7.61,0,0,1,214,61,6.9,6.9,0,0,1,211,61.65Zm-5.55-8.22a7.38,7.38,0,0,0,.4,2.38,6.92,6.92,0,0,0,1.13,2,5.63,5.63,0,0,0,1.76,1.42,4.91,4.91,0,0,0,2.28.52,4.84,4.84,0,0,0,2.33-.56,5.7,5.7,0,0,0,1.74-1.46,6.63,6.63,0,0,0,1.1-2.05,7.33,7.33,0,0,0,.37-2.3,7.14,7.14,0,0,0-.4-2.39A6.18,6.18,0,0,0,215,49a5.79,5.79,0,0,0-1.75-1.4,4.85,4.85,0,0,0-2.25-.53,5,5,0,0,0-2.33.55,5.78,5.78,0,0,0-1.74,1.44,6.6,6.6,0,0,0-1.11,2A7.12,7.12,0,0,0,205.42,53.43Z"/><path class="cls-1" d="M223.51,49.15V61.54h-2V45.31h1.59l10,12.64V45.34h2v16.2h-1.73Z"/><path class="cls-3" d="M165,61.2l-4.76-12.11a.52.52,0,0,0-1,0L154.55,61.2a.52.52,0,0,1-.49.33h-1a.53.53,0,0,1-.49-.72l6.21-15.23a.52.52,0,0,1,.48-.33h1.09a.52.52,0,0,1,.48.33L167,60.81a.52.52,0,0,1-.49.72h-1a.52.52,0,0,1-.49-.33"/></svg>