<svg id="Layer_1" data-name="Layer 1" xmlns="http://www.w3.org/2000/svg" viewBox="0 0 349 150"><defs><style>.cls-1{fill:#fff;}.cls-2{fill:#b94817;}</style></defs><title>TOP TABLERO GDS 2020_mobile-01</title><path class="cls-1" d="M21.91,15.23H18.36V24.3h-1V15.23H13.84v-.87h8.07Z"/><path class="cls-1" d="M25.49,14.36h.83l4.13,9.94h-1l-1.29-3.11H23.66L22.38,24.3H21.33Zm2.41,6.06-2-4.91-2,4.91Z"/><path class="cls-1" d="M39.35,21.74a2.5,2.5,0,0,1-.22,1,2.68,2.68,0,0,1-1.49,1.34,2.92,2.92,0,0,1-1.08.19H31.87V14.36h4.79a2,2,0,0,1,.94.23,2.24,2.24,0,0,1,.71.58,2.7,2.7,0,0,1,.46.81,2.71,2.71,0,0,1-.22,2.3,2.38,2.38,0,0,1-1,.93,2.46,2.46,0,0,1,1.35.93A2.67,2.67,0,0,1,39.35,21.74Zm-6.5-6.52v3.66h3.42a1.57,1.57,0,0,0,.68-.15,1.68,1.68,0,0,0,.54-.41,1.87,1.87,0,0,0,.35-.58,2,2,0,0,0,.12-.69,2.08,2.08,0,0,0-.12-.71,1.7,1.7,0,0,0-.33-.59,1.92,1.92,0,0,0-.51-.39,1.41,1.41,0,0,0-.65-.14Zm5.52,6.35a1.85,1.85,0,0,0-.13-.7,1.94,1.94,0,0,0-.35-.61,2.06,2.06,0,0,0-.55-.42,1.58,1.58,0,0,0-.68-.16H32.85v3.77h3.71a1.54,1.54,0,0,0,.71-.16,1.81,1.81,0,0,0,.57-.41,1.73,1.73,0,0,0,.39-.6A2,2,0,0,0,38.37,21.57Z"/><path class="cls-1" d="M41.2,24.3V14.36h1v9.07h5.74v.87Z"/><path class="cls-1" d="M56,23.43v.87H49.36V14.36h6.55v.87H50.34v3.58H55.2v.83H50.34v3.79Z"/><path class="cls-1" d="M57.89,24.3V14.36h4.19a2.63,2.63,0,0,1,1.19.27,3.14,3.14,0,0,1,.93.72,3.4,3.4,0,0,1,.61,1A3.2,3.2,0,0,1,65,17.48a3.3,3.3,0,0,1-.17,1.05,3,3,0,0,1-.44.89,2.78,2.78,0,0,1-.7.67,2.38,2.38,0,0,1-.91.38l2.44,3.83H64.14l-2.33-3.67H58.87V24.3Zm1-4.53h3.24a1.71,1.71,0,0,0,.79-.19,1.89,1.89,0,0,0,.61-.51A2.44,2.44,0,0,0,64,17.48a2.34,2.34,0,0,0-.16-.86,2.38,2.38,0,0,0-.43-.72,2.18,2.18,0,0,0-.64-.49,1.78,1.78,0,0,0-.78-.18H58.87Z"/><path class="cls-1" d="M71,24.37a4.3,4.3,0,0,1-1.9-.42,4.85,4.85,0,0,1-1.47-1.14,5.27,5.27,0,0,1-1-1.62,5.36,5.36,0,0,1-.33-1.86,5.34,5.34,0,0,1,1.34-3.51,4.65,4.65,0,0,1,1.49-1.11,4.28,4.28,0,0,1,3.74,0,4.67,4.67,0,0,1,1.47,1.16,5.31,5.31,0,0,1,1,1.61,5.39,5.39,0,0,1,.33,1.85,5.21,5.21,0,0,1-1.33,3.5A4.76,4.76,0,0,1,72.88,24,4.28,4.28,0,0,1,71,24.37Zm-3.68-5a4.82,4.82,0,0,0,.26,1.56,4.16,4.16,0,0,0,.76,1.33,3.72,3.72,0,0,0,1.16.93,3.45,3.45,0,0,0,3,0,3.85,3.85,0,0,0,1.16-1,4.19,4.19,0,0,0,.73-1.33,4.32,4.32,0,0,0,.26-1.51,4.57,4.57,0,0,0-.27-1.56,4.3,4.3,0,0,0-.76-1.32,3.88,3.88,0,0,0-1.17-.92A3.16,3.16,0,0,0,71,15.19a3.38,3.38,0,0,0-1.53.35,3.81,3.81,0,0,0-1.16.95,4.52,4.52,0,0,0-.73,1.33A4.61,4.61,0,0,0,67.35,19.33Z"/><path class="cls-1" d="M80.45,19.26a5.31,5.31,0,0,1,.32-1.78,4.82,4.82,0,0,1,.91-1.59,4.7,4.7,0,0,1,1.49-1.14,4.33,4.33,0,0,1,2-.44,4.17,4.17,0,0,1,2.28.6,3.63,3.63,0,0,1,1.39,1.57l-.77.47a3,3,0,0,0-.58-.82,3.16,3.16,0,0,0-.74-.55,3,3,0,0,0-.81-.3,3.91,3.91,0,0,0-.83-.09,3.38,3.38,0,0,0-1.58.36,3.66,3.66,0,0,0-1.15.95,4.16,4.16,0,0,0-.71,1.33,4.74,4.74,0,0,0-.24,1.49,4.43,4.43,0,0,0,.29,1.58,4.58,4.58,0,0,0,.78,1.34,3.92,3.92,0,0,0,1.18.92,3.19,3.19,0,0,0,1.48.34,3.73,3.73,0,0,0,.86-.1,3.09,3.09,0,0,0,.85-.34,3.22,3.22,0,0,0,.76-.57,3,3,0,0,0,.59-.83l.81.42a2.85,2.85,0,0,1-.67,1,4.16,4.16,0,0,1-1,.72,4.6,4.6,0,0,1-1.13.45,4.84,4.84,0,0,1-1.17.16,4,4,0,0,1-1.88-.45,5.2,5.2,0,0,1-1.47-1.17,5.61,5.61,0,0,1-1.3-3.51Z"/><path class="cls-1" d="M94.62,24.37a4.3,4.3,0,0,1-1.9-.42,4.85,4.85,0,0,1-1.47-1.14,5.27,5.27,0,0,1-1-1.62A5.36,5.36,0,0,1,90,19.33a5.34,5.34,0,0,1,1.34-3.51,4.65,4.65,0,0,1,1.49-1.11,4.28,4.28,0,0,1,3.74,0A4.67,4.67,0,0,1,98,15.89a5.31,5.31,0,0,1,1,1.61,5.39,5.39,0,0,1,.33,1.85A5.21,5.21,0,0,1,98,22.85,4.76,4.76,0,0,1,96.47,24,4.28,4.28,0,0,1,94.62,24.37Zm-3.68-5a4.82,4.82,0,0,0,.26,1.56A4.16,4.16,0,0,0,92,22.22a3.72,3.72,0,0,0,1.16.93,3.45,3.45,0,0,0,3,0,3.85,3.85,0,0,0,1.16-1A4.19,4.19,0,0,0,98,20.84a4.32,4.32,0,0,0,.26-1.51A4.57,4.57,0,0,0,98,17.77a4.3,4.3,0,0,0-.76-1.32,3.88,3.88,0,0,0-1.17-.92,3.16,3.16,0,0,0-1.48-.34,3.38,3.38,0,0,0-1.53.35,3.81,3.81,0,0,0-1.16.95,4.52,4.52,0,0,0-.73,1.33A4.36,4.36,0,0,0,90.94,19.33Z"/><path class="cls-1" d="M102.11,16.18V24.3h-1V14.36h.76l6.58,8.28V14.38h1V24.3h-.86Z"/><path class="cls-1" d="M119,15.23h-3.54V24.3h-1V15.23h-3.54v-.87H119Z"/><path class="cls-1" d="M120.48,24.3V14.36h4.2a2.59,2.59,0,0,1,1.18.27,3.14,3.14,0,0,1,.93.72,3.2,3.2,0,0,1,.61,1,3,3,0,0,1,.22,1.13,3.6,3.6,0,0,1-.16,1.05,3.24,3.24,0,0,1-.45.89,2.59,2.59,0,0,1-.69.67,2.45,2.45,0,0,1-.91.38l2.43,3.83h-1.1l-2.34-3.67h-2.94V24.3Zm1-4.53h3.25a1.74,1.74,0,0,0,.79-.19,2,2,0,0,0,.61-.51,3,3,0,0,0,.39-.73,2.72,2.72,0,0,0,.14-.86,2.57,2.57,0,0,0-.16-.86,2.4,2.4,0,0,0-.44-.72,2.06,2.06,0,0,0-.64-.49,1.78,1.78,0,0,0-.78-.18h-3.16Z"/><path class="cls-1" d="M133.62,24.37a4.23,4.23,0,0,1-1.89-.42,4.77,4.77,0,0,1-1.48-1.14,5.05,5.05,0,0,1-.95-1.62,5.23,5.23,0,0,1,0-3.76,5.3,5.3,0,0,1,1-1.61,4.61,4.61,0,0,1,1.48-1.11,4.3,4.3,0,0,1,3.75,0A4.74,4.74,0,0,1,137,15.89,5.11,5.11,0,0,1,138,17.5a5.4,5.4,0,0,1,.34,1.85,5.13,5.13,0,0,1-.36,1.9,5.3,5.3,0,0,1-1,1.6A4.76,4.76,0,0,1,135.47,24,4.25,4.25,0,0,1,133.62,24.37Zm-3.68-5a4.57,4.57,0,0,0,.27,1.56,4.33,4.33,0,0,0,.75,1.33,3.76,3.76,0,0,0,1.17.93,3.17,3.17,0,0,0,1.49.34,3.26,3.26,0,0,0,1.53-.36,3.73,3.73,0,0,0,1.16-1,4.42,4.42,0,0,0,.74-1.33,4.5,4.5,0,0,0,0-3.07,4.11,4.11,0,0,0-.76-1.32,3.84,3.84,0,0,0-1.16-.92,3.2,3.2,0,0,0-1.49-.34,3.33,3.33,0,0,0-1.52.35,3.59,3.59,0,0,0-1.16.95,4.33,4.33,0,0,0-.74,1.33A4.61,4.61,0,0,0,129.94,19.33Z"/><path class="cls-1" d="M140.13,24.3V14.36h1v9.07h5.74v.87Z"/><path class="cls-1" d="M151.49,24.3V14.36h3.37a5.11,5.11,0,0,1,2.08.39,4.41,4.41,0,0,1,1.49,1.07,4.58,4.58,0,0,1,.89,1.57,6.14,6.14,0,0,1,.3,1.93,6,6,0,0,1-.33,2.05,4.7,4.7,0,0,1-1,1.57,4.46,4.46,0,0,1-1.5,1,5.32,5.32,0,0,1-2,.35Zm7.15-5a5.1,5.1,0,0,0-.25-1.65,3.71,3.71,0,0,0-.73-1.29,3.29,3.29,0,0,0-1.19-.85,4,4,0,0,0-1.61-.3h-2.39v8.2h2.39a4,4,0,0,0,1.63-.31,3.37,3.37,0,0,0,1.19-.87,4,4,0,0,0,.72-1.3A5.31,5.31,0,0,0,158.64,19.32Z"/><path class="cls-1" d="M168.18,23.43v.87H161.5V14.36h6.55v.87h-5.57v3.58h4.86v.83h-4.86v3.79Z"/><path class="cls-1" d="M180.27,23.43v.87h-6.68V14.36h6.56v.87h-5.58v3.58h4.86v.83h-4.86v3.79Z"/><path class="cls-1" d="M181.35,23.06a2.91,2.91,0,0,0,.79.36,3.64,3.64,0,0,0,1.09.15,2.38,2.38,0,0,0,1.21-.27,1.75,1.75,0,0,0,.69-.8,4.2,4.2,0,0,0,.31-1.31c0-.52.07-1.11.07-1.77V14.36h1v5.06a18.44,18.44,0,0,1-.11,2.06,4.51,4.51,0,0,1-.44,1.59,2.35,2.35,0,0,1-1,1,3.55,3.55,0,0,1-1.73.37,3.74,3.74,0,0,1-2.16-.62Z"/><path class="cls-1" d="M195.53,23.43v.87h-6.68V14.36h6.56v.87h-5.58v3.58h4.86v.83h-4.86v3.79Z"/><path class="cls-1" d="M196.51,19.26a5.31,5.31,0,0,1,.32-1.78,4.82,4.82,0,0,1,.91-1.59,4.59,4.59,0,0,1,1.49-1.14,4.33,4.33,0,0,1,2-.44,4.13,4.13,0,0,1,2.27.6,3.65,3.65,0,0,1,1.4,1.57l-.77.47a3.06,3.06,0,0,0-1.32-1.37,3,3,0,0,0-.81-.3,4,4,0,0,0-.83-.09,3.38,3.38,0,0,0-1.58.36,3.55,3.55,0,0,0-1.15.95,4.16,4.16,0,0,0-.71,1.33,4.74,4.74,0,0,0-.24,1.49,4.43,4.43,0,0,0,.29,1.58,4.58,4.58,0,0,0,.78,1.34,3.92,3.92,0,0,0,1.18.92,3.19,3.19,0,0,0,1.48.34,3.73,3.73,0,0,0,.86-.1,3.56,3.56,0,0,0,1.61-.91,3,3,0,0,0,.59-.83l.81.42a3,3,0,0,1-.67,1,4.16,4.16,0,0,1-1,.72,4.6,4.6,0,0,1-1.13.45,4.84,4.84,0,0,1-1.17.16,4,4,0,0,1-1.88-.45,4.94,4.94,0,0,1-1.47-1.17,5.46,5.46,0,0,1-1.3-3.51Z"/><path class="cls-1" d="M210.81,23.49a3.1,3.1,0,0,0,1.56-.36,3,3,0,0,0,1-.93,3.81,3.81,0,0,0,.52-1.33,7.48,7.48,0,0,0,.15-1.5v-5h1v5a8,8,0,0,1-.23,1.92,4.49,4.49,0,0,1-.72,1.58,3.54,3.54,0,0,1-1.29,1.1,4.32,4.32,0,0,1-2,.4,4.26,4.26,0,0,1-2-.42,3.66,3.66,0,0,1-1.3-1.13,4.72,4.72,0,0,1-.7-1.6,8,8,0,0,1-.21-1.85v-5h1v5a7.63,7.63,0,0,0,.15,1.53,4.06,4.06,0,0,0,.53,1.32,2.74,2.74,0,0,0,1,.92A3.1,3.1,0,0,0,210.81,23.49Z"/><path class="cls-1" d="M216.69,19.26a5.3,5.3,0,0,1,.31-1.78,4.84,4.84,0,0,1,.92-1.59,4.55,4.55,0,0,1,1.48-1.14,4.36,4.36,0,0,1,2-.44,4.17,4.17,0,0,1,2.28.6,3.63,3.63,0,0,1,1.39,1.57l-.77.47a3,3,0,0,0-.58-.82,3.11,3.11,0,0,0-.73-.55,3.25,3.25,0,0,0-.82-.3,3.88,3.88,0,0,0-.82-.09,3.32,3.32,0,0,0-1.58.36,3.59,3.59,0,0,0-1.16.95,4.37,4.37,0,0,0-.71,1.33,4.73,4.73,0,0,0-.23,1.49,4.45,4.45,0,0,0,1.07,2.92,3.88,3.88,0,0,0,1.17.92,3.22,3.22,0,0,0,1.48.34,3.67,3.67,0,0,0,.86-.1,3.09,3.09,0,0,0,.85-.34,3.49,3.49,0,0,0,.77-.57,3.18,3.18,0,0,0,.59-.83l.81.42a3.16,3.16,0,0,1-.67,1,4.21,4.21,0,0,1-1,.72,4.6,4.6,0,0,1-1.13.45,4.71,4.71,0,0,1-1.17.16,3.94,3.94,0,0,1-1.87-.45A4.94,4.94,0,0,1,218,22.77a5.49,5.49,0,0,1-1-1.64A5.24,5.24,0,0,1,216.69,19.26Z"/><path class="cls-1" d="M227,24.3V14.36h1V24.3Z"/><path class="cls-1" d="M234.42,24.37a4.23,4.23,0,0,1-1.89-.42,4.77,4.77,0,0,1-1.48-1.14,5.05,5.05,0,0,1-1-1.62,5.23,5.23,0,0,1,0-3.76,5.47,5.47,0,0,1,1-1.61,4.65,4.65,0,0,1,1.49-1.11,4.28,4.28,0,0,1,3.74,0,4.67,4.67,0,0,1,1.47,1.16,5.31,5.31,0,0,1,.95,1.61,5.39,5.39,0,0,1,.33,1.85,5.12,5.12,0,0,1-.35,1.9,5.3,5.3,0,0,1-1,1.6A4.76,4.76,0,0,1,236.27,24,4.25,4.25,0,0,1,234.42,24.37Zm-3.68-5a4.57,4.57,0,0,0,.27,1.56,4.13,4.13,0,0,0,.75,1.33,3.84,3.84,0,0,0,1.16.93,3.45,3.45,0,0,0,3,0,3.73,3.73,0,0,0,1.16-1,4.42,4.42,0,0,0,.74-1.33,4.66,4.66,0,0,0,0-3.07,4.11,4.11,0,0,0-.76-1.32,4,4,0,0,0-1.16-.92,3.23,3.23,0,0,0-1.49-.34,3.3,3.3,0,0,0-1.52.35,3.74,3.74,0,0,0-1.17.95,4.52,4.52,0,0,0-.73,1.33A4.61,4.61,0,0,0,230.74,19.33ZM234.52,13l-.63-.23.83-1.31h1Z"/><path class="cls-1" d="M241.91,16.18V24.3h-1V14.36h.76l6.58,8.28V14.38h1V24.3h-.86Z"/><path class="cls-1" d="M254.65,19.26a5.31,5.31,0,0,1,.32-1.78,4.82,4.82,0,0,1,.91-1.59,4.7,4.7,0,0,1,1.49-1.14,4.33,4.33,0,0,1,2-.44,4.17,4.17,0,0,1,2.28.6A3.63,3.63,0,0,1,263,16.48l-.77.47a3,3,0,0,0-.58-.82,3.16,3.16,0,0,0-.74-.55,3,3,0,0,0-.81-.3,4,4,0,0,0-.83-.09,3.38,3.38,0,0,0-1.58.36,3.55,3.55,0,0,0-1.15.95,4.16,4.16,0,0,0-.71,1.33,4.74,4.74,0,0,0-.24,1.49,4.43,4.43,0,0,0,.29,1.58,4.58,4.58,0,0,0,.78,1.34,3.92,3.92,0,0,0,1.18.92,3.19,3.19,0,0,0,1.48.34,3.73,3.73,0,0,0,.86-.1,3.09,3.09,0,0,0,.85-.34,3.22,3.22,0,0,0,.76-.57,3,3,0,0,0,.59-.83l.81.42a2.85,2.85,0,0,1-.67,1,4.16,4.16,0,0,1-1,.72,4.6,4.6,0,0,1-1.13.45,4.84,4.84,0,0,1-1.17.16,4,4,0,0,1-1.88-.45A5.07,5.07,0,0,1,256,22.77a5.61,5.61,0,0,1-1.3-3.51Z"/><path class="cls-1" d="M268.82,24.37a4.3,4.3,0,0,1-1.9-.42,4.85,4.85,0,0,1-1.47-1.14,5.27,5.27,0,0,1-1-1.62,5.36,5.36,0,0,1-.33-1.86,5.34,5.34,0,0,1,1.34-3.51A4.65,4.65,0,0,1,267,14.71a4.11,4.11,0,0,1,1.84-.42,4.15,4.15,0,0,1,1.9.44,4.67,4.67,0,0,1,1.47,1.16,5.31,5.31,0,0,1,.95,1.61,5.39,5.39,0,0,1,.33,1.85,5.21,5.21,0,0,1-1.33,3.5A4.76,4.76,0,0,1,270.67,24,4.28,4.28,0,0,1,268.82,24.37Zm-3.68-5a4.82,4.82,0,0,0,.26,1.56,4.16,4.16,0,0,0,.76,1.33,3.72,3.72,0,0,0,1.16.93,3.45,3.45,0,0,0,3,0,3.85,3.85,0,0,0,1.16-1,4.19,4.19,0,0,0,.73-1.33,4.32,4.32,0,0,0,.26-1.51,4.57,4.57,0,0,0-.27-1.56,4.3,4.3,0,0,0-.76-1.32,3.88,3.88,0,0,0-1.17-.92,3.16,3.16,0,0,0-1.48-.34,3.38,3.38,0,0,0-1.53.35,3.81,3.81,0,0,0-1.16.95,4.31,4.31,0,0,0-.73,1.33A4.36,4.36,0,0,0,265.14,19.33Z"/><path class="cls-1" d="M284.14,24.3V16.14l-3.63,6.31h-.57l-3.63-6.31V24.3h-1V14.36h1l3.88,6.81,3.9-6.81h1V24.3Z"/><path class="cls-1" d="M294.29,23.43v.87h-6.68V14.36h6.55v.87h-5.57v3.58h4.86v.83h-4.86v3.79Z"/><path class="cls-1" d="M296.13,24.3V14.36h4.2a2.63,2.63,0,0,1,1.19.27,3.14,3.14,0,0,1,.93.72,3.4,3.4,0,0,1,.61,1,3.18,3.18,0,0,1,.21,1.13,3.3,3.3,0,0,1-.16,1.05,3.22,3.22,0,0,1-.44.89,2.78,2.78,0,0,1-.7.67,2.38,2.38,0,0,1-.91.38l2.44,3.83h-1.11l-2.34-3.67h-2.94V24.3Zm1-4.53h3.25a1.71,1.71,0,0,0,.79-.19,2,2,0,0,0,.61-.51,2.59,2.59,0,0,0,.53-1.59,2.34,2.34,0,0,0-.16-.86,2.38,2.38,0,0,0-.43-.72,2.1,2.1,0,0,0-.65-.49,1.71,1.71,0,0,0-.77-.18h-3.17Z"/><path class="cls-1" d="M304.62,19.26a5.3,5.3,0,0,1,.31-1.78,4.84,4.84,0,0,1,.92-1.59,4.65,4.65,0,0,1,1.48-1.14,4.37,4.37,0,0,1,2-.44,4.15,4.15,0,0,1,2.27.6A3.57,3.57,0,0,1,313,16.48l-.77.47a2.75,2.75,0,0,0-.58-.82,3.11,3.11,0,0,0-.73-.55,3,3,0,0,0-.81-.3,4,4,0,0,0-.83-.09,3.35,3.35,0,0,0-1.58.36,3.7,3.7,0,0,0-1.16.95,4.34,4.34,0,0,0-.7,1.33,4.74,4.74,0,0,0-.24,1.49,4.22,4.22,0,0,0,.29,1.58,4.58,4.58,0,0,0,.78,1.34,3.8,3.8,0,0,0,1.18.92,3.18,3.18,0,0,0,1.47.34,3.67,3.67,0,0,0,.86-.1,3.15,3.15,0,0,0,.86-.34,3.43,3.43,0,0,0,.76-.57,3.18,3.18,0,0,0,.59-.83l.81.42a3,3,0,0,1-.67,1,4,4,0,0,1-1,.72,4.53,4.53,0,0,1-1.12.45,4.84,4.84,0,0,1-1.17.16,4,4,0,0,1-1.88-.45,4.94,4.94,0,0,1-1.47-1.17,5.49,5.49,0,0,1-1-1.64A5.24,5.24,0,0,1,304.62,19.26Z"/><path class="cls-1" d="M314.88,24.3V14.36h1V24.3Z"/><path class="cls-1" d="M321.43,14.36h.83l4.13,9.94h-1l-1.29-3.11H319.6l-1.28,3.11h-1.05Zm2.41,6.06-2-4.91-2,4.91Z"/><path class="cls-1" d="M327.82,24.3V14.36h1v9.07h5.75v.87Z"/><path class="cls-1" d="M99.83,49.42a2.35,2.35,0,0,0,1.12-.25,2.08,2.08,0,0,0,.71-.67,2.73,2.73,0,0,0,.37-1,5.46,5.46,0,0,0,.1-1.07V42.9h.7v3.58a5.53,5.53,0,0,1-.16,1.37,3.07,3.07,0,0,1-.51,1.13,2.53,2.53,0,0,1-.93.78,3.07,3.07,0,0,1-1.39.29,3,3,0,0,1-1.41-.3,2.81,2.81,0,0,1-.93-.81A3.27,3.27,0,0,1,97,47.8a5.81,5.81,0,0,1-.15-1.32V42.9h.69v3.58a5.6,5.6,0,0,0,.11,1.09,2.81,2.81,0,0,0,.38.94,2.11,2.11,0,0,0,.7.66A2.21,2.21,0,0,0,99.83,49.42Z"/><path class="cls-1" d="M108.65,44.23a2.07,2.07,0,0,0-.8-.55,2.9,2.9,0,0,0-1.14-.21,2.14,2.14,0,0,0-1.37.36,1.18,1.18,0,0,0-.43,1,.93.93,0,0,0,.47.88,2.41,2.41,0,0,0,.62.26c.25.07.54.15.88.22a9.52,9.52,0,0,1,1,.27,3.25,3.25,0,0,1,.77.37,1.59,1.59,0,0,1,.49.55,1.61,1.61,0,0,1,.17.8,1.75,1.75,0,0,1-.19.85,1.6,1.6,0,0,1-.53.6,2.32,2.32,0,0,1-.81.36,4.65,4.65,0,0,1-1,.11,4.22,4.22,0,0,1-2.85-1l.35-.57a3,3,0,0,0,.46.38,3.31,3.31,0,0,0,.59.32,3.66,3.66,0,0,0,1.47.28,2.4,2.4,0,0,0,1.33-.31,1,1,0,0,0,.47-.92,1,1,0,0,0-.13-.55,1.1,1.1,0,0,0-.41-.39,2.8,2.8,0,0,0-.67-.29q-.39-.12-.93-.24c-.37-.09-.7-.18-1-.27a2.61,2.61,0,0,1-.71-.35,1.46,1.46,0,0,1-.43-.5,1.61,1.61,0,0,1-.15-.73,2,2,0,0,1,.19-.87,1.64,1.64,0,0,1,.52-.64,2.59,2.59,0,0,1,.8-.39,3.64,3.64,0,0,1,1-.14,3.35,3.35,0,0,1,1.27.22,3.29,3.29,0,0,1,1,.6Z"/><path class="cls-1" d="M113.45,49.42a2.35,2.35,0,0,0,1.12-.25,2.08,2.08,0,0,0,.71-.67,2.73,2.73,0,0,0,.37-1,5.46,5.46,0,0,0,.1-1.07V42.9h.7v3.58a5.53,5.53,0,0,1-.16,1.37,3.07,3.07,0,0,1-.51,1.13,2.53,2.53,0,0,1-.93.78,3.07,3.07,0,0,1-1.39.29,3,3,0,0,1-1.41-.3,2.81,2.81,0,0,1-.93-.81,3.27,3.27,0,0,1-.5-1.14,5.81,5.81,0,0,1-.15-1.32V42.9h.69v3.58a5.6,5.6,0,0,0,.11,1.09,2.81,2.81,0,0,0,.38.94,2.11,2.11,0,0,0,.7.66A2.18,2.18,0,0,0,113.45,49.42Z"/><path class="cls-1" d="M120,42.9h.59l3,7.1h-.74l-.92-2.22h-3.19L117.8,50h-.75Zm1.72,4.33-1.43-3.51-1.45,3.51Z"/><path class="cls-1" d="M124.58,50V42.9h3a1.75,1.75,0,0,1,.85.2,2.09,2.09,0,0,1,.66.51,2.17,2.17,0,0,1,.44.71,2.25,2.25,0,0,1,0,1.56,2.4,2.4,0,0,1-.32.64,1.9,1.9,0,0,1-.5.48,1.78,1.78,0,0,1-.65.26L129.84,50h-.79l-1.67-2.62h-2.1V50Zm.7-3.24h2.32a1.33,1.33,0,0,0,.57-.13,1.39,1.39,0,0,0,.43-.37,1.63,1.63,0,0,0,.28-.52,1.77,1.77,0,0,0,.1-.61,1.57,1.57,0,0,0-.11-.61,1.79,1.79,0,0,0-.31-.52,1.44,1.44,0,0,0-.46-.35,1.21,1.21,0,0,0-.56-.13h-2.26Z"/><path class="cls-1" d="M131.11,50V42.9h.7V50Z"/><path class="cls-1" d="M136.45,50.05a3,3,0,0,1-1.35-.3,3.69,3.69,0,0,1-1.06-.81,3.85,3.85,0,0,1-.68-1.16,3.81,3.81,0,0,1-.24-1.33,3.7,3.7,0,0,1,.26-1.36,3.74,3.74,0,0,1,.7-1.15,3.42,3.42,0,0,1,1.06-.79,3,3,0,0,1,1.32-.3,2.93,2.93,0,0,1,1.36.32,3.39,3.39,0,0,1,1.05.82,3.76,3.76,0,0,1,0,5,3.31,3.31,0,0,1-1.06.79A2.91,2.91,0,0,1,136.45,50.05Zm-2.63-3.6a3.51,3.51,0,0,0,.19,1.12,3.3,3.3,0,0,0,.54,1,2.75,2.75,0,0,0,.83.65,2.25,2.25,0,0,0,1.07.25,2.31,2.31,0,0,0,1.09-.26,2.51,2.51,0,0,0,.83-.68,3.05,3.05,0,0,0,.53-.95,3.31,3.31,0,0,0,.18-1.08,3.25,3.25,0,0,0-.19-1.12,3,3,0,0,0-.55-.94,2.63,2.63,0,0,0-.83-.65,2.21,2.21,0,0,0-1.06-.25,2.34,2.34,0,0,0-1.09.26,2.7,2.7,0,0,0-.83.67,3.24,3.24,0,0,0-.52.95A3.32,3.32,0,0,0,133.82,46.45Z"/><path class="cls-1" d="M140.86,45.8v-1h.58v1Zm0,4.2V49h.58v1Z"/><path class="cls-1" d="M150.66,49a3,3,0,0,1-2.28,1.09,2.79,2.79,0,0,1-1.32-.31,3.64,3.64,0,0,1-1.05-.82,3.76,3.76,0,0,1-.95-2.48,3.9,3.9,0,0,1,.25-1.36,3.64,3.64,0,0,1,.68-1.14,3.34,3.34,0,0,1,1-.79,2.9,2.9,0,0,1,1.31-.3,3.93,3.93,0,0,1,.95.11,2.84,2.84,0,0,1,.77.33,2.1,2.1,0,0,1,.58.49,2.67,2.67,0,0,1,.41.62l-.54.36a2.26,2.26,0,0,0-.91-1,2.52,2.52,0,0,0-1.27-.31,2.21,2.21,0,0,0-1.06.25,2.51,2.51,0,0,0-.81.67,3,3,0,0,0-.52,1,3.38,3.38,0,0,0-.18,1.1,3.24,3.24,0,0,0,.77,2.09,2.8,2.8,0,0,0,.85.64,2.31,2.31,0,0,0,1.05.24,2.42,2.42,0,0,0,1.17-.29,3.33,3.33,0,0,0,1.06-.9V47.05h-1.58v-.54h2.17V50h-.59Z"/><path class="cls-1" d="M157.46,49.38V50h-4.77V42.9h4.68v.62h-4v2.56h3.47v.59h-3.47v2.71Z"/><path class="cls-1" d="M158.78,50V42.9h3a1.75,1.75,0,0,1,.85.2,2.09,2.09,0,0,1,.66.51,2.17,2.17,0,0,1,.44.71,2.32,2.32,0,0,1,.15.81,2.35,2.35,0,0,1-.11.75,2.4,2.4,0,0,1-.32.64,1.9,1.9,0,0,1-.5.48,1.78,1.78,0,0,1-.65.26L164,50h-.79l-1.67-2.62h-2.1V50Zm.7-3.24h2.32a1.33,1.33,0,0,0,.57-.13,1.39,1.39,0,0,0,.43-.37,1.63,1.63,0,0,0,.28-.52,1.77,1.77,0,0,0,.1-.61,1.57,1.57,0,0,0-.11-.61,1.79,1.79,0,0,0-.31-.52,1.44,1.44,0,0,0-.46-.35,1.21,1.21,0,0,0-.56-.13h-2.26Z"/><path class="cls-1" d="M170.08,49.38V50h-4.77V42.9H170v.62h-4v2.56h3.47v.59H166v2.71Z"/><path class="cls-1" d="M172.1,44.2V50h-.7V42.9h.54l4.7,5.91v-5.9h.7V50h-.61Z"/><path class="cls-1" d="M184.16,43.52h-2.53V50h-.7V43.52H178.4V42.9h5.76Z"/><path class="cls-1" d="M190,49.38V50h-4.77V42.9h4.68v.62h-4v2.56h3.47v.59h-3.47v2.71Z"/><path class="cls-1" d="M193.86,50V42.9h2.41a3.63,3.63,0,0,1,1.49.28,3.06,3.06,0,0,1,1.06.76,3.14,3.14,0,0,1,.64,1.13,4.37,4.37,0,0,1,.21,1.37,4.28,4.28,0,0,1-.24,1.47,3.27,3.27,0,0,1-.68,1.12,3.2,3.2,0,0,1-1.07.72,3.73,3.73,0,0,1-1.41.25ZM199,46.44a3.59,3.59,0,0,0-.18-1.17,2.64,2.64,0,0,0-.52-.93,2.26,2.26,0,0,0-.85-.6,2.74,2.74,0,0,0-1.15-.22h-1.71v5.86h1.71a2.87,2.87,0,0,0,1.17-.22,2.42,2.42,0,0,0,.84-.62,2.83,2.83,0,0,0,.52-.93A3.68,3.68,0,0,0,199,46.44Z"/><path class="cls-1" d="M205.78,49.38V50H201V42.9h4.68v.62h-4v2.56h3.47v.59h-3.47v2.71Z"/><path class="cls-1" d="M209.28,42.9l2.54,6.23,2.53-6.23h.73l-3,7.1h-.61l-3-7.1Z"/><path class="cls-1" d="M220.87,49.38V50H216.1V42.9h4.68v.62h-4v2.56h3.47v.59H216.8v2.71Z"/><path class="cls-1" d="M222.89,44.2V50h-.7V42.9h.54l4.7,5.91v-5.9h.7V50h-.61Z"/><path class="cls-1" d="M235,43.52h-2.53V50h-.7V43.52h-2.53V42.9H235Z"/><path class="cls-1" d="M237.51,42.9h.59l3,7.1h-.74l-.92-2.22H236.2L235.29,50h-.75Zm1.72,4.33-1.43-3.51-1.45,3.51Z"/><path class="cls-1" d="M246.11,44.23a2.07,2.07,0,0,0-.8-.55,2.9,2.9,0,0,0-1.14-.21,2.14,2.14,0,0,0-1.37.36,1.18,1.18,0,0,0-.43,1,1.07,1.07,0,0,0,.12.53,1,1,0,0,0,.35.35,2.41,2.41,0,0,0,.62.26c.25.07.54.15.88.22a10.18,10.18,0,0,1,1,.27,3.25,3.25,0,0,1,.77.37,1.59,1.59,0,0,1,.49.55,1.61,1.61,0,0,1,.17.8,1.75,1.75,0,0,1-.19.85,1.6,1.6,0,0,1-.53.6,2.32,2.32,0,0,1-.81.36,4.65,4.65,0,0,1-1,.11,4.22,4.22,0,0,1-2.85-1l.35-.57a3,3,0,0,0,.46.38,3.31,3.31,0,0,0,.59.32,3.7,3.7,0,0,0,.69.21,4,4,0,0,0,.78.07,2.4,2.4,0,0,0,1.33-.31,1,1,0,0,0,.47-.92,1,1,0,0,0-.13-.55,1.1,1.1,0,0,0-.41-.39,2.8,2.8,0,0,0-.67-.29q-.39-.12-.93-.24c-.37-.09-.7-.18-1-.27a2.61,2.61,0,0,1-.71-.35,1.46,1.46,0,0,1-.43-.5,1.61,1.61,0,0,1-.15-.73,1.86,1.86,0,0,1,.19-.87,1.64,1.64,0,0,1,.52-.64,2.59,2.59,0,0,1,.8-.39,3.64,3.64,0,0,1,1-.14,3.35,3.35,0,0,1,1.27.22,3.29,3.29,0,0,1,1,.6Z"/><path class="cls-1" d="M115.07,62V54.9h4.66v.62h-4v2.61h3.34v.58h-3.34V62Z"/><path class="cls-1" d="M121,62V54.9h3a1.75,1.75,0,0,1,.85.2,2.09,2.09,0,0,1,.66.51,2.17,2.17,0,0,1,.44.71,2.32,2.32,0,0,1,.15.81,2.35,2.35,0,0,1-.11.75,2.4,2.4,0,0,1-.32.64,1.9,1.9,0,0,1-.5.48,1.78,1.78,0,0,1-.65.26L126.22,62h-.79l-1.67-2.62h-2.1V62Zm.7-3.24H124a1.33,1.33,0,0,0,.57-.13,1.39,1.39,0,0,0,.43-.37,1.63,1.63,0,0,0,.28-.52,1.77,1.77,0,0,0,.1-.61,1.57,1.57,0,0,0-.11-.61,1.79,1.79,0,0,0-.31-.52,1.44,1.44,0,0,0-.46-.35,1.21,1.21,0,0,0-.56-.13h-2.26Z"/><path class="cls-1" d="M132.26,61.38V62h-4.77V54.9h4.68v.62h-4v2.56h3.47v.59h-3.47v2.71Z"/><path class="cls-1" d="M133,58.4a3.74,3.74,0,0,1,.23-1.27,3.56,3.56,0,0,1,.65-1.14,3.46,3.46,0,0,1,1.06-.82,3.16,3.16,0,0,1,1.43-.31,2.94,2.94,0,0,1,1.63.43,2.6,2.6,0,0,1,1,1.12l-.55.34a2.14,2.14,0,0,0-.41-.59,2.2,2.2,0,0,0-.53-.39,2,2,0,0,0-.58-.21,2.38,2.38,0,0,0-.59-.07,2.44,2.44,0,0,0-1.13.26,2.57,2.57,0,0,0-.82.68,3.22,3.22,0,0,0-.51,1,3.51,3.51,0,0,0-.17,1.06,3.1,3.1,0,0,0,.21,1.13,3.27,3.27,0,0,0,.56,1,3,3,0,0,0,.84.66,2.31,2.31,0,0,0,1,.24,2.68,2.68,0,0,0,.62-.07,2.42,2.42,0,0,0,.61-.24,2.74,2.74,0,0,0,.54-.41,2.15,2.15,0,0,0,.42-.6l.58.3a2.12,2.12,0,0,1-.48.71,2.94,2.94,0,0,1-.69.51,3.26,3.26,0,0,1-.8.32,3.46,3.46,0,0,1-.84.11,2.91,2.91,0,0,1-1.34-.32,3.67,3.67,0,0,1-1.05-.83,4,4,0,0,1-.68-1.17A3.92,3.92,0,0,1,133,58.4Z"/><path class="cls-1" d="M143.17,61.42a2.35,2.35,0,0,0,1.12-.25,2.08,2.08,0,0,0,.71-.67,2.73,2.73,0,0,0,.37-1,5.46,5.46,0,0,0,.1-1.07V54.9h.7v3.58a5.53,5.53,0,0,1-.16,1.37A3.07,3.07,0,0,1,145.5,61a2.53,2.53,0,0,1-.93.78,3.07,3.07,0,0,1-1.39.29,3,3,0,0,1-1.41-.3,2.81,2.81,0,0,1-.93-.81,3.27,3.27,0,0,1-.5-1.14,5.81,5.81,0,0,1-.15-1.32V54.9h.69v3.58a5.6,5.6,0,0,0,.11,1.09,2.81,2.81,0,0,0,.38.94,2.11,2.11,0,0,0,.7.66A2.18,2.18,0,0,0,143.17,61.42Z"/><path class="cls-1" d="M152.61,61.38V62h-4.77V54.9h4.68v.62h-4v2.56H152v.59h-3.47v2.71Z"/><path class="cls-1" d="M154.63,56.2V62h-.7V54.9h.54l4.7,5.91v-5.9h.7V62h-.61Z"/><path class="cls-1" d="M161.18,58.4a3.74,3.74,0,0,1,.23-1.27,3.56,3.56,0,0,1,.65-1.14,3.46,3.46,0,0,1,1.06-.82,3.16,3.16,0,0,1,1.43-.31,2.94,2.94,0,0,1,1.63.43,2.6,2.6,0,0,1,1,1.12l-.55.34a2.14,2.14,0,0,0-.41-.59,2.2,2.2,0,0,0-.53-.39,2,2,0,0,0-.58-.21,2.38,2.38,0,0,0-.59-.07,2.44,2.44,0,0,0-1.13.26,2.57,2.57,0,0,0-.82.68,3.22,3.22,0,0,0-.51,1,3.51,3.51,0,0,0-.17,1.06,3.1,3.1,0,0,0,.21,1.13,3.27,3.27,0,0,0,.56,1,3,3,0,0,0,.84.66,2.31,2.31,0,0,0,1,.24,2.68,2.68,0,0,0,.62-.07,2.42,2.42,0,0,0,.61-.24,2.74,2.74,0,0,0,.54-.41,2.15,2.15,0,0,0,.42-.6l.58.3a2.12,2.12,0,0,1-.48.71,2.94,2.94,0,0,1-.69.51,3.26,3.26,0,0,1-.8.32,3.46,3.46,0,0,1-.84.11,2.91,2.91,0,0,1-1.34-.32,3.67,3.67,0,0,1-1-.83,4,4,0,0,1-.68-1.17A3.92,3.92,0,0,1,161.18,58.4Z"/><path class="cls-1" d="M168.51,62V54.9h.7V62Z"/><path class="cls-1" d="M173.19,54.9h.59l2.95,7.1H176l-.92-2.22h-3.19L171,62h-.75Zm1.72,4.33-1.43-3.51L172,59.23Z"/><path class="cls-1" d="M177.51,57.8v-1h.58v1Zm0,4.2V61h.58v1Z"/><path class="cls-1" d="M186.33,56.23a2.07,2.07,0,0,0-.8-.55,2.9,2.9,0,0,0-1.14-.21,2.14,2.14,0,0,0-1.37.36,1.18,1.18,0,0,0-.43,1,.93.93,0,0,0,.47.88,2.41,2.41,0,0,0,.62.26c.25.07.54.15.88.22a9.52,9.52,0,0,1,1,.27,3.25,3.25,0,0,1,.77.37,1.59,1.59,0,0,1,.49.55,1.61,1.61,0,0,1,.17.8,1.75,1.75,0,0,1-.19.85,1.6,1.6,0,0,1-.53.6,2.32,2.32,0,0,1-.81.36,4.65,4.65,0,0,1-1,.11,4.22,4.22,0,0,1-2.85-1l.35-.57a3,3,0,0,0,.46.38,3.31,3.31,0,0,0,.59.32,3.66,3.66,0,0,0,1.47.28,2.4,2.4,0,0,0,1.33-.31,1,1,0,0,0,.47-.92,1,1,0,0,0-.13-.55,1.1,1.1,0,0,0-.41-.39,2.8,2.8,0,0,0-.67-.29q-.39-.12-.93-.24c-.37-.09-.7-.18-1-.27a2.61,2.61,0,0,1-.71-.35,1.46,1.46,0,0,1-.43-.5,1.61,1.61,0,0,1-.15-.73,2,2,0,0,1,.19-.87,1.64,1.64,0,0,1,.52-.64,2.59,2.59,0,0,1,.8-.39,3.64,3.64,0,0,1,1-.14,3.35,3.35,0,0,1,1.27.22,3.29,3.29,0,0,1,1,.6Z"/><path class="cls-1" d="M193,61.38V62h-4.77V54.9h4.68v.62h-4v2.56h3.47v.59H189v2.71Z"/><path class="cls-1" d="M200.63,62V56.17L198,60.68h-.41L195,56.17V62h-.7V54.9h.72l2.77,4.86,2.79-4.86h.71V62Z"/><path class="cls-1" d="M205.31,54.9h.59l2.95,7.1h-.74l-.92-2.22H204L203.09,62h-.75ZM207,59.23l-1.43-3.51-1.45,3.51Z"/><path class="cls-1" d="M210.57,56.2V62h-.7V54.9h.54l4.7,5.91v-5.9h.7V62h-.61Z"/><path class="cls-1" d="M219.79,54.9h.59l3,7.1h-.74l-.92-2.22h-3.19L217.57,62h-.75Zm1.72,4.33-1.43-3.51-1.45,3.51Z"/><path class="cls-1" d="M224.35,62V54.9h.7v6.48h4.1V62Z"/><path class="cls-1" d="M37.19,74V66.9h2.94a1.75,1.75,0,0,1,.85.2,2.34,2.34,0,0,1,1.1,1.22,2.13,2.13,0,0,1,.16.81,2.45,2.45,0,0,1-.15.85,2.3,2.3,0,0,1-.42.71,2.09,2.09,0,0,1-.64.5,1.79,1.79,0,0,1-.84.19h-2.3V74Zm.7-3.24h2.27a1.33,1.33,0,0,0,.57-.13,1.36,1.36,0,0,0,.43-.36,1.83,1.83,0,0,0,.38-1.14A1.67,1.67,0,0,0,41.12,68a1.38,1.38,0,0,0-.46-.34,1.24,1.24,0,0,0-.56-.13H37.89Z"/><path class="cls-1" d="M48.18,73.38V74H43.41V66.9h4.68v.62h-4v2.56h3.47v.59H44.11v2.71Z"/><path class="cls-1" d="M49.5,74V66.9h3a1.75,1.75,0,0,1,.85.2,2.28,2.28,0,0,1,1.25,2,2.67,2.67,0,0,1-.11.75,2.74,2.74,0,0,1-.32.64,2.07,2.07,0,0,1-.5.48,1.78,1.78,0,0,1-.65.26L54.76,74H54L52.3,71.38H50.2V74Zm.7-3.24h2.32a1.33,1.33,0,0,0,.57-.13,1.39,1.39,0,0,0,.43-.37,1.86,1.86,0,0,0,.28-.52,1.82,1.82,0,0,0,0-1.22,1.79,1.79,0,0,0-.31-.52,1.56,1.56,0,0,0-.46-.35,1.24,1.24,0,0,0-.56-.13H50.2Z"/><path class="cls-1" d="M56,74V66.9h.7V74Z"/><path class="cls-1" d="M61.37,74.05a3,3,0,0,1-1.35-.3A3.56,3.56,0,0,1,59,72.94a3.85,3.85,0,0,1-.68-1.16A3.81,3.81,0,0,1,58,70.45a3.7,3.7,0,0,1,.26-1.36,3.74,3.74,0,0,1,.7-1.15,3.31,3.31,0,0,1,1.06-.79,3.05,3.05,0,0,1,2.68,0,3.39,3.39,0,0,1,1,.82,3.81,3.81,0,0,1,.66,3.83,3.89,3.89,0,0,1-.7,1.14,3.31,3.31,0,0,1-1.06.79A3,3,0,0,1,61.37,74.05Zm-2.63-3.6a3.25,3.25,0,0,0,.19,1.12,3.3,3.3,0,0,0,.54,1,2.63,2.63,0,0,0,.83.65,2.25,2.25,0,0,0,1.07.25,2.34,2.34,0,0,0,1.09-.26,2.61,2.61,0,0,0,.83-.68,3.27,3.27,0,0,0,.53-1A3.31,3.31,0,0,0,64,70.45a3.25,3.25,0,0,0-.19-1.12,3.14,3.14,0,0,0-.55-.94,2.63,2.63,0,0,0-.83-.65,2.21,2.21,0,0,0-1.06-.25,2.34,2.34,0,0,0-1.09.26,2.58,2.58,0,0,0-.83.67,3,3,0,0,0-.52,1A3.07,3.07,0,0,0,58.74,70.45Z"/><path class="cls-1" d="M66,74V66.9h2.41a3.63,3.63,0,0,1,1.49.28,3.16,3.16,0,0,1,1.06.76,3.29,3.29,0,0,1,.64,1.13,4.37,4.37,0,0,1,.21,1.37,4.28,4.28,0,0,1-.24,1.47A3.43,3.43,0,0,1,70.91,73a3.31,3.31,0,0,1-1.07.72,3.73,3.73,0,0,1-1.41.25Zm5.11-3.56A3.59,3.59,0,0,0,71,69.27a2.64,2.64,0,0,0-.52-.93,2.35,2.35,0,0,0-.85-.6,2.78,2.78,0,0,0-1.15-.22H66.72v5.86h1.71a2.87,2.87,0,0,0,1.17-.22,2.62,2.62,0,0,0,.84-.62,2.83,2.83,0,0,0,.52-.93A4,4,0,0,0,71.13,70.44Z"/><path class="cls-1" d="M76,74.05a3,3,0,0,1-1.35-.3,3.56,3.56,0,0,1-1.06-.81,3.85,3.85,0,0,1-.68-1.16,3.81,3.81,0,0,1-.24-1.33A3.7,3.7,0,0,1,73,69.09a3.74,3.74,0,0,1,.7-1.15,3.31,3.31,0,0,1,1.06-.79,3.05,3.05,0,0,1,2.68,0,3.39,3.39,0,0,1,1,.82,3.81,3.81,0,0,1,.66,3.83,3.89,3.89,0,0,1-.7,1.14,3.31,3.31,0,0,1-1.06.79A3,3,0,0,1,76,74.05Zm-2.63-3.6a3.25,3.25,0,0,0,.19,1.12,3.3,3.3,0,0,0,.54,1,2.63,2.63,0,0,0,.83.65,2.25,2.25,0,0,0,1.07.25,2.34,2.34,0,0,0,1.09-.26,2.61,2.61,0,0,0,.83-.68,3.27,3.27,0,0,0,.53-1,3.31,3.31,0,0,0,.18-1.08,3.25,3.25,0,0,0-.19-1.12,3.14,3.14,0,0,0-.55-.94,2.63,2.63,0,0,0-.83-.65A2.21,2.21,0,0,0,76,67.49a2.34,2.34,0,0,0-1.09.26,2.58,2.58,0,0,0-.83.67,3,3,0,0,0-.52,1A3.07,3.07,0,0,0,73.4,70.45Z"/><path class="cls-1" d="M80.44,69.8v-1H81v1Zm0,4.2V73H81v1Z"/><path class="cls-1" d="M85.11,74V66.9h.7v6.48h4.1V74Z"/><path class="cls-1" d="M93.38,73.42a2.28,2.28,0,0,0,1.11-.25,2.11,2.11,0,0,0,.72-.67,2.93,2.93,0,0,0,.36-1,4.8,4.8,0,0,0,.11-1.07V66.9h.7v3.58a5.53,5.53,0,0,1-.16,1.37A3.43,3.43,0,0,1,95.71,73a2.53,2.53,0,0,1-.93.78,3.07,3.07,0,0,1-1.39.29,3,3,0,0,1-1.41-.3,2.63,2.63,0,0,1-.93-.81,3.27,3.27,0,0,1-.5-1.14,5.81,5.81,0,0,1-.15-1.32V66.9h.69v3.58a5.6,5.6,0,0,0,.11,1.09,2.8,2.8,0,0,0,.37.94,2,2,0,0,0,1.81.91Z"/><path class="cls-1" d="M98.75,68.2V74h-.7V66.9h.54l4.7,5.91v-5.9h.7V74h-.61Z"/><path class="cls-1" d="M110.54,73.38V74h-4.77V66.9h4.68v.62h-4v2.56h3.47v.59h-3.47v2.71Z"/><path class="cls-1" d="M115.86,68.23a2.15,2.15,0,0,0-.8-.55,2.9,2.9,0,0,0-1.14-.21,2.12,2.12,0,0,0-1.37.36,1.15,1.15,0,0,0-.43,1,1.19,1.19,0,0,0,.11.53,1.1,1.1,0,0,0,.36.35,2.33,2.33,0,0,0,.61.26c.25.07.55.15.89.22a9.31,9.31,0,0,1,1,.27,3.15,3.15,0,0,1,.78.37,1.69,1.69,0,0,1,.49.55,1.72,1.72,0,0,1,.17.8,1.75,1.75,0,0,1-.19.85,1.69,1.69,0,0,1-.53.6A2.5,2.5,0,0,1,115,74a4.72,4.72,0,0,1-1,.11,4.22,4.22,0,0,1-2.85-1l.35-.57a3.46,3.46,0,0,0,.45.38,3.7,3.7,0,0,0,.59.32,3.8,3.8,0,0,0,.7.21,4,4,0,0,0,.78.07,2.34,2.34,0,0,0,1.32-.31,1,1,0,0,0,.48-.92,1,1,0,0,0-.14-.55,1.07,1.07,0,0,0-.4-.39,2.8,2.8,0,0,0-.67-.29q-.41-.12-.93-.24c-.37-.09-.7-.18-1-.27a2.48,2.48,0,0,1-.71-.35,1.49,1.49,0,0,1-.44-.5,1.76,1.76,0,0,1-.14-.73,2,2,0,0,1,.18-.87,1.66,1.66,0,0,1,.53-.64,2.49,2.49,0,0,1,.8-.39,3.64,3.64,0,0,1,1-.14,3.4,3.4,0,0,1,2.27.82Z"/><path class="cls-1" d="M123.5,73.38V74h-3.39v-.62h1.42V69.1a1,1,0,0,1-.28.26,3.5,3.5,0,0,1-.43.26,2.55,2.55,0,0,1-.48.2,1.58,1.58,0,0,1-.44.08v-.66a1.13,1.13,0,0,0,.5-.13,3.72,3.72,0,0,0,.52-.3,3.26,3.26,0,0,0,.42-.32.94.94,0,0,0,.19-.2h.7v5.09Z"/><path class="cls-1" d="M127.78,73.38V74h-3.39v-.62h1.42V69.1a1,1,0,0,1-.28.26,3.5,3.5,0,0,1-.43.26,2.55,2.55,0,0,1-.48.2,1.58,1.58,0,0,1-.44.08v-.66a1.13,1.13,0,0,0,.5-.13,3.72,3.72,0,0,0,.52-.3,3.26,3.26,0,0,0,.42-.32.94.94,0,0,0,.19-.2h.7v5.09Z"/><path class="cls-1" d="M133.33,66.9h.59l3,7.1h-.74l-.92-2.22H132L131.11,74h-.75Zm1.72,4.33-1.43-3.51-1.45,3.51Z"/><path class="cls-1" d="M137.89,74V66.9h.7v6.48h4.1V74Z"/><path class="cls-1" d="M146,74V66.9h2.41a3.55,3.55,0,0,1,1.48.28,3,3,0,0,1,1.7,1.89,4.1,4.1,0,0,1,.22,1.37,4.28,4.28,0,0,1-.24,1.47,3.29,3.29,0,0,1-.69,1.12,3.11,3.11,0,0,1-1.07.72,3.64,3.64,0,0,1-1.4.25Zm5.11-3.56a3.59,3.59,0,0,0-.18-1.17,2.66,2.66,0,0,0-.53-.93,2.31,2.31,0,0,0-.84-.6,2.78,2.78,0,0,0-1.15-.22H146.7v5.86h1.71a2.79,2.79,0,0,0,1.16-.22,2.56,2.56,0,0,0,.85-.62,2.64,2.64,0,0,0,.51-.93A3.68,3.68,0,0,0,151.11,70.44Z"/><path class="cls-1" d="M156,74.05a3.08,3.08,0,0,1-1.36-.3,3.51,3.51,0,0,1-1.05-.81,3.85,3.85,0,0,1-.68-1.16,3.81,3.81,0,0,1-.24-1.33,3.69,3.69,0,0,1,.25-1.36,3.76,3.76,0,0,1,.71-1.15,3.31,3.31,0,0,1,1.06-.79,3,3,0,0,1,1.32-.3,2.92,2.92,0,0,1,1.35.32,3.39,3.39,0,0,1,1,.82,3.85,3.85,0,0,1,.92,2.47,3.78,3.78,0,0,1-1,2.5,3.16,3.16,0,0,1-1,.79A3,3,0,0,1,156,74.05Zm-2.63-3.6a3.25,3.25,0,0,0,.19,1.12,3.3,3.3,0,0,0,.54,1,2.63,2.63,0,0,0,.83.65,2.25,2.25,0,0,0,1.07.25,2.34,2.34,0,0,0,1.09-.26,2.61,2.61,0,0,0,.83-.68,3,3,0,0,0,.52-1,3.07,3.07,0,0,0,.19-1.08,3.26,3.26,0,0,0-.2-1.12,3.12,3.12,0,0,0-.54-.94,2.63,2.63,0,0,0-.83-.65,2.21,2.21,0,0,0-1.06-.25,2.34,2.34,0,0,0-1.09.26,2.58,2.58,0,0,0-.83.67,3.27,3.27,0,0,0-.53,1A3.31,3.31,0,0,0,153.38,70.45Z"/><path class="cls-1" d="M167,74V68.17l-2.59,4.51H164l-2.59-4.51V74h-.7V66.9h.72l2.77,4.86,2.79-4.86h.71V74Z"/><path class="cls-1" d="M169.43,74V66.9h.7V74Z"/><path class="cls-1" d="M172.61,68.2V74h-.7V66.9h.54l4.7,5.91v-5.9h.7V74h-.61Z"/><path class="cls-1" d="M184.76,73a3,3,0,0,1-2.28,1.09,2.86,2.86,0,0,1-1.33-.31,3.64,3.64,0,0,1-1.05-.82,4,4,0,0,1-.69-1.15,3.65,3.65,0,0,1-.25-1.33,3.69,3.69,0,0,1,.93-2.5,3.23,3.23,0,0,1,1-.79,2.9,2.9,0,0,1,1.31-.3,4,4,0,0,1,.95.11,2.77,2.77,0,0,1,.76.33,2,2,0,0,1,.58.49,2.42,2.42,0,0,1,.42.62l-.54.36a2.32,2.32,0,0,0-.91-1,2.54,2.54,0,0,0-1.27-.31,2.25,2.25,0,0,0-1.07.25,2.74,2.74,0,0,0-.81.67,3,3,0,0,0-.51.95,3.38,3.38,0,0,0-.18,1.1,3.33,3.33,0,0,0,.2,1.14,3.12,3.12,0,0,0,.57,1,2.76,2.76,0,0,0,.84.64,2.46,2.46,0,0,0,2.22-.05,3.36,3.36,0,0,0,1.07-.9V71.05h-1.58v-.54h2.17V74h-.59Z"/><path class="cls-1" d="M189.65,74.05a3.08,3.08,0,0,1-1.36-.3,3.51,3.51,0,0,1-1-.81,3.85,3.85,0,0,1-.68-1.16,3.81,3.81,0,0,1-.24-1.33,3.69,3.69,0,0,1,.25-1.36,3.76,3.76,0,0,1,.71-1.15,3.31,3.31,0,0,1,1.06-.79,3,3,0,0,1,1.32-.3,2.92,2.92,0,0,1,1.35.32,3.39,3.39,0,0,1,1.05.82,3.85,3.85,0,0,1,.92,2.47,3.78,3.78,0,0,1-1,2.5,3.16,3.16,0,0,1-1.05.79A3,3,0,0,1,189.65,74.05ZM187,70.45a3.25,3.25,0,0,0,.19,1.12,3.3,3.3,0,0,0,.54,1,2.63,2.63,0,0,0,.83.65,2.25,2.25,0,0,0,1.07.25,2.34,2.34,0,0,0,1.09-.26,2.61,2.61,0,0,0,.83-.68,3,3,0,0,0,.52-1,3.07,3.07,0,0,0,.19-1.08,3.26,3.26,0,0,0-.2-1.12,3.12,3.12,0,0,0-.54-.94,2.63,2.63,0,0,0-.83-.65,2.21,2.21,0,0,0-1.06-.25,2.34,2.34,0,0,0-1.09.26,2.58,2.58,0,0,0-.83.67,3.27,3.27,0,0,0-.53,1A3.31,3.31,0,0,0,187,70.45Z"/><path class="cls-1" d="M200,73.38V74h-3.39v-.62h1.42V69.1a1,1,0,0,1-.28.26,3.5,3.5,0,0,1-.43.26,2.86,2.86,0,0,1-.48.2,1.65,1.65,0,0,1-.44.08v-.66a1.13,1.13,0,0,0,.5-.13,3.72,3.72,0,0,0,.52-.3,3.26,3.26,0,0,0,.42-.32.94.94,0,0,0,.19-.2h.7v5.09Z"/><path class="cls-1" d="M205.67,72a1.84,1.84,0,0,1-.2.85,2,2,0,0,1-.54.64,2.54,2.54,0,0,1-.8.42,3.31,3.31,0,0,1-.95.14,2.84,2.84,0,0,1-1-.16,2.33,2.33,0,0,1-.78-.46,2,2,0,0,1-.5-.66,1.85,1.85,0,0,1-.18-.81,1.61,1.61,0,0,1,.12-.63,2.23,2.23,0,0,1,.33-.51,2.11,2.11,0,0,1,.45-.39,2.53,2.53,0,0,1,.52-.26,3.21,3.21,0,0,1-.45-.24,2,2,0,0,1-.37-.34,1.83,1.83,0,0,1-.26-.42,1.33,1.33,0,0,1-.09-.49,1.5,1.5,0,0,1,.2-.77,1.75,1.75,0,0,1,.51-.57,2.48,2.48,0,0,1,.71-.35,2.77,2.77,0,0,1,.8-.12A2.66,2.66,0,0,1,204,67a2.14,2.14,0,0,1,.71.35,1.74,1.74,0,0,1,.52.56,1.52,1.52,0,0,1,.2.77,1.16,1.16,0,0,1-.1.49,1.59,1.59,0,0,1-.26.43,1.78,1.78,0,0,1-.38.34,3.21,3.21,0,0,1-.45.24,2.38,2.38,0,0,1,.55.28,2.15,2.15,0,0,1,.45.4,1.71,1.71,0,0,1,.31.52A1.61,1.61,0,0,1,205.67,72ZM205,72a1.18,1.18,0,0,0-.16-.63,1.58,1.58,0,0,0-.42-.47,2.11,2.11,0,0,0-1.21-.39,2,2,0,0,0-.64.11,1.89,1.89,0,0,0-.56.3,1.39,1.39,0,0,0-.4.47,1.29,1.29,0,0,0-.15.62,1.23,1.23,0,0,0,.16.63,1.64,1.64,0,0,0,.41.46,1.92,1.92,0,0,0,.57.29,2,2,0,0,0,.64.1,2,2,0,0,0,.63-.1,2.21,2.21,0,0,0,.57-.3,1.5,1.5,0,0,0,.4-.47A1.19,1.19,0,0,0,205,72Zm-3.31-3.24a1,1,0,0,0,.14.51,1.09,1.09,0,0,0,.36.38,1.49,1.49,0,0,0,.49.24,2.14,2.14,0,0,0,.54.08,2,2,0,0,0,.54-.08,1.49,1.49,0,0,0,.49-.24,1.37,1.37,0,0,0,.37-.39,1,1,0,0,0,.14-.52,1,1,0,0,0-.13-.51,1.39,1.39,0,0,0-.35-.38,1.48,1.48,0,0,0-.49-.23,2.25,2.25,0,0,0-.58-.08,1.88,1.88,0,0,0-.57.09,1.35,1.35,0,0,0-.48.24,1.24,1.24,0,0,0-.34.38A1,1,0,0,0,201.67,68.74Z"/><path class="cls-1" d="M209.61,74V66.9H212a3.59,3.59,0,0,1,1.48.28,3,3,0,0,1,1.7,1.89,4.1,4.1,0,0,1,.22,1.37,4.28,4.28,0,0,1-.24,1.47,3.29,3.29,0,0,1-.69,1.12,3.11,3.11,0,0,1-1.07.72A3.64,3.64,0,0,1,212,74Zm5.11-3.56a3.59,3.59,0,0,0-.18-1.17,2.66,2.66,0,0,0-.53-.93,2.31,2.31,0,0,0-.84-.6,2.81,2.81,0,0,0-1.15-.22h-1.71v5.86H212a2.79,2.79,0,0,0,1.16-.22,2.56,2.56,0,0,0,.85-.62,2.8,2.8,0,0,0,.51-.93A3.68,3.68,0,0,0,214.72,70.44Z"/><path class="cls-1" d="M221.53,73.38V74h-4.77V66.9h4.68v.62h-4v2.56h3.47v.59h-3.47v2.71Z"/><path class="cls-1" d="M226.1,68.2V74h-.7V66.9h.54l4.7,5.91v-5.9h.7V74h-.61Z"/><path class="cls-1" d="M236,74.05a3,3,0,0,1-1.36-.3,3.51,3.51,0,0,1-1.05-.81,3.66,3.66,0,0,1-.68-1.16,3.81,3.81,0,0,1-.24-1.33,3.69,3.69,0,0,1,.25-1.36,3.76,3.76,0,0,1,.71-1.15,3.31,3.31,0,0,1,1.06-.79,3,3,0,0,1,2.67,0,3.39,3.39,0,0,1,1,.82,3.85,3.85,0,0,1,.92,2.47,3.78,3.78,0,0,1-1,2.5,3.27,3.27,0,0,1-1,.79A3,3,0,0,1,236,74.05Zm-2.63-3.6a3.25,3.25,0,0,0,.19,1.12,2.89,2.89,0,0,0,.54,1,2.63,2.63,0,0,0,.83.65,2.22,2.22,0,0,0,1.07.25,2.34,2.34,0,0,0,1.09-.26,2.73,2.73,0,0,0,.83-.68,3.24,3.24,0,0,0,.52-1,3.07,3.07,0,0,0,.19-1.08,3.26,3.26,0,0,0-.2-1.12,3.12,3.12,0,0,0-.54-.94,2.75,2.75,0,0,0-.83-.65,2.24,2.24,0,0,0-1.06-.25,2.31,2.31,0,0,0-1.09.26,2.48,2.48,0,0,0-.83.67,3.27,3.27,0,0,0-.53,1A3.31,3.31,0,0,0,233.35,70.45Z"/><path class="cls-1" d="M240.34,66.9l2.54,6.23,2.53-6.23h.73l-3,7.1h-.61l-3-7.1Z"/><path class="cls-1" d="M247.16,74V66.9h.7V74Z"/><path class="cls-1" d="M254.41,73.38V74h-4.77V66.9h4.68v.62h-4v2.56h3.47v.59h-3.47v2.71Z"/><path class="cls-1" d="M262,74V68.17l-2.59,4.51H259l-2.59-4.51V74h-.7V66.9h.72l2.77,4.86L262,66.9h.71V74Z"/><path class="cls-1" d="M269.84,72.17a1.82,1.82,0,0,1-.16.74,2,2,0,0,1-.43.58,2,2,0,0,1-.63.38,2.19,2.19,0,0,1-.77.13H264.5V66.9h3.42a1.38,1.38,0,0,1,.67.16,1.76,1.76,0,0,1,.83,1,1.82,1.82,0,0,1,.12.65,1.89,1.89,0,0,1-.27,1,1.72,1.72,0,0,1-.75.66,1.75,1.75,0,0,1,1,.67A1.89,1.89,0,0,1,269.84,72.17Zm-4.64-4.66v2.62h2.44a1.13,1.13,0,0,0,.48-.11,1.24,1.24,0,0,0,.39-.29,1.55,1.55,0,0,0,.25-.41,1.43,1.43,0,0,0,.09-.5,1.44,1.44,0,0,0-.09-.51,1,1,0,0,0-.24-.41,1.09,1.09,0,0,0-.36-.28.92.92,0,0,0-.46-.11Zm3.94,4.54a1.52,1.52,0,0,0-.09-.51,1.29,1.29,0,0,0-.26-.42,1.14,1.14,0,0,0-.39-.3,1,1,0,0,0-.48-.12H265.2v2.69h2.65a1.18,1.18,0,0,0,.5-.11,1.22,1.22,0,0,0,.41-.29,1.52,1.52,0,0,0,.28-.43A1.54,1.54,0,0,0,269.14,72.05Z"/><path class="cls-1" d="M271.16,74V66.9h3a1.71,1.71,0,0,1,.84.2,2.25,2.25,0,0,1,.67.51,2.33,2.33,0,0,1,.43.71,2.13,2.13,0,0,1,.16.81,2.36,2.36,0,0,1-.12.75,2.14,2.14,0,0,1-.32.64,1.77,1.77,0,0,1-1.14.74L276.42,74h-.79L274,71.38h-2.1V74Zm.7-3.24h2.32a1.32,1.32,0,0,0,.56-.13,1.43,1.43,0,0,0,.44-.37,1.86,1.86,0,0,0,.28-.52,2.05,2.05,0,0,0,.1-.61,1.58,1.58,0,0,0-.12-.61,1.6,1.6,0,0,0-.31-.52,1.44,1.44,0,0,0-.46-.35,1.17,1.17,0,0,0-.55-.13h-2.26Z"/><path class="cls-1" d="M282.46,73.38V74h-4.77V66.9h4.68v.62h-4v2.56h3.47v.59h-3.47v2.71Z"/><path class="cls-1" d="M285.88,74a3.82,3.82,0,0,1,.06-.68,2.55,2.55,0,0,1,.23-.69,2.7,2.7,0,0,1,.5-.65,3.88,3.88,0,0,1,.87-.6l.6-.3a3.22,3.22,0,0,0,.58-.32,2.14,2.14,0,0,0,.44-.4.88.88,0,0,0,.17-.53,1,1,0,0,0-.34-.7,1.17,1.17,0,0,0-.41-.24,1.62,1.62,0,0,0-.57-.09,1.55,1.55,0,0,0-.59.1,1.79,1.79,0,0,0-.46.22,1.87,1.87,0,0,0-.33.28,1.32,1.32,0,0,0-.21.23l-.45-.49.23-.22a2.39,2.39,0,0,1,.44-.32,3.26,3.26,0,0,1,.65-.28,2.68,2.68,0,0,1,1.65,0,1.72,1.72,0,0,1,.61.34,1.7,1.7,0,0,1,.38.51,1.49,1.49,0,0,1,.13.59,1.36,1.36,0,0,1-.18.71,2,2,0,0,1-.45.52,3.07,3.07,0,0,1-.56.38l-.54.26a5.33,5.33,0,0,0-.63.32,3.06,3.06,0,0,0-.54.38,2.22,2.22,0,0,0-.4.47,1.14,1.14,0,0,0-.15.58h3.56V74Z"/><path class="cls-1" d="M296.22,71.07a4,4,0,0,1-.19,1.22,3,3,0,0,1-.53,1,2.4,2.4,0,0,1-.79.63,2.25,2.25,0,0,1-1,.22,2.22,2.22,0,0,1-1-.22,2.43,2.43,0,0,1-.8-.63,3,3,0,0,1-.52-1,3.67,3.67,0,0,1-.19-1.22,3.61,3.61,0,0,1,.19-1.21,3,3,0,0,1,.52-1,2.46,2.46,0,0,1,.8-.64,2.23,2.23,0,0,1,1-.23,2.26,2.26,0,0,1,1,.23,2.43,2.43,0,0,1,.79.64,3,3,0,0,1,.53,1A3.88,3.88,0,0,1,296.22,71.07Zm-.69,0a3.31,3.31,0,0,0-.14-1,2.45,2.45,0,0,0-.37-.76,1.68,1.68,0,0,0-.58-.48,1.52,1.52,0,0,0-.73-.18,1.57,1.57,0,0,0-.75.18,1.74,1.74,0,0,0-.57.48,2.46,2.46,0,0,0-.38.76,3.76,3.76,0,0,0,0,2,2.46,2.46,0,0,0,.38.76,1.63,1.63,0,0,0,.57.48,1.69,1.69,0,0,0,.75.17,1.63,1.63,0,0,0,.73-.17,1.58,1.58,0,0,0,.58-.48,2.45,2.45,0,0,0,.37-.76A3.31,3.31,0,0,0,295.53,71.07Z"/><path class="cls-1" d="M300.83,73.38V74h-3.39v-.62h1.42V69.1a1.2,1.2,0,0,1-.28.26,3.5,3.5,0,0,1-.43.26,2.86,2.86,0,0,1-.48.2,1.65,1.65,0,0,1-.44.08v-.66a1.13,1.13,0,0,0,.5-.13,3.72,3.72,0,0,0,.52-.3,4.15,4.15,0,0,0,.42-.32,1.35,1.35,0,0,0,.19-.2h.7v5.09Z"/><path class="cls-1" d="M301.41,70.73a2.3,2.3,0,0,1,.19-1,2.37,2.37,0,0,1,.54-.78,2.55,2.55,0,0,1,1.79-.71,2.53,2.53,0,0,1,1,.21,2.2,2.2,0,0,1,.8.58,2.68,2.68,0,0,1,.53.94,3.94,3.94,0,0,1,.19,1.24,8.74,8.74,0,0,1-.19,1.89,4.46,4.46,0,0,1-.54,1.34,2.17,2.17,0,0,1-1.89,1.05,2.4,2.4,0,0,1-1.27-.35,2.23,2.23,0,0,1-.85-1l.44-.4a1.81,1.81,0,0,0,1.68,1.12,1.57,1.57,0,0,0,.8-.21,2,2,0,0,0,.62-.6,3.45,3.45,0,0,0,.4-1,6.48,6.48,0,0,0,.15-1.32,2,2,0,0,1-.77.94,2.17,2.17,0,0,1-1.21.35,2.56,2.56,0,0,1-1-.18,2.72,2.72,0,0,1-.77-.51,2.38,2.38,0,0,1-.52-.77A2.29,2.29,0,0,1,301.41,70.73Zm2.51-1.84a1.75,1.75,0,0,0-.72.15,1.79,1.79,0,0,0-.59.39,1.87,1.87,0,0,0-.4.59,1.71,1.71,0,0,0-.15.71,1.79,1.79,0,0,0,.15.72,1.94,1.94,0,0,0,.4.58,1.79,1.79,0,0,0,.59.39,1.75,1.75,0,0,0,.72.15,1.92,1.92,0,0,0,1.31-.54,1.91,1.91,0,0,0,.39-.58,1.79,1.79,0,0,0,.15-.72,1.66,1.66,0,0,0-.15-.7,1.88,1.88,0,0,0-1.7-1.14Z"/><rect class="cls-1" x="14.02" y="32.12" width="317.92" height="1.6"/><path class="cls-2" d="M165,141.51l-15.86-40.28a1.75,1.75,0,0,0-3.25,0l-15.79,40.27a1.74,1.74,0,0,1-1.62,1.11H125a1.75,1.75,0,0,1-1.62-2.41l20.7-50.63a1.73,1.73,0,0,1,1.61-1.09h3.61a1.75,1.75,0,0,1,1.61,1.09l20.77,50.63a1.75,1.75,0,0,1-1.62,2.41h-3.46a1.74,1.74,0,0,1-1.62-1.11"/><path class="cls-1" d="M221,141.51l-15.86-40.28a1.75,1.75,0,0,0-3.25,0l-15.79,40.27a1.74,1.74,0,0,1-1.62,1.11H181a1.75,1.75,0,0,1-1.62-2.41l20.7-50.63a1.73,1.73,0,0,1,1.61-1.09h3.61a1.75,1.75,0,0,1,1.61,1.09l20.77,50.63a1.75,1.75,0,0,1-1.62,2.41h-3.46a1.74,1.74,0,0,1-1.62-1.11"/></svg>